solid OpenSCAD_Model
  facet normal 0.989176 0.146735 0
    outer loop
      vertex 12.4398 1.22521 2.5
      vertex 12.2598 2.43863 -2.5
      vertex 12.2598 2.43863 2.5
    endloop
  endfacet
  facet normal 0.989176 0.146735 0
    outer loop
      vertex 12.2598 2.43863 -2.5
      vertex 12.4398 1.22521 2.5
      vertex 12.4398 1.22521 -2.5
    endloop
  endfacet
  facet normal 0.998795 0.0490752 0
    outer loop
      vertex 12.5 0 2.5
      vertex 12.4398 1.22521 -2.5
      vertex 12.4398 1.22521 2.5
    endloop
  endfacet
  facet normal 0.998795 0.0490752 0
    outer loop
      vertex 12.4398 1.22521 -2.5
      vertex 12.5 0 2.5
      vertex 12.5 0 -2.5
    endloop
  endfacet
  facet normal 0.970043 0.242933 0
    outer loop
      vertex 12.2598 2.43863 2.5
      vertex 11.9618 3.62856 -2.5
      vertex 11.9618 3.62856 2.5
    endloop
  endfacet
  facet normal 0.970043 0.242933 0
    outer loop
      vertex 11.9618 3.62856 -2.5
      vertex 12.2598 2.43863 2.5
      vertex 12.2598 2.43863 -2.5
    endloop
  endfacet
  facet normal 0.857745 0.514075 0
    outer loop
      vertex 11.024 5.89246 2.5
      vertex 10.3934 6.94463 -2.5
      vertex 10.3934 6.94463 2.5
    endloop
  endfacet
  facet normal 0.857745 0.514075 0
    outer loop
      vertex 10.3934 6.94463 -2.5
      vertex 11.024 5.89246 2.5
      vertex 11.024 5.89246 -2.5
    endloop
  endfacet
  facet normal 0.740946 0.671564 0
    outer loop
      vertex 9.66263 7.92992 2.5
      vertex 8.83883 8.83883 -2.5
      vertex 8.83883 8.83883 2.5
    endloop
  endfacet
  facet normal 0.740946 0.671564 0
    outer loop
      vertex 8.83883 8.83883 -2.5
      vertex 9.66263 7.92992 2.5
      vertex 9.66263 7.92992 -2.5
    endloop
  endfacet
  facet normal -0.242933 0.970043 0
    outer loop
      vertex -2.43863 12.2598 -2.5
      vertex -3.62856 11.9618 2.5
      vertex -2.43863 12.2598 2.5
    endloop
  endfacet
  facet normal -0.242933 0.970043 0
    outer loop
      vertex -3.62856 11.9618 2.5
      vertex -2.43863 12.2598 -2.5
      vertex -3.62856 11.9618 -2.5
    endloop
  endfacet
  facet normal -0.803196 0.595715 0
    outer loop
      vertex -10.3934 6.94463 -2.5
      vertex -9.66263 7.92992 2.5
      vertex -9.66263 7.92992 -2.5
    endloop
  endfacet
  facet normal -0.803196 0.595715 0
    outer loop
      vertex -9.66263 7.92992 2.5
      vertex -10.3934 6.94463 -2.5
      vertex -10.3934 6.94463 2.5
    endloop
  endfacet
  facet normal -0 0 -1
    outer loop
      vertex 9.66263 7.92992 -2.5
      vertex 3.69448 1.78766 -2.5
      vertex 8.83883 8.83883 -2.5
    endloop
  endfacet
  facet normal 0 0 -1
    outer loop
      vertex 3.32277 1.98634 -2.5
      vertex 8.83883 8.83883 -2.5
      vertex 3.69448 1.78766 -2.5
    endloop
  endfacet
  facet normal -0 0 -1
    outer loop
      vertex 8.83883 8.83883 -2.5
      vertex 3.32277 1.98634 -2.5
      vertex 7.92992 9.66263 -2.5
    endloop
  endfacet
  facet normal -0 0 -1
    outer loop
      vertex 7.92992 9.66263 -2.5
      vertex 3.32277 1.98634 -2.5
      vertex 6.94463 10.3934 -2.5
    endloop
  endfacet
  facet normal 0 0 -1
    outer loop
      vertex 2.91944 2.10869 -2.5
      vertex 6.94463 10.3934 -2.5
      vertex 3.32277 1.98634 -2.5
    endloop
  endfacet
  facet normal -0 0 -1
    outer loop
      vertex 6.94463 10.3934 -2.5
      vertex 2.91944 2.10869 -2.5
      vertex 5.89246 11.024 -2.5
    endloop
  endfacet
  facet normal -0 0 -1
    outer loop
      vertex 5.89246 11.024 -2.5
      vertex 2.91944 2.10869 -2.5
      vertex 4.78354 11.5485 -2.5
    endloop
  endfacet
  facet normal 0 0 -1
    outer loop
      vertex 2.5 2.15 -2.5
      vertex 4.78354 11.5485 -2.5
      vertex 2.91944 2.10869 -2.5
    endloop
  endfacet
  facet normal -0 0 -1
    outer loop
      vertex 4.78354 11.5485 -2.5
      vertex 2.5 2.15 -2.5
      vertex 3.62856 11.9618 -2.5
    endloop
  endfacet
  facet normal 0 0 -1
    outer loop
      vertex 2.5 2.15 -2.5
      vertex 2.43863 12.2598 -2.5
      vertex 3.62856 11.9618 -2.5
    endloop
  endfacet
  facet normal 0 0 -1
    outer loop
      vertex 2.08055 2.10869 -2.5
      vertex 2.43863 12.2598 -2.5
      vertex 2.5 2.15 -2.5
    endloop
  endfacet
  facet normal 0 0 -1
    outer loop
      vertex 1.22521 12.4398 -2.5
      vertex 2.08055 2.10869 -2.5
      vertex 1.67723 1.98634 -2.5
    endloop
  endfacet
  facet normal 0 0 -1
    outer loop
      vertex -2.43863 12.2598 -2.5
      vertex 1.67723 1.98634 -2.5
      vertex 1.30552 1.78766 -2.5
    endloop
  endfacet
  facet normal 0 0 -1
    outer loop
      vertex 2.08055 2.10869 -2.5
      vertex 1.22521 12.4398 -2.5
      vertex 2.43863 12.2598 -2.5
    endloop
  endfacet
  facet normal 0 0 -1
    outer loop
      vertex -4.78354 11.5485 -2.5
      vertex 1.30552 1.78766 -2.5
      vertex 0.97972 1.52028 -2.5
    endloop
  endfacet
  facet normal 0 0 -1
    outer loop
      vertex -6.94463 10.3934 -2.5
      vertex 0.97972 1.52028 -2.5
      vertex 0.712339 1.19448 -2.5
    endloop
  endfacet
  facet normal 0 0 -1
    outer loop
      vertex -9.66263 7.92992 -2.5
      vertex 0.712339 1.19448 -2.5
      vertex 0.513659 0.822769 -2.5
    endloop
  endfacet
  facet normal 0 0 -1
    outer loop
      vertex -11.5485 4.78354 -2.5
      vertex 0.513659 0.822769 -2.5
      vertex 0.391312 0.419444 -2.5
    endloop
  endfacet
  facet normal 0 0 -1
    outer loop
      vertex -12.2598 2.43863 -2.5
      vertex 0.391312 0.419444 -2.5
      vertex 0.349999 0 -2.5
    endloop
  endfacet
  facet normal 0 0 -1
    outer loop
      vertex 1.67723 1.98634 -2.5
      vertex 0 12.5 -2.5
      vertex 1.22521 12.4398 -2.5
    endloop
  endfacet
  facet normal 0 0 -1
    outer loop
      vertex -5.89246 -11.024 -2.5
      vertex 0.97972 -1.52028 -2.5
      vertex -4.78354 -11.5485 -2.5
    endloop
  endfacet
  facet normal 0 0 -1
    outer loop
      vertex -6.94463 -10.3934 -2.5
      vertex 0.97972 -1.52028 -2.5
      vertex -5.89246 -11.024 -2.5
    endloop
  endfacet
  facet normal 0 0 -1
    outer loop
      vertex 1.67723 1.98634 -2.5
      vertex -1.22521 12.4398 -2.5
      vertex 0 12.5 -2.5
    endloop
  endfacet
  facet normal -0 0 -1
    outer loop
      vertex 0.97972 -1.52028 -2.5
      vertex -6.94463 -10.3934 -2.5
      vertex 0.712339 -1.19448 -2.5
    endloop
  endfacet
  facet normal 0 0 -1
    outer loop
      vertex 1.67723 1.98634 -2.5
      vertex -2.43863 12.2598 -2.5
      vertex -1.22521 12.4398 -2.5
    endloop
  endfacet
  facet normal 0 0 -1
    outer loop
      vertex -7.92992 -9.66263 -2.5
      vertex 0.712339 -1.19448 -2.5
      vertex -6.94463 -10.3934 -2.5
    endloop
  endfacet
  facet normal 0 0 -1
    outer loop
      vertex 1.30552 1.78766 -2.5
      vertex -3.62856 11.9618 -2.5
      vertex -2.43863 12.2598 -2.5
    endloop
  endfacet
  facet normal 0 0 -1
    outer loop
      vertex -8.83883 -8.83883 -2.5
      vertex 0.712339 -1.19448 -2.5
      vertex -7.92992 -9.66263 -2.5
    endloop
  endfacet
  facet normal 0 0 -1
    outer loop
      vertex 1.30552 1.78766 -2.5
      vertex -4.78354 11.5485 -2.5
      vertex -3.62856 11.9618 -2.5
    endloop
  endfacet
  facet normal 0 0 -1
    outer loop
      vertex -9.66263 -7.92992 -2.5
      vertex 0.712339 -1.19448 -2.5
      vertex -8.83883 -8.83883 -2.5
    endloop
  endfacet
  facet normal 0 0 -1
    outer loop
      vertex 0.97972 1.52028 -2.5
      vertex -5.89246 11.024 -2.5
      vertex -4.78354 11.5485 -2.5
    endloop
  endfacet
  facet normal -0 0 -1
    outer loop
      vertex 0.712339 -1.19448 -2.5
      vertex -9.66263 -7.92992 -2.5
      vertex 0.513659 -0.822769 -2.5
    endloop
  endfacet
  facet normal 0 0 -1
    outer loop
      vertex 0.97972 1.52028 -2.5
      vertex -6.94463 10.3934 -2.5
      vertex -5.89246 11.024 -2.5
    endloop
  endfacet
  facet normal 0 0 -1
    outer loop
      vertex -10.3934 -6.94463 -2.5
      vertex 0.513659 -0.822769 -2.5
      vertex -9.66263 -7.92992 -2.5
    endloop
  endfacet
  facet normal 0 0 -1
    outer loop
      vertex 0.712339 1.19448 -2.5
      vertex -7.92992 9.66263 -2.5
      vertex -6.94463 10.3934 -2.5
    endloop
  endfacet
  facet normal 0 0 -1
    outer loop
      vertex -11.024 -5.89246 -2.5
      vertex 0.513659 -0.822769 -2.5
      vertex -10.3934 -6.94463 -2.5
    endloop
  endfacet
  facet normal 0 0 -1
    outer loop
      vertex 0.712339 1.19448 -2.5
      vertex -8.83883 8.83883 -2.5
      vertex -7.92992 9.66263 -2.5
    endloop
  endfacet
  facet normal 0 0 -1
    outer loop
      vertex -11.5485 -4.78354 -2.5
      vertex 0.513659 -0.822769 -2.5
      vertex -11.024 -5.89246 -2.5
    endloop
  endfacet
  facet normal 0 0 -1
    outer loop
      vertex 0.712339 1.19448 -2.5
      vertex -9.66263 7.92992 -2.5
      vertex -8.83883 8.83883 -2.5
    endloop
  endfacet
  facet normal -0 0 -1
    outer loop
      vertex 0.513659 -0.822769 -2.5
      vertex -11.5485 -4.78354 -2.5
      vertex 0.391312 -0.419444 -2.5
    endloop
  endfacet
  facet normal 0 0 -1
    outer loop
      vertex 0.513659 0.822769 -2.5
      vertex -10.3934 6.94463 -2.5
      vertex -9.66263 7.92992 -2.5
    endloop
  endfacet
  facet normal 0 0 -1
    outer loop
      vertex -11.9618 -3.62856 -2.5
      vertex 0.391312 -0.419444 -2.5
      vertex -11.5485 -4.78354 -2.5
    endloop
  endfacet
  facet normal 0 0 -1
    outer loop
      vertex 0.513659 0.822769 -2.5
      vertex -11.024 5.89246 -2.5
      vertex -10.3934 6.94463 -2.5
    endloop
  endfacet
  facet normal 0 0 -1
    outer loop
      vertex -12.2598 -2.43863 -2.5
      vertex 0.391312 -0.419444 -2.5
      vertex -11.9618 -3.62856 -2.5
    endloop
  endfacet
  facet normal 0 0 -1
    outer loop
      vertex 0.513659 0.822769 -2.5
      vertex -11.5485 4.78354 -2.5
      vertex -11.024 5.89246 -2.5
    endloop
  endfacet
  facet normal -0 0 -1
    outer loop
      vertex 0.391312 -0.419444 -2.5
      vertex -12.2598 -2.43863 -2.5
      vertex 0.349999 0 -2.5
    endloop
  endfacet
  facet normal 0 0 -1
    outer loop
      vertex 0.391312 0.419444 -2.5
      vertex -11.9618 3.62856 -2.5
      vertex -11.5485 4.78354 -2.5
    endloop
  endfacet
  facet normal 0 0 -1
    outer loop
      vertex -12.4398 -1.22521 -2.5
      vertex 0.349999 0 -2.5
      vertex -12.2598 -2.43863 -2.5
    endloop
  endfacet
  facet normal 0 0 -1
    outer loop
      vertex 0.391312 0.419444 -2.5
      vertex -12.2598 2.43863 -2.5
      vertex -11.9618 3.62856 -2.5
    endloop
  endfacet
  facet normal 0 0 -1
    outer loop
      vertex -12.5 0 -2.5
      vertex 0.349999 0 -2.5
      vertex -12.4398 -1.22521 -2.5
    endloop
  endfacet
  facet normal 0 0 -1
    outer loop
      vertex 0.349999 0 -2.5
      vertex -12.4398 1.22521 -2.5
      vertex -12.2598 2.43863 -2.5
    endloop
  endfacet
  facet normal 0 0 -1
    outer loop
      vertex 0.349999 0 -2.5
      vertex -12.5 0 -2.5
      vertex -12.4398 1.22521 -2.5
    endloop
  endfacet
  facet normal 0 0 -1
    outer loop
      vertex 11.4239 -0.382683 -2.5
      vertex 12.5 0 -2.5
      vertex 12.4398 -1.22521 -2.5
    endloop
  endfacet
  facet normal 0 0 -1
    outer loop
      vertex 10.8827 -0.923879 -2.5
      vertex 12.4398 -1.22521 -2.5
      vertex 12.2598 -2.43863 -2.5
    endloop
  endfacet
  facet normal -0 0 -1
    outer loop
      vertex 12.5 0 -2.5
      vertex 11.4239 -0.382683 -2.5
      vertex 11.5 0 -2.5
    endloop
  endfacet
  facet normal 0 0 -1
    outer loop
      vertex 10.5 -1 -2.5
      vertex 12.2598 -2.43863 -2.5
      vertex 11.9618 -3.62856 -2.5
    endloop
  endfacet
  facet normal 0 0 -1
    outer loop
      vertex 12.5 0 -2.5
      vertex 11.4239 0.382683 -2.5
      vertex 12.4398 1.22521 -2.5
    endloop
  endfacet
  facet normal 0 0 -1
    outer loop
      vertex 10.1173 -0.923879 -2.5
      vertex 11.9618 -3.62856 -2.5
      vertex 11.5485 -4.78354 -2.5
    endloop
  endfacet
  facet normal 0 0 -1
    outer loop
      vertex 11.2071 0.707107 -2.5
      vertex 12.4398 1.22521 -2.5
      vertex 11.4239 0.382683 -2.5
    endloop
  endfacet
  facet normal 0 0 -1
    outer loop
      vertex 10.8827 0.923879 -2.5
      vertex 12.4398 1.22521 -2.5
      vertex 11.2071 0.707107 -2.5
    endloop
  endfacet
  facet normal 0 0 -1
    outer loop
      vertex 11.4239 0.382683 -2.5
      vertex 12.5 0 -2.5
      vertex 11.5 0 -2.5
    endloop
  endfacet
  facet normal 0 0 -1
    outer loop
      vertex 12.4398 -1.22521 -2.5
      vertex 11.2071 -0.707107 -2.5
      vertex 11.4239 -0.382683 -2.5
    endloop
  endfacet
  facet normal 0 0 -1
    outer loop
      vertex 10.1173 -0.923879 -2.5
      vertex 11.5485 -4.78354 -2.5
      vertex 11.024 -5.89246 -2.5
    endloop
  endfacet
  facet normal 0 0 -1
    outer loop
      vertex 12.4398 -1.22521 -2.5
      vertex 10.8827 -0.923879 -2.5
      vertex 11.2071 -0.707107 -2.5
    endloop
  endfacet
  facet normal 0 0 -1
    outer loop
      vertex 12.2598 -2.43863 -2.5
      vertex 10.5 -1 -2.5
      vertex 10.8827 -0.923879 -2.5
    endloop
  endfacet
  facet normal 0 0 -1
    outer loop
      vertex 4.02028 -1.52028 -2.5
      vertex 11.024 -5.89246 -2.5
      vertex 10.3934 -6.94463 -2.5
    endloop
  endfacet
  facet normal 0 0 -1
    outer loop
      vertex 11.9618 -3.62856 -2.5
      vertex 10.1173 -0.923879 -2.5
      vertex 10.5 -1 -2.5
    endloop
  endfacet
  facet normal 0 0 -1
    outer loop
      vertex 11.024 -5.89246 -2.5
      vertex 9.79289 -0.707107 -2.5
      vertex 10.1173 -0.923879 -2.5
    endloop
  endfacet
  facet normal 0 0 -1
    outer loop
      vertex 4.02028 -1.52028 -2.5
      vertex 10.3934 -6.94463 -2.5
      vertex 9.66263 -7.92992 -2.5
    endloop
  endfacet
  facet normal 0 0 -1
    outer loop
      vertex 11.024 -5.89246 -2.5
      vertex 4.02028 -1.52028 -2.5
      vertex 9.79289 -0.707107 -2.5
    endloop
  endfacet
  facet normal 0 -0 -1
    outer loop
      vertex 4.28766 -1.19448 -2.5
      vertex 9.79289 -0.707107 -2.5
      vertex 4.02028 -1.52028 -2.5
    endloop
  endfacet
  facet normal 0 0 -1
    outer loop
      vertex 3.69448 -1.78766 -2.5
      vertex 9.66263 -7.92992 -2.5
      vertex 8.83883 -8.83883 -2.5
    endloop
  endfacet
  facet normal -0 0 -1
    outer loop
      vertex 12.4398 1.22521 -2.5
      vertex 10.8827 0.923879 -2.5
      vertex 12.2598 2.43863 -2.5
    endloop
  endfacet
  facet normal 0 0 -1
    outer loop
      vertex 10.5 1 -2.5
      vertex 12.2598 2.43863 -2.5
      vertex 10.8827 0.923879 -2.5
    endloop
  endfacet
  facet normal -0 0 -1
    outer loop
      vertex 12.2598 2.43863 -2.5
      vertex 10.5 1 -2.5
      vertex 11.9618 3.62856 -2.5
    endloop
  endfacet
  facet normal 0 0 -1
    outer loop
      vertex 10.1173 0.923879 -2.5
      vertex 11.9618 3.62856 -2.5
      vertex 10.5 1 -2.5
    endloop
  endfacet
  facet normal -0 0 -1
    outer loop
      vertex 11.9618 3.62856 -2.5
      vertex 10.1173 0.923879 -2.5
      vertex 11.5485 4.78354 -2.5
    endloop
  endfacet
  facet normal -0 0 -1
    outer loop
      vertex 11.5485 4.78354 -2.5
      vertex 10.1173 0.923879 -2.5
      vertex 11.024 5.89246 -2.5
    endloop
  endfacet
  facet normal 0 0 -1
    outer loop
      vertex 9.79289 0.707107 -2.5
      vertex 11.024 5.89246 -2.5
      vertex 10.1173 0.923879 -2.5
    endloop
  endfacet
  facet normal 0 0 -1
    outer loop
      vertex 9.57612 0.382683 -2.5
      vertex 4.48634 0.822769 -2.5
      vertex 9.79289 0.707107 -2.5
    endloop
  endfacet
  facet normal 0 0 -1
    outer loop
      vertex 4.48634 0.822769 -2.5
      vertex 9.57612 0.382683 -2.5
      vertex 4.60869 0.419444 -2.5
    endloop
  endfacet
  facet normal 0 0 -1
    outer loop
      vertex 9.5 0 -2.5
      vertex 4.60869 0.419444 -2.5
      vertex 9.57612 0.382683 -2.5
    endloop
  endfacet
  facet normal 0 0 -1
    outer loop
      vertex 4.60869 0.419444 -2.5
      vertex 9.5 0 -2.5
      vertex 4.65 0 -2.5
    endloop
  endfacet
  facet normal -0 0 -1
    outer loop
      vertex 9.79289 -0.707107 -2.5
      vertex 4.48634 -0.822769 -2.5
      vertex 9.57612 -0.382683 -2.5
    endloop
  endfacet
  facet normal 0 0 -1
    outer loop
      vertex 4.28766 1.19448 -2.5
      vertex 9.79289 0.707107 -2.5
      vertex 4.48634 0.822769 -2.5
    endloop
  endfacet
  facet normal 0 0 -1
    outer loop
      vertex 3.32277 -1.98634 -2.5
      vertex 8.83883 -8.83883 -2.5
      vertex 7.92992 -9.66263 -2.5
    endloop
  endfacet
  facet normal 0 0 -1
    outer loop
      vertex 4.02028 1.52028 -2.5
      vertex 9.79289 0.707107 -2.5
      vertex 4.28766 1.19448 -2.5
    endloop
  endfacet
  facet normal 0 0 -1
    outer loop
      vertex 3.32277 -1.98634 -2.5
      vertex 7.92992 -9.66263 -2.5
      vertex 6.94463 -10.3934 -2.5
    endloop
  endfacet
  facet normal 0 0 -1
    outer loop
      vertex 9.79289 0.707107 -2.5
      vertex 4.02028 1.52028 -2.5
      vertex 11.024 5.89246 -2.5
    endloop
  endfacet
  facet normal 0 0 -1
    outer loop
      vertex 2.91944 -2.10869 -2.5
      vertex 6.94463 -10.3934 -2.5
      vertex 5.89246 -11.024 -2.5
    endloop
  endfacet
  facet normal -0 0 -1
    outer loop
      vertex 11.024 5.89246 -2.5
      vertex 4.02028 1.52028 -2.5
      vertex 10.3934 6.94463 -2.5
    endloop
  endfacet
  facet normal 0 0 -1
    outer loop
      vertex 2.91944 -2.10869 -2.5
      vertex 5.89246 -11.024 -2.5
      vertex 4.78354 -11.5485 -2.5
    endloop
  endfacet
  facet normal -0 0 -1
    outer loop
      vertex 10.3934 6.94463 -2.5
      vertex 4.02028 1.52028 -2.5
      vertex 9.66263 7.92992 -2.5
    endloop
  endfacet
  facet normal 0 0 -1
    outer loop
      vertex 3.69448 1.78766 -2.5
      vertex 9.66263 7.92992 -2.5
      vertex 4.02028 1.52028 -2.5
    endloop
  endfacet
  facet normal -0 0 -1
    outer loop
      vertex 9.5 0 -2.5
      vertex 4.60869 -0.419444 -2.5
      vertex 4.65 0 -2.5
    endloop
  endfacet
  facet normal -0 0 -1
    outer loop
      vertex 9.57612 -0.382683 -2.5
      vertex 4.60869 -0.419444 -2.5
      vertex 9.5 0 -2.5
    endloop
  endfacet
  facet normal 0 -0 -1
    outer loop
      vertex 4.60869 -0.419444 -2.5
      vertex 9.57612 -0.382683 -2.5
      vertex 4.48634 -0.822769 -2.5
    endloop
  endfacet
  facet normal 0 -0 -1
    outer loop
      vertex 4.48634 -0.822769 -2.5
      vertex 9.79289 -0.707107 -2.5
      vertex 4.28766 -1.19448 -2.5
    endloop
  endfacet
  facet normal 0 0 -1
    outer loop
      vertex 9.66263 -7.92992 -2.5
      vertex 3.69448 -1.78766 -2.5
      vertex 4.02028 -1.52028 -2.5
    endloop
  endfacet
  facet normal 0 0 -1
    outer loop
      vertex 2.5 -2.15 -2.5
      vertex 4.78354 -11.5485 -2.5
      vertex 3.62856 -11.9618 -2.5
    endloop
  endfacet
  facet normal 0 0 -1
    outer loop
      vertex 8.83883 -8.83883 -2.5
      vertex 3.32277 -1.98634 -2.5
      vertex 3.69448 -1.78766 -2.5
    endloop
  endfacet
  facet normal 0 0 -1
    outer loop
      vertex 6.94463 -10.3934 -2.5
      vertex 2.91944 -2.10869 -2.5
      vertex 3.32277 -1.98634 -2.5
    endloop
  endfacet
  facet normal 0 0 -1
    outer loop
      vertex 4.78354 -11.5485 -2.5
      vertex 2.5 -2.15 -2.5
      vertex 2.91944 -2.10869 -2.5
    endloop
  endfacet
  facet normal 0 0 -1
    outer loop
      vertex 2.43863 -12.2598 -2.5
      vertex 2.5 -2.15 -2.5
      vertex 3.62856 -11.9618 -2.5
    endloop
  endfacet
  facet normal 0 0 -1
    outer loop
      vertex 2.43863 -12.2598 -2.5
      vertex 2.08055 -2.10869 -2.5
      vertex 2.5 -2.15 -2.5
    endloop
  endfacet
  facet normal 0 0 -1
    outer loop
      vertex 1.22521 -12.4398 -2.5
      vertex 2.08055 -2.10869 -2.5
      vertex 2.43863 -12.2598 -2.5
    endloop
  endfacet
  facet normal -0 0 -1
    outer loop
      vertex 2.08055 -2.10869 -2.5
      vertex 1.22521 -12.4398 -2.5
      vertex 1.67723 -1.98634 -2.5
    endloop
  endfacet
  facet normal 0 0 -1
    outer loop
      vertex 0 -12.5 -2.5
      vertex 1.67723 -1.98634 -2.5
      vertex 1.22521 -12.4398 -2.5
    endloop
  endfacet
  facet normal 0 0 -1
    outer loop
      vertex -1.22521 -12.4398 -2.5
      vertex 1.67723 -1.98634 -2.5
      vertex 0 -12.5 -2.5
    endloop
  endfacet
  facet normal 0 0 -1
    outer loop
      vertex -2.43863 -12.2598 -2.5
      vertex 1.67723 -1.98634 -2.5
      vertex -1.22521 -12.4398 -2.5
    endloop
  endfacet
  facet normal -0 0 -1
    outer loop
      vertex 1.67723 -1.98634 -2.5
      vertex -2.43863 -12.2598 -2.5
      vertex 1.30552 -1.78766 -2.5
    endloop
  endfacet
  facet normal 0 0 -1
    outer loop
      vertex -3.62856 -11.9618 -2.5
      vertex 1.30552 -1.78766 -2.5
      vertex -2.43863 -12.2598 -2.5
    endloop
  endfacet
  facet normal 0 0 -1
    outer loop
      vertex -4.78354 -11.5485 -2.5
      vertex 1.30552 -1.78766 -2.5
      vertex -3.62856 -11.9618 -2.5
    endloop
  endfacet
  facet normal -0 0 -1
    outer loop
      vertex 1.30552 -1.78766 -2.5
      vertex -4.78354 -11.5485 -2.5
      vertex 0.97972 -1.52028 -2.5
    endloop
  endfacet
  facet normal 0.970043 -0.242933 0
    outer loop
      vertex 11.9618 -3.62856 2.5
      vertex 12.2598 -2.43863 -2.5
      vertex 12.2598 -2.43863 2.5
    endloop
  endfacet
  facet normal 0.970043 -0.242933 0
    outer loop
      vertex 12.2598 -2.43863 -2.5
      vertex 11.9618 -3.62856 2.5
      vertex 11.9618 -3.62856 -2.5
    endloop
  endfacet
  facet normal -0.514075 -0.857745 0
    outer loop
      vertex -6.94463 -10.3934 -2.5
      vertex -5.89246 -11.024 2.5
      vertex -6.94463 -10.3934 2.5
    endloop
  endfacet
  facet normal -0.514075 -0.857745 -0
    outer loop
      vertex -5.89246 -11.024 2.5
      vertex -6.94463 -10.3934 -2.5
      vertex -5.89246 -11.024 -2.5
    endloop
  endfacet
  facet normal 0.671564 0.740946 -0
    outer loop
      vertex 8.83883 8.83883 -2.5
      vertex 7.92992 9.66263 2.5
      vertex 8.83883 8.83883 2.5
    endloop
  endfacet
  facet normal 0.671564 0.740946 0
    outer loop
      vertex 7.92992 9.66263 2.5
      vertex 8.83883 8.83883 -2.5
      vertex 7.92992 9.66263 -2.5
    endloop
  endfacet
  facet normal 0.0490752 -0.998795 0
    outer loop
      vertex 0 -12.5 -2.5
      vertex 1.22521 -12.4398 2.5
      vertex 0 -12.5 2.5
    endloop
  endfacet
  facet normal 0.0490752 -0.998795 0
    outer loop
      vertex 1.22521 -12.4398 2.5
      vertex 0 -12.5 -2.5
      vertex 1.22521 -12.4398 -2.5
    endloop
  endfacet
  facet normal -0.33692 0.941533 0
    outer loop
      vertex -3.62856 11.9618 -2.5
      vertex -4.78354 11.5485 2.5
      vertex -3.62856 11.9618 2.5
    endloop
  endfacet
  facet normal -0.33692 0.941533 0
    outer loop
      vertex -4.78354 11.5485 2.5
      vertex -3.62856 11.9618 -2.5
      vertex -4.78354 11.5485 -2.5
    endloop
  endfacet
  facet normal 0.427568 0.903983 -0
    outer loop
      vertex 5.89246 11.024 -2.5
      vertex 4.78354 11.5485 2.5
      vertex 5.89246 11.024 2.5
    endloop
  endfacet
  facet normal 0.427568 0.903983 0
    outer loop
      vertex 4.78354 11.5485 2.5
      vertex 5.89246 11.024 -2.5
      vertex 4.78354 11.5485 -2.5
    endloop
  endfacet
  facet normal -0.595715 0.803196 0
    outer loop
      vertex -6.94463 10.3934 -2.5
      vertex -7.92992 9.66263 2.5
      vertex -6.94463 10.3934 2.5
    endloop
  endfacet
  facet normal -0.595715 0.803196 0
    outer loop
      vertex -7.92992 9.66263 2.5
      vertex -6.94463 10.3934 -2.5
      vertex -7.92992 9.66263 -2.5
    endloop
  endfacet
  facet normal 0.33692 0.941533 -0
    outer loop
      vertex 4.78354 11.5485 -2.5
      vertex 3.62856 11.9618 2.5
      vertex 4.78354 11.5485 2.5
    endloop
  endfacet
  facet normal 0.33692 0.941533 0
    outer loop
      vertex 3.62856 11.9618 2.5
      vertex 4.78354 11.5485 -2.5
      vertex 3.62856 11.9618 -2.5
    endloop
  endfacet
  facet normal 0.242933 0.970043 -0
    outer loop
      vertex 3.62856 11.9618 -2.5
      vertex 2.43863 12.2598 2.5
      vertex 3.62856 11.9618 2.5
    endloop
  endfacet
  facet normal 0.242933 0.970043 0
    outer loop
      vertex 2.43863 12.2598 2.5
      vertex 3.62856 11.9618 -2.5
      vertex 2.43863 12.2598 -2.5
    endloop
  endfacet
  facet normal 0.803196 0.595715 0
    outer loop
      vertex 10.3934 6.94463 2.5
      vertex 9.66263 7.92992 -2.5
      vertex 9.66263 7.92992 2.5
    endloop
  endfacet
  facet normal 0.803196 0.595715 0
    outer loop
      vertex 9.66263 7.92992 -2.5
      vertex 10.3934 6.94463 2.5
      vertex 10.3934 6.94463 -2.5
    endloop
  endfacet
  facet normal 0.989176 -0.146735 0
    outer loop
      vertex 12.2598 -2.43863 2.5
      vertex 12.4398 -1.22521 -2.5
      vertex 12.4398 -1.22521 2.5
    endloop
  endfacet
  facet normal 0.989176 -0.146735 0
    outer loop
      vertex 12.4398 -1.22521 -2.5
      vertex 12.2598 -2.43863 2.5
      vertex 12.2598 -2.43863 -2.5
    endloop
  endfacet
  facet normal -0.146735 -0.989176 0
    outer loop
      vertex -2.43863 -12.2598 -2.5
      vertex -1.22521 -12.4398 2.5
      vertex -2.43863 -12.2598 2.5
    endloop
  endfacet
  facet normal -0.146735 -0.989176 -0
    outer loop
      vertex -1.22521 -12.4398 2.5
      vertex -2.43863 -12.2598 -2.5
      vertex -1.22521 -12.4398 -2.5
    endloop
  endfacet
  facet normal -0.998795 -0.0490752 0
    outer loop
      vertex -12.4398 -1.22521 -2.5
      vertex -12.5 0 2.5
      vertex -12.5 0 -2.5
    endloop
  endfacet
  facet normal -0.998795 -0.0490752 0
    outer loop
      vertex -12.5 0 2.5
      vertex -12.4398 -1.22521 -2.5
      vertex -12.4398 -1.22521 2.5
    endloop
  endfacet
  facet normal 0.0490752 0.998795 -0
    outer loop
      vertex 1.22521 12.4398 -2.5
      vertex 0 12.5 2.5
      vertex 1.22521 12.4398 2.5
    endloop
  endfacet
  facet normal 0.0490752 0.998795 0
    outer loop
      vertex 0 12.5 2.5
      vertex 1.22521 12.4398 -2.5
      vertex 0 12.5 -2.5
    endloop
  endfacet
  facet normal 0.595715 0.803196 -0
    outer loop
      vertex 7.92992 9.66263 -2.5
      vertex 6.94463 10.3934 2.5
      vertex 7.92992 9.66263 2.5
    endloop
  endfacet
  facet normal 0.595715 0.803196 0
    outer loop
      vertex 6.94463 10.3934 2.5
      vertex 7.92992 9.66263 -2.5
      vertex 6.94463 10.3934 -2.5
    endloop
  endfacet
  facet normal -0.941533 0.33692 0
    outer loop
      vertex -11.9618 3.62856 -2.5
      vertex -11.5485 4.78354 2.5
      vertex -11.5485 4.78354 -2.5
    endloop
  endfacet
  facet normal -0.941533 0.33692 0
    outer loop
      vertex -11.5485 4.78354 2.5
      vertex -11.9618 3.62856 -2.5
      vertex -11.9618 3.62856 2.5
    endloop
  endfacet
  facet normal -0.0490752 0.998795 0
    outer loop
      vertex 0 12.5 -2.5
      vertex -1.22521 12.4398 2.5
      vertex 0 12.5 2.5
    endloop
  endfacet
  facet normal -0.0490752 0.998795 0
    outer loop
      vertex -1.22521 12.4398 2.5
      vertex 0 12.5 -2.5
      vertex -1.22521 12.4398 -2.5
    endloop
  endfacet
  facet normal 0.514075 -0.857745 0
    outer loop
      vertex 5.89246 -11.024 -2.5
      vertex 6.94463 -10.3934 2.5
      vertex 5.89246 -11.024 2.5
    endloop
  endfacet
  facet normal 0.514075 -0.857745 0
    outer loop
      vertex 6.94463 -10.3934 2.5
      vertex 5.89246 -11.024 -2.5
      vertex 6.94463 -10.3934 -2.5
    endloop
  endfacet
  facet normal -0.970043 0.242933 0
    outer loop
      vertex -12.2598 2.43863 -2.5
      vertex -11.9618 3.62856 2.5
      vertex -11.9618 3.62856 -2.5
    endloop
  endfacet
  facet normal -0.970043 0.242933 0
    outer loop
      vertex -11.9618 3.62856 2.5
      vertex -12.2598 2.43863 -2.5
      vertex -12.2598 2.43863 2.5
    endloop
  endfacet
  facet normal -0.671564 0.740946 0
    outer loop
      vertex -7.92992 9.66263 -2.5
      vertex -8.83883 8.83883 2.5
      vertex -7.92992 9.66263 2.5
    endloop
  endfacet
  facet normal -0.671564 0.740946 0
    outer loop
      vertex -8.83883 8.83883 2.5
      vertex -7.92992 9.66263 -2.5
      vertex -8.83883 8.83883 -2.5
    endloop
  endfacet
  facet normal -0.941533 -0.33692 0
    outer loop
      vertex -11.5485 -4.78354 -2.5
      vertex -11.9618 -3.62856 2.5
      vertex -11.9618 -3.62856 -2.5
    endloop
  endfacet
  facet normal -0.941533 -0.33692 0
    outer loop
      vertex -11.9618 -3.62856 2.5
      vertex -11.5485 -4.78354 -2.5
      vertex -11.5485 -4.78354 2.5
    endloop
  endfacet
  facet normal -0.857745 0.514075 0
    outer loop
      vertex -11.024 5.89246 -2.5
      vertex -10.3934 6.94463 2.5
      vertex -10.3934 6.94463 -2.5
    endloop
  endfacet
  facet normal -0.857745 0.514075 0
    outer loop
      vertex -10.3934 6.94463 2.5
      vertex -11.024 5.89246 -2.5
      vertex -11.024 5.89246 2.5
    endloop
  endfacet
  facet normal 0.903983 -0.427568 0
    outer loop
      vertex 11.024 -5.89246 2.5
      vertex 11.5485 -4.78354 -2.5
      vertex 11.5485 -4.78354 2.5
    endloop
  endfacet
  facet normal 0.903983 -0.427568 0
    outer loop
      vertex 11.5485 -4.78354 -2.5
      vertex 11.024 -5.89246 2.5
      vertex 11.024 -5.89246 -2.5
    endloop
  endfacet
  facet normal -0.33692 -0.941533 0
    outer loop
      vertex -4.78354 -11.5485 -2.5
      vertex -3.62856 -11.9618 2.5
      vertex -4.78354 -11.5485 2.5
    endloop
  endfacet
  facet normal -0.33692 -0.941533 -0
    outer loop
      vertex -3.62856 -11.9618 2.5
      vertex -4.78354 -11.5485 -2.5
      vertex -3.62856 -11.9618 -2.5
    endloop
  endfacet
  facet normal 0.427568 -0.903983 0
    outer loop
      vertex 4.78354 -11.5485 -2.5
      vertex 5.89246 -11.024 2.5
      vertex 4.78354 -11.5485 2.5
    endloop
  endfacet
  facet normal 0.427568 -0.903983 0
    outer loop
      vertex 5.89246 -11.024 2.5
      vertex 4.78354 -11.5485 -2.5
      vertex 5.89246 -11.024 -2.5
    endloop
  endfacet
  facet normal 0.146735 0.989176 -0
    outer loop
      vertex 2.43863 12.2598 -2.5
      vertex 1.22521 12.4398 2.5
      vertex 2.43863 12.2598 2.5
    endloop
  endfacet
  facet normal 0.146735 0.989176 0
    outer loop
      vertex 1.22521 12.4398 2.5
      vertex 2.43863 12.2598 -2.5
      vertex 1.22521 12.4398 -2.5
    endloop
  endfacet
  facet normal 0.998795 -0.0490752 0
    outer loop
      vertex 12.4398 -1.22521 2.5
      vertex 12.5 0 -2.5
      vertex 12.5 0 2.5
    endloop
  endfacet
  facet normal 0.998795 -0.0490752 0
    outer loop
      vertex 12.5 0 -2.5
      vertex 12.4398 -1.22521 2.5
      vertex 12.4398 -1.22521 -2.5
    endloop
  endfacet
  facet normal 0.146735 -0.989176 0
    outer loop
      vertex 1.22521 -12.4398 -2.5
      vertex 2.43863 -12.2598 2.5
      vertex 1.22521 -12.4398 2.5
    endloop
  endfacet
  facet normal 0.146735 -0.989176 0
    outer loop
      vertex 2.43863 -12.2598 2.5
      vertex 1.22521 -12.4398 -2.5
      vertex 2.43863 -12.2598 -2.5
    endloop
  endfacet
  facet normal -0.242933 -0.970043 0
    outer loop
      vertex -3.62856 -11.9618 -2.5
      vertex -2.43863 -12.2598 2.5
      vertex -3.62856 -11.9618 2.5
    endloop
  endfacet
  facet normal -0.242933 -0.970043 -0
    outer loop
      vertex -2.43863 -12.2598 2.5
      vertex -3.62856 -11.9618 -2.5
      vertex -2.43863 -12.2598 -2.5
    endloop
  endfacet
  facet normal 0.857745 -0.514075 0
    outer loop
      vertex 10.3934 -6.94463 2.5
      vertex 11.024 -5.89246 -2.5
      vertex 11.024 -5.89246 2.5
    endloop
  endfacet
  facet normal 0.857745 -0.514075 0
    outer loop
      vertex 11.024 -5.89246 -2.5
      vertex 10.3934 -6.94463 2.5
      vertex 10.3934 -6.94463 -2.5
    endloop
  endfacet
  facet normal -0.740946 0.671564 0
    outer loop
      vertex -9.66263 7.92992 -2.5
      vertex -8.83883 8.83883 2.5
      vertex -8.83883 8.83883 -2.5
    endloop
  endfacet
  facet normal -0.740946 0.671564 0
    outer loop
      vertex -8.83883 8.83883 2.5
      vertex -9.66263 7.92992 -2.5
      vertex -9.66263 7.92992 2.5
    endloop
  endfacet
  facet normal 0.941533 -0.33692 0
    outer loop
      vertex 11.5485 -4.78354 2.5
      vertex 11.9618 -3.62856 -2.5
      vertex 11.9618 -3.62856 2.5
    endloop
  endfacet
  facet normal 0.941533 -0.33692 0
    outer loop
      vertex 11.9618 -3.62856 -2.5
      vertex 11.5485 -4.78354 2.5
      vertex 11.5485 -4.78354 -2.5
    endloop
  endfacet
  facet normal 0.941533 0.33692 0
    outer loop
      vertex 11.9618 3.62856 2.5
      vertex 11.5485 4.78354 -2.5
      vertex 11.5485 4.78354 2.5
    endloop
  endfacet
  facet normal 0.941533 0.33692 0
    outer loop
      vertex 11.5485 4.78354 -2.5
      vertex 11.9618 3.62856 2.5
      vertex 11.9618 3.62856 -2.5
    endloop
  endfacet
  facet normal 0.514075 0.857745 -0
    outer loop
      vertex 6.94463 10.3934 -2.5
      vertex 5.89246 11.024 2.5
      vertex 6.94463 10.3934 2.5
    endloop
  endfacet
  facet normal 0.514075 0.857745 0
    outer loop
      vertex 5.89246 11.024 2.5
      vertex 6.94463 10.3934 -2.5
      vertex 5.89246 11.024 -2.5
    endloop
  endfacet
  facet normal -0.970043 -0.242933 0
    outer loop
      vertex -11.9618 -3.62856 -2.5
      vertex -12.2598 -2.43863 2.5
      vertex -12.2598 -2.43863 -2.5
    endloop
  endfacet
  facet normal -0.970043 -0.242933 0
    outer loop
      vertex -12.2598 -2.43863 2.5
      vertex -11.9618 -3.62856 -2.5
      vertex -11.9618 -3.62856 2.5
    endloop
  endfacet
  facet normal -0.514075 0.857745 0
    outer loop
      vertex -5.89246 11.024 -2.5
      vertex -6.94463 10.3934 2.5
      vertex -5.89246 11.024 2.5
    endloop
  endfacet
  facet normal -0.514075 0.857745 0
    outer loop
      vertex -6.94463 10.3934 2.5
      vertex -5.89246 11.024 -2.5
      vertex -6.94463 10.3934 -2.5
    endloop
  endfacet
  facet normal 0.740946 -0.671564 0
    outer loop
      vertex 8.83883 -8.83883 2.5
      vertex 9.66263 -7.92992 -2.5
      vertex 9.66263 -7.92992 2.5
    endloop
  endfacet
  facet normal 0.740946 -0.671564 0
    outer loop
      vertex 9.66263 -7.92992 -2.5
      vertex 8.83883 -8.83883 2.5
      vertex 8.83883 -8.83883 -2.5
    endloop
  endfacet
  facet normal -0.671564 -0.740946 0
    outer loop
      vertex -8.83883 -8.83883 -2.5
      vertex -7.92992 -9.66263 2.5
      vertex -8.83883 -8.83883 2.5
    endloop
  endfacet
  facet normal -0.671564 -0.740946 -0
    outer loop
      vertex -7.92992 -9.66263 2.5
      vertex -8.83883 -8.83883 -2.5
      vertex -7.92992 -9.66263 -2.5
    endloop
  endfacet
  facet normal -0.989176 0.146735 0
    outer loop
      vertex -12.4398 1.22521 -2.5
      vertex -12.2598 2.43863 2.5
      vertex -12.2598 2.43863 -2.5
    endloop
  endfacet
  facet normal -0.989176 0.146735 0
    outer loop
      vertex -12.2598 2.43863 2.5
      vertex -12.4398 1.22521 -2.5
      vertex -12.4398 1.22521 2.5
    endloop
  endfacet
  facet normal 0.903983 0.427568 0
    outer loop
      vertex 11.5485 4.78354 2.5
      vertex 11.024 5.89246 -2.5
      vertex 11.024 5.89246 2.5
    endloop
  endfacet
  facet normal 0.903983 0.427568 0
    outer loop
      vertex 11.024 5.89246 -2.5
      vertex 11.5485 4.78354 2.5
      vertex 11.5485 4.78354 -2.5
    endloop
  endfacet
  facet normal -0.427568 0.903983 0
    outer loop
      vertex -4.78354 11.5485 -2.5
      vertex -5.89246 11.024 2.5
      vertex -4.78354 11.5485 2.5
    endloop
  endfacet
  facet normal -0.427568 0.903983 0
    outer loop
      vertex -5.89246 11.024 2.5
      vertex -4.78354 11.5485 -2.5
      vertex -5.89246 11.024 -2.5
    endloop
  endfacet
  facet normal 0.803196 -0.595715 0
    outer loop
      vertex 9.66263 -7.92992 2.5
      vertex 10.3934 -6.94463 -2.5
      vertex 10.3934 -6.94463 2.5
    endloop
  endfacet
  facet normal 0.803196 -0.595715 0
    outer loop
      vertex 10.3934 -6.94463 -2.5
      vertex 9.66263 -7.92992 2.5
      vertex 9.66263 -7.92992 -2.5
    endloop
  endfacet
  facet normal -0.857745 -0.514075 0
    outer loop
      vertex -10.3934 -6.94463 -2.5
      vertex -11.024 -5.89246 2.5
      vertex -11.024 -5.89246 -2.5
    endloop
  endfacet
  facet normal -0.857745 -0.514075 0
    outer loop
      vertex -11.024 -5.89246 2.5
      vertex -10.3934 -6.94463 -2.5
      vertex -10.3934 -6.94463 2.5
    endloop
  endfacet
  facet normal -0.803196 -0.595715 0
    outer loop
      vertex -9.66263 -7.92992 -2.5
      vertex -10.3934 -6.94463 2.5
      vertex -10.3934 -6.94463 -2.5
    endloop
  endfacet
  facet normal -0.803196 -0.595715 0
    outer loop
      vertex -10.3934 -6.94463 2.5
      vertex -9.66263 -7.92992 -2.5
      vertex -9.66263 -7.92992 2.5
    endloop
  endfacet
  facet normal -0.903983 0.427568 0
    outer loop
      vertex -11.5485 4.78354 -2.5
      vertex -11.024 5.89246 2.5
      vertex -11.024 5.89246 -2.5
    endloop
  endfacet
  facet normal -0.903983 0.427568 0
    outer loop
      vertex -11.024 5.89246 2.5
      vertex -11.5485 4.78354 -2.5
      vertex -11.5485 4.78354 2.5
    endloop
  endfacet
  facet normal -0.427568 -0.903983 0
    outer loop
      vertex -5.89246 -11.024 -2.5
      vertex -4.78354 -11.5485 2.5
      vertex -5.89246 -11.024 2.5
    endloop
  endfacet
  facet normal -0.427568 -0.903983 -0
    outer loop
      vertex -4.78354 -11.5485 2.5
      vertex -5.89246 -11.024 -2.5
      vertex -4.78354 -11.5485 -2.5
    endloop
  endfacet
  facet normal 0.595715 -0.803196 0
    outer loop
      vertex 6.94463 -10.3934 -2.5
      vertex 7.92992 -9.66263 2.5
      vertex 6.94463 -10.3934 2.5
    endloop
  endfacet
  facet normal 0.595715 -0.803196 0
    outer loop
      vertex 7.92992 -9.66263 2.5
      vertex 6.94463 -10.3934 -2.5
      vertex 7.92992 -9.66263 -2.5
    endloop
  endfacet
  facet normal -0.146735 0.989176 0
    outer loop
      vertex -1.22521 12.4398 -2.5
      vertex -2.43863 12.2598 2.5
      vertex -1.22521 12.4398 2.5
    endloop
  endfacet
  facet normal -0.146735 0.989176 0
    outer loop
      vertex -2.43863 12.2598 2.5
      vertex -1.22521 12.4398 -2.5
      vertex -2.43863 12.2598 -2.5
    endloop
  endfacet
  facet normal -0.989176 -0.146735 0
    outer loop
      vertex -12.2598 -2.43863 -2.5
      vertex -12.4398 -1.22521 2.5
      vertex -12.4398 -1.22521 -2.5
    endloop
  endfacet
  facet normal -0.989176 -0.146735 0
    outer loop
      vertex -12.4398 -1.22521 2.5
      vertex -12.2598 -2.43863 -2.5
      vertex -12.2598 -2.43863 2.5
    endloop
  endfacet
  facet normal 0.33692 -0.941533 0
    outer loop
      vertex 3.62856 -11.9618 -2.5
      vertex 4.78354 -11.5485 2.5
      vertex 3.62856 -11.9618 2.5
    endloop
  endfacet
  facet normal 0.33692 -0.941533 0
    outer loop
      vertex 4.78354 -11.5485 2.5
      vertex 3.62856 -11.9618 -2.5
      vertex 4.78354 -11.5485 -2.5
    endloop
  endfacet
  facet normal 0.242933 -0.970043 0
    outer loop
      vertex 2.43863 -12.2598 -2.5
      vertex 3.62856 -11.9618 2.5
      vertex 2.43863 -12.2598 2.5
    endloop
  endfacet
  facet normal 0.242933 -0.970043 0
    outer loop
      vertex 3.62856 -11.9618 2.5
      vertex 2.43863 -12.2598 -2.5
      vertex 3.62856 -11.9618 -2.5
    endloop
  endfacet
  facet normal -0.903983 -0.427568 0
    outer loop
      vertex -11.024 -5.89246 -2.5
      vertex -11.5485 -4.78354 2.5
      vertex -11.5485 -4.78354 -2.5
    endloop
  endfacet
  facet normal -0.903983 -0.427568 0
    outer loop
      vertex -11.5485 -4.78354 2.5
      vertex -11.024 -5.89246 -2.5
      vertex -11.024 -5.89246 2.5
    endloop
  endfacet
  facet normal -0.740946 -0.671564 0
    outer loop
      vertex -8.83883 -8.83883 -2.5
      vertex -9.66263 -7.92992 2.5
      vertex -9.66263 -7.92992 -2.5
    endloop
  endfacet
  facet normal -0.740946 -0.671564 0
    outer loop
      vertex -9.66263 -7.92992 2.5
      vertex -8.83883 -8.83883 -2.5
      vertex -8.83883 -8.83883 2.5
    endloop
  endfacet
  facet normal -0.595715 -0.803196 0
    outer loop
      vertex -7.92992 -9.66263 -2.5
      vertex -6.94463 -10.3934 2.5
      vertex -7.92992 -9.66263 2.5
    endloop
  endfacet
  facet normal -0.595715 -0.803196 -0
    outer loop
      vertex -6.94463 -10.3934 2.5
      vertex -7.92992 -9.66263 -2.5
      vertex -6.94463 -10.3934 -2.5
    endloop
  endfacet
  facet normal -0.0490752 -0.998795 0
    outer loop
      vertex -1.22521 -12.4398 -2.5
      vertex 0 -12.5 2.5
      vertex -1.22521 -12.4398 2.5
    endloop
  endfacet
  facet normal -0.0490752 -0.998795 -0
    outer loop
      vertex 0 -12.5 2.5
      vertex -1.22521 -12.4398 -2.5
      vertex 0 -12.5 -2.5
    endloop
  endfacet
  facet normal 0 0 1
    outer loop
      vertex 9.66263 -7.92992 2.5
      vertex 3.69448 -1.78766 2.5
      vertex 8.83883 -8.83883 2.5
    endloop
  endfacet
  facet normal -0 0 1
    outer loop
      vertex 3.32277 -1.98634 2.5
      vertex 8.83883 -8.83883 2.5
      vertex 3.69448 -1.78766 2.5
    endloop
  endfacet
  facet normal 0 0 1
    outer loop
      vertex 8.83883 -8.83883 2.5
      vertex 3.32277 -1.98634 2.5
      vertex 7.92992 -9.66263 2.5
    endloop
  endfacet
  facet normal 0 0 1
    outer loop
      vertex 7.92992 -9.66263 2.5
      vertex 3.32277 -1.98634 2.5
      vertex 6.94463 -10.3934 2.5
    endloop
  endfacet
  facet normal -0 0 1
    outer loop
      vertex 2.91944 -2.10869 2.5
      vertex 6.94463 -10.3934 2.5
      vertex 3.32277 -1.98634 2.5
    endloop
  endfacet
  facet normal 0 0 1
    outer loop
      vertex 6.94463 -10.3934 2.5
      vertex 2.91944 -2.10869 2.5
      vertex 5.89246 -11.024 2.5
    endloop
  endfacet
  facet normal 0 0 1
    outer loop
      vertex 5.89246 -11.024 2.5
      vertex 2.91944 -2.10869 2.5
      vertex 4.78354 -11.5485 2.5
    endloop
  endfacet
  facet normal -0 0 1
    outer loop
      vertex 2.5 -2.15 2.5
      vertex 4.78354 -11.5485 2.5
      vertex 2.91944 -2.10869 2.5
    endloop
  endfacet
  facet normal 0 0 1
    outer loop
      vertex 4.78354 -11.5485 2.5
      vertex 2.5 -2.15 2.5
      vertex 3.62856 -11.9618 2.5
    endloop
  endfacet
  facet normal 0 0 1
    outer loop
      vertex 2.5 -2.15 2.5
      vertex 2.43863 -12.2598 2.5
      vertex 3.62856 -11.9618 2.5
    endloop
  endfacet
  facet normal 0 0 1
    outer loop
      vertex 2.08055 -2.10869 2.5
      vertex 2.43863 -12.2598 2.5
      vertex 2.5 -2.15 2.5
    endloop
  endfacet
  facet normal 0 0 1
    outer loop
      vertex 1.22521 -12.4398 2.5
      vertex 2.08055 -2.10869 2.5
      vertex 1.67723 -1.98634 2.5
    endloop
  endfacet
  facet normal 0 0 1
    outer loop
      vertex -2.43863 -12.2598 2.5
      vertex 1.67723 -1.98634 2.5
      vertex 1.30552 -1.78766 2.5
    endloop
  endfacet
  facet normal 0 0 1
    outer loop
      vertex 2.08055 -2.10869 2.5
      vertex 1.22521 -12.4398 2.5
      vertex 2.43863 -12.2598 2.5
    endloop
  endfacet
  facet normal 0 0 1
    outer loop
      vertex -4.78354 -11.5485 2.5
      vertex 1.30552 -1.78766 2.5
      vertex 0.97972 -1.52028 2.5
    endloop
  endfacet
  facet normal 0 0 1
    outer loop
      vertex -6.94463 -10.3934 2.5
      vertex 0.97972 -1.52028 2.5
      vertex 0.712339 -1.19448 2.5
    endloop
  endfacet
  facet normal 0 0 1
    outer loop
      vertex -9.66263 -7.92992 2.5
      vertex 0.712339 -1.19448 2.5
      vertex 0.513659 -0.822769 2.5
    endloop
  endfacet
  facet normal 0 0 1
    outer loop
      vertex -11.5485 -4.78354 2.5
      vertex 0.513659 -0.822769 2.5
      vertex 0.391312 -0.419444 2.5
    endloop
  endfacet
  facet normal 0 0 1
    outer loop
      vertex -12.2598 -2.43863 2.5
      vertex 0.391312 -0.419444 2.5
      vertex 0.349999 0 2.5
    endloop
  endfacet
  facet normal 0 0 1
    outer loop
      vertex 1.67723 -1.98634 2.5
      vertex 0 -12.5 2.5
      vertex 1.22521 -12.4398 2.5
    endloop
  endfacet
  facet normal -0 0 1
    outer loop
      vertex -5.89246 11.024 2.5
      vertex 0.97972 1.52028 2.5
      vertex -4.78354 11.5485 2.5
    endloop
  endfacet
  facet normal -0 0 1
    outer loop
      vertex -6.94463 10.3934 2.5
      vertex 0.97972 1.52028 2.5
      vertex -5.89246 11.024 2.5
    endloop
  endfacet
  facet normal 0 0 1
    outer loop
      vertex 1.67723 -1.98634 2.5
      vertex -1.22521 -12.4398 2.5
      vertex 0 -12.5 2.5
    endloop
  endfacet
  facet normal 0 0 1
    outer loop
      vertex 0.97972 1.52028 2.5
      vertex -6.94463 10.3934 2.5
      vertex 0.712339 1.19448 2.5
    endloop
  endfacet
  facet normal 0 0 1
    outer loop
      vertex 1.67723 -1.98634 2.5
      vertex -2.43863 -12.2598 2.5
      vertex -1.22521 -12.4398 2.5
    endloop
  endfacet
  facet normal -0 0 1
    outer loop
      vertex -7.92992 9.66263 2.5
      vertex 0.712339 1.19448 2.5
      vertex -6.94463 10.3934 2.5
    endloop
  endfacet
  facet normal 0 0 1
    outer loop
      vertex 1.30552 -1.78766 2.5
      vertex -3.62856 -11.9618 2.5
      vertex -2.43863 -12.2598 2.5
    endloop
  endfacet
  facet normal -0 0 1
    outer loop
      vertex -8.83883 8.83883 2.5
      vertex 0.712339 1.19448 2.5
      vertex -7.92992 9.66263 2.5
    endloop
  endfacet
  facet normal 0 0 1
    outer loop
      vertex 1.30552 -1.78766 2.5
      vertex -4.78354 -11.5485 2.5
      vertex -3.62856 -11.9618 2.5
    endloop
  endfacet
  facet normal -0 0 1
    outer loop
      vertex -9.66263 7.92992 2.5
      vertex 0.712339 1.19448 2.5
      vertex -8.83883 8.83883 2.5
    endloop
  endfacet
  facet normal 0 0 1
    outer loop
      vertex 0.97972 -1.52028 2.5
      vertex -5.89246 -11.024 2.5
      vertex -4.78354 -11.5485 2.5
    endloop
  endfacet
  facet normal 0 0 1
    outer loop
      vertex 0.712339 1.19448 2.5
      vertex -9.66263 7.92992 2.5
      vertex 0.513659 0.822769 2.5
    endloop
  endfacet
  facet normal 0 0 1
    outer loop
      vertex 0.97972 -1.52028 2.5
      vertex -6.94463 -10.3934 2.5
      vertex -5.89246 -11.024 2.5
    endloop
  endfacet
  facet normal -0 0 1
    outer loop
      vertex -10.3934 6.94463 2.5
      vertex 0.513659 0.822769 2.5
      vertex -9.66263 7.92992 2.5
    endloop
  endfacet
  facet normal 0 0 1
    outer loop
      vertex 0.712339 -1.19448 2.5
      vertex -7.92992 -9.66263 2.5
      vertex -6.94463 -10.3934 2.5
    endloop
  endfacet
  facet normal -0 0 1
    outer loop
      vertex -11.024 5.89246 2.5
      vertex 0.513659 0.822769 2.5
      vertex -10.3934 6.94463 2.5
    endloop
  endfacet
  facet normal 0 0 1
    outer loop
      vertex 0.712339 -1.19448 2.5
      vertex -8.83883 -8.83883 2.5
      vertex -7.92992 -9.66263 2.5
    endloop
  endfacet
  facet normal -0 0 1
    outer loop
      vertex -11.5485 4.78354 2.5
      vertex 0.513659 0.822769 2.5
      vertex -11.024 5.89246 2.5
    endloop
  endfacet
  facet normal 0 0 1
    outer loop
      vertex 0.712339 -1.19448 2.5
      vertex -9.66263 -7.92992 2.5
      vertex -8.83883 -8.83883 2.5
    endloop
  endfacet
  facet normal 0 0 1
    outer loop
      vertex 0.513659 0.822769 2.5
      vertex -11.5485 4.78354 2.5
      vertex 0.391312 0.419444 2.5
    endloop
  endfacet
  facet normal 0 0 1
    outer loop
      vertex 0.513659 -0.822769 2.5
      vertex -10.3934 -6.94463 2.5
      vertex -9.66263 -7.92992 2.5
    endloop
  endfacet
  facet normal -0 0 1
    outer loop
      vertex -11.9618 3.62856 2.5
      vertex 0.391312 0.419444 2.5
      vertex -11.5485 4.78354 2.5
    endloop
  endfacet
  facet normal 0 0 1
    outer loop
      vertex 0.513659 -0.822769 2.5
      vertex -11.024 -5.89246 2.5
      vertex -10.3934 -6.94463 2.5
    endloop
  endfacet
  facet normal -0 0 1
    outer loop
      vertex -12.2598 2.43863 2.5
      vertex 0.391312 0.419444 2.5
      vertex -11.9618 3.62856 2.5
    endloop
  endfacet
  facet normal 0 0 1
    outer loop
      vertex 0.513659 -0.822769 2.5
      vertex -11.5485 -4.78354 2.5
      vertex -11.024 -5.89246 2.5
    endloop
  endfacet
  facet normal 0 0 1
    outer loop
      vertex 0.391312 0.419444 2.5
      vertex -12.2598 2.43863 2.5
      vertex 0.349999 0 2.5
    endloop
  endfacet
  facet normal 0 0 1
    outer loop
      vertex 0.391312 -0.419444 2.5
      vertex -11.9618 -3.62856 2.5
      vertex -11.5485 -4.78354 2.5
    endloop
  endfacet
  facet normal -0 0 1
    outer loop
      vertex -12.4398 1.22521 2.5
      vertex 0.349999 0 2.5
      vertex -12.2598 2.43863 2.5
    endloop
  endfacet
  facet normal 0 0 1
    outer loop
      vertex 0.391312 -0.419444 2.5
      vertex -12.2598 -2.43863 2.5
      vertex -11.9618 -3.62856 2.5
    endloop
  endfacet
  facet normal 0 0 1
    outer loop
      vertex -12.5 0 2.5
      vertex 0.349999 0 2.5
      vertex -12.4398 1.22521 2.5
    endloop
  endfacet
  facet normal 0 0 1
    outer loop
      vertex 0.349999 0 2.5
      vertex -12.4398 -1.22521 2.5
      vertex -12.2598 -2.43863 2.5
    endloop
  endfacet
  facet normal 0 0 1
    outer loop
      vertex 0.349999 0 2.5
      vertex -12.5 0 2.5
      vertex -12.4398 -1.22521 2.5
    endloop
  endfacet
  facet normal -0 0 1
    outer loop
      vertex 11.4239 0.382683 2.5
      vertex 12.5 0 2.5
      vertex 12.4398 1.22521 2.5
    endloop
  endfacet
  facet normal 0 0 1
    outer loop
      vertex 10.8827 0.923879 2.5
      vertex 12.4398 1.22521 2.5
      vertex 12.2598 2.43863 2.5
    endloop
  endfacet
  facet normal 0 0 1
    outer loop
      vertex 12.5 0 2.5
      vertex 11.4239 0.382683 2.5
      vertex 11.5 0 2.5
    endloop
  endfacet
  facet normal 0 0 1
    outer loop
      vertex 10.5 1 2.5
      vertex 12.2598 2.43863 2.5
      vertex 11.9618 3.62856 2.5
    endloop
  endfacet
  facet normal 0 0 1
    outer loop
      vertex 12.5 0 2.5
      vertex 11.4239 -0.382683 2.5
      vertex 12.4398 -1.22521 2.5
    endloop
  endfacet
  facet normal 0 0 1
    outer loop
      vertex 10.1173 0.923879 2.5
      vertex 11.9618 3.62856 2.5
      vertex 11.5485 4.78354 2.5
    endloop
  endfacet
  facet normal -0 0 1
    outer loop
      vertex 11.2071 -0.707107 2.5
      vertex 12.4398 -1.22521 2.5
      vertex 11.4239 -0.382683 2.5
    endloop
  endfacet
  facet normal -0 0 1
    outer loop
      vertex 10.8827 -0.923879 2.5
      vertex 12.4398 -1.22521 2.5
      vertex 11.2071 -0.707107 2.5
    endloop
  endfacet
  facet normal 0 0 1
    outer loop
      vertex 11.4239 -0.382683 2.5
      vertex 12.5 0 2.5
      vertex 11.5 0 2.5
    endloop
  endfacet
  facet normal 0 0 1
    outer loop
      vertex 12.4398 1.22521 2.5
      vertex 11.2071 0.707107 2.5
      vertex 11.4239 0.382683 2.5
    endloop
  endfacet
  facet normal 0 0 1
    outer loop
      vertex 10.1173 0.923879 2.5
      vertex 11.5485 4.78354 2.5
      vertex 11.024 5.89246 2.5
    endloop
  endfacet
  facet normal 0 0 1
    outer loop
      vertex 12.4398 1.22521 2.5
      vertex 10.8827 0.923879 2.5
      vertex 11.2071 0.707107 2.5
    endloop
  endfacet
  facet normal 0 0 1
    outer loop
      vertex 12.2598 2.43863 2.5
      vertex 10.5 1 2.5
      vertex 10.8827 0.923879 2.5
    endloop
  endfacet
  facet normal 0 0 1
    outer loop
      vertex 4.02028 1.52028 2.5
      vertex 11.024 5.89246 2.5
      vertex 10.3934 6.94463 2.5
    endloop
  endfacet
  facet normal 0 0 1
    outer loop
      vertex 11.9618 3.62856 2.5
      vertex 10.1173 0.923879 2.5
      vertex 10.5 1 2.5
    endloop
  endfacet
  facet normal 0 0 1
    outer loop
      vertex 11.024 5.89246 2.5
      vertex 9.79289 0.707107 2.5
      vertex 10.1173 0.923879 2.5
    endloop
  endfacet
  facet normal 0 0 1
    outer loop
      vertex 4.02028 1.52028 2.5
      vertex 10.3934 6.94463 2.5
      vertex 9.66263 7.92992 2.5
    endloop
  endfacet
  facet normal 0 0 1
    outer loop
      vertex 11.024 5.89246 2.5
      vertex 4.02028 1.52028 2.5
      vertex 9.79289 0.707107 2.5
    endloop
  endfacet
  facet normal -0 -0 1
    outer loop
      vertex 4.28766 1.19448 2.5
      vertex 9.79289 0.707107 2.5
      vertex 4.02028 1.52028 2.5
    endloop
  endfacet
  facet normal 0 0 1
    outer loop
      vertex 3.69448 1.78766 2.5
      vertex 9.66263 7.92992 2.5
      vertex 8.83883 8.83883 2.5
    endloop
  endfacet
  facet normal 0 0 1
    outer loop
      vertex 12.4398 -1.22521 2.5
      vertex 10.8827 -0.923879 2.5
      vertex 12.2598 -2.43863 2.5
    endloop
  endfacet
  facet normal -0 0 1
    outer loop
      vertex 10.5 -1 2.5
      vertex 12.2598 -2.43863 2.5
      vertex 10.8827 -0.923879 2.5
    endloop
  endfacet
  facet normal 0 0 1
    outer loop
      vertex 12.2598 -2.43863 2.5
      vertex 10.5 -1 2.5
      vertex 11.9618 -3.62856 2.5
    endloop
  endfacet
  facet normal 0 0 1
    outer loop
      vertex 10.1173 -0.923879 2.5
      vertex 11.9618 -3.62856 2.5
      vertex 10.5 -1 2.5
    endloop
  endfacet
  facet normal 0 0 1
    outer loop
      vertex 11.9618 -3.62856 2.5
      vertex 10.1173 -0.923879 2.5
      vertex 11.5485 -4.78354 2.5
    endloop
  endfacet
  facet normal 0 0 1
    outer loop
      vertex 11.5485 -4.78354 2.5
      vertex 10.1173 -0.923879 2.5
      vertex 11.024 -5.89246 2.5
    endloop
  endfacet
  facet normal 0 0 1
    outer loop
      vertex 9.79289 -0.707107 2.5
      vertex 11.024 -5.89246 2.5
      vertex 10.1173 -0.923879 2.5
    endloop
  endfacet
  facet normal 0 0 1
    outer loop
      vertex 9.57612 -0.382683 2.5
      vertex 4.48634 -0.822769 2.5
      vertex 9.79289 -0.707107 2.5
    endloop
  endfacet
  facet normal 0 0 1
    outer loop
      vertex 4.48634 -0.822769 2.5
      vertex 9.57612 -0.382683 2.5
      vertex 4.60869 -0.419444 2.5
    endloop
  endfacet
  facet normal 0 0 1
    outer loop
      vertex 9.5 0 2.5
      vertex 4.60869 -0.419444 2.5
      vertex 9.57612 -0.382683 2.5
    endloop
  endfacet
  facet normal 0 0 1
    outer loop
      vertex 4.60869 -0.419444 2.5
      vertex 9.5 0 2.5
      vertex 4.65 0 2.5
    endloop
  endfacet
  facet normal 0 0 1
    outer loop
      vertex 9.79289 0.707107 2.5
      vertex 4.48634 0.822769 2.5
      vertex 9.57612 0.382683 2.5
    endloop
  endfacet
  facet normal 0 0 1
    outer loop
      vertex 4.28766 -1.19448 2.5
      vertex 9.79289 -0.707107 2.5
      vertex 4.48634 -0.822769 2.5
    endloop
  endfacet
  facet normal 0 0 1
    outer loop
      vertex 3.32277 1.98634 2.5
      vertex 8.83883 8.83883 2.5
      vertex 7.92992 9.66263 2.5
    endloop
  endfacet
  facet normal 0 0 1
    outer loop
      vertex 4.02028 -1.52028 2.5
      vertex 9.79289 -0.707107 2.5
      vertex 4.28766 -1.19448 2.5
    endloop
  endfacet
  facet normal 0 0 1
    outer loop
      vertex 3.32277 1.98634 2.5
      vertex 7.92992 9.66263 2.5
      vertex 6.94463 10.3934 2.5
    endloop
  endfacet
  facet normal 0 0 1
    outer loop
      vertex 9.79289 -0.707107 2.5
      vertex 4.02028 -1.52028 2.5
      vertex 11.024 -5.89246 2.5
    endloop
  endfacet
  facet normal 0 0 1
    outer loop
      vertex 2.91944 2.10869 2.5
      vertex 6.94463 10.3934 2.5
      vertex 5.89246 11.024 2.5
    endloop
  endfacet
  facet normal 0 0 1
    outer loop
      vertex 11.024 -5.89246 2.5
      vertex 4.02028 -1.52028 2.5
      vertex 10.3934 -6.94463 2.5
    endloop
  endfacet
  facet normal 0 0 1
    outer loop
      vertex 2.91944 2.10869 2.5
      vertex 5.89246 11.024 2.5
      vertex 4.78354 11.5485 2.5
    endloop
  endfacet
  facet normal 0 0 1
    outer loop
      vertex 10.3934 -6.94463 2.5
      vertex 4.02028 -1.52028 2.5
      vertex 9.66263 -7.92992 2.5
    endloop
  endfacet
  facet normal -0 0 1
    outer loop
      vertex 3.69448 -1.78766 2.5
      vertex 9.66263 -7.92992 2.5
      vertex 4.02028 -1.52028 2.5
    endloop
  endfacet
  facet normal 0 0 1
    outer loop
      vertex 9.5 0 2.5
      vertex 4.60869 0.419444 2.5
      vertex 4.65 0 2.5
    endloop
  endfacet
  facet normal 0 0 1
    outer loop
      vertex 9.57612 0.382683 2.5
      vertex 4.60869 0.419444 2.5
      vertex 9.5 0 2.5
    endloop
  endfacet
  facet normal -0 -0 1
    outer loop
      vertex 4.60869 0.419444 2.5
      vertex 9.57612 0.382683 2.5
      vertex 4.48634 0.822769 2.5
    endloop
  endfacet
  facet normal -0 -0 1
    outer loop
      vertex 4.48634 0.822769 2.5
      vertex 9.79289 0.707107 2.5
      vertex 4.28766 1.19448 2.5
    endloop
  endfacet
  facet normal 0 0 1
    outer loop
      vertex 9.66263 7.92992 2.5
      vertex 3.69448 1.78766 2.5
      vertex 4.02028 1.52028 2.5
    endloop
  endfacet
  facet normal 0 0 1
    outer loop
      vertex 2.5 2.15 2.5
      vertex 4.78354 11.5485 2.5
      vertex 3.62856 11.9618 2.5
    endloop
  endfacet
  facet normal 0 0 1
    outer loop
      vertex 8.83883 8.83883 2.5
      vertex 3.32277 1.98634 2.5
      vertex 3.69448 1.78766 2.5
    endloop
  endfacet
  facet normal 0 0 1
    outer loop
      vertex 6.94463 10.3934 2.5
      vertex 2.91944 2.10869 2.5
      vertex 3.32277 1.98634 2.5
    endloop
  endfacet
  facet normal 0 0 1
    outer loop
      vertex 4.78354 11.5485 2.5
      vertex 2.5 2.15 2.5
      vertex 2.91944 2.10869 2.5
    endloop
  endfacet
  facet normal 0 0 1
    outer loop
      vertex 2.43863 12.2598 2.5
      vertex 2.5 2.15 2.5
      vertex 3.62856 11.9618 2.5
    endloop
  endfacet
  facet normal 0 0 1
    outer loop
      vertex 2.43863 12.2598 2.5
      vertex 2.08055 2.10869 2.5
      vertex 2.5 2.15 2.5
    endloop
  endfacet
  facet normal 0 0 1
    outer loop
      vertex 1.22521 12.4398 2.5
      vertex 2.08055 2.10869 2.5
      vertex 2.43863 12.2598 2.5
    endloop
  endfacet
  facet normal 0 0 1
    outer loop
      vertex 2.08055 2.10869 2.5
      vertex 1.22521 12.4398 2.5
      vertex 1.67723 1.98634 2.5
    endloop
  endfacet
  facet normal 0 0 1
    outer loop
      vertex 0 12.5 2.5
      vertex 1.67723 1.98634 2.5
      vertex 1.22521 12.4398 2.5
    endloop
  endfacet
  facet normal -0 0 1
    outer loop
      vertex -1.22521 12.4398 2.5
      vertex 1.67723 1.98634 2.5
      vertex 0 12.5 2.5
    endloop
  endfacet
  facet normal -0 0 1
    outer loop
      vertex -2.43863 12.2598 2.5
      vertex 1.67723 1.98634 2.5
      vertex -1.22521 12.4398 2.5
    endloop
  endfacet
  facet normal 0 0 1
    outer loop
      vertex 1.67723 1.98634 2.5
      vertex -2.43863 12.2598 2.5
      vertex 1.30552 1.78766 2.5
    endloop
  endfacet
  facet normal -0 0 1
    outer loop
      vertex -3.62856 11.9618 2.5
      vertex 1.30552 1.78766 2.5
      vertex -2.43863 12.2598 2.5
    endloop
  endfacet
  facet normal -0 0 1
    outer loop
      vertex -4.78354 11.5485 2.5
      vertex 1.30552 1.78766 2.5
      vertex -3.62856 11.9618 2.5
    endloop
  endfacet
  facet normal 0 0 1
    outer loop
      vertex 1.30552 1.78766 2.5
      vertex -4.78354 11.5485 2.5
      vertex 0.97972 1.52028 2.5
    endloop
  endfacet
  facet normal -0.998795 0.0490752 0
    outer loop
      vertex -12.5 0 -2.5
      vertex -12.4398 1.22521 2.5
      vertex -12.4398 1.22521 -2.5
    endloop
  endfacet
  facet normal -0.998795 0.0490752 0
    outer loop
      vertex -12.4398 1.22521 2.5
      vertex -12.5 0 -2.5
      vertex -12.5 0 2.5
    endloop
  endfacet
  facet normal 0.671564 -0.740946 0
    outer loop
      vertex 7.92992 -9.66263 -2.5
      vertex 8.83883 -8.83883 2.5
      vertex 7.92992 -9.66263 2.5
    endloop
  endfacet
  facet normal 0.671564 -0.740946 0
    outer loop
      vertex 8.83883 -8.83883 2.5
      vertex 7.92992 -9.66263 -2.5
      vertex 8.83883 -8.83883 -2.5
    endloop
  endfacet
  facet normal 0.471391 -0.881924 0
    outer loop
      vertex 1.30552 1.78766 -2.5
      vertex 1.67723 1.98634 2.5
      vertex 1.30552 1.78766 2.5
    endloop
  endfacet
  facet normal 0.471391 -0.881924 0
    outer loop
      vertex 1.67723 1.98634 2.5
      vertex 1.30552 1.78766 -2.5
      vertex 1.67723 1.98634 -2.5
    endloop
  endfacet
  facet normal -0.956939 -0.290291 0
    outer loop
      vertex 4.60869 0.419444 -2.5
      vertex 4.48634 0.822769 2.5
      vertex 4.48634 0.822769 -2.5
    endloop
  endfacet
  facet normal -0.956939 -0.290291 0
    outer loop
      vertex 4.48634 0.822769 2.5
      vertex 4.60869 0.419444 -2.5
      vertex 4.60869 0.419444 2.5
    endloop
  endfacet
  facet normal -0.995185 -0.0980133 0
    outer loop
      vertex 4.65 0 -2.5
      vertex 4.60869 0.419444 2.5
      vertex 4.60869 0.419444 -2.5
    endloop
  endfacet
  facet normal -0.995185 -0.0980133 0
    outer loop
      vertex 4.60869 0.419444 2.5
      vertex 4.65 0 -2.5
      vertex 4.65 0 2.5
    endloop
  endfacet
  facet normal -0.881925 -0.47139 0
    outer loop
      vertex 4.48634 0.822769 -2.5
      vertex 4.28766 1.19448 2.5
      vertex 4.28766 1.19448 -2.5
    endloop
  endfacet
  facet normal -0.881925 -0.47139 0
    outer loop
      vertex 4.28766 1.19448 2.5
      vertex 4.48634 0.822769 -2.5
      vertex 4.48634 0.822769 2.5
    endloop
  endfacet
  facet normal 0.956941 0.290284 0
    outer loop
      vertex 0.513659 -0.822769 2.5
      vertex 0.391312 -0.419444 -2.5
      vertex 0.391312 -0.419444 2.5
    endloop
  endfacet
  facet normal 0.956941 0.290284 0
    outer loop
      vertex 0.391312 -0.419444 -2.5
      vertex 0.513659 -0.822769 2.5
      vertex 0.513659 -0.822769 -2.5
    endloop
  endfacet
  facet normal -0.471391 0.881924 0
    outer loop
      vertex 3.69448 -1.78766 -2.5
      vertex 3.32277 -1.98634 2.5
      vertex 3.69448 -1.78766 2.5
    endloop
  endfacet
  facet normal -0.471391 0.881924 0
    outer loop
      vertex 3.32277 -1.98634 2.5
      vertex 3.69448 -1.78766 -2.5
      vertex 3.32277 -1.98634 -2.5
    endloop
  endfacet
  facet normal 0.881925 -0.47139 0
    outer loop
      vertex 0.513659 0.822769 2.5
      vertex 0.712339 1.19448 -2.5
      vertex 0.712339 1.19448 2.5
    endloop
  endfacet
  facet normal 0.881925 -0.47139 0
    outer loop
      vertex 0.712339 1.19448 -2.5
      vertex 0.513659 0.822769 2.5
      vertex 0.513659 0.822769 -2.5
    endloop
  endfacet
  facet normal -0.773007 -0.634397 0
    outer loop
      vertex 4.28766 1.19448 -2.5
      vertex 4.02028 1.52028 2.5
      vertex 4.02028 1.52028 -2.5
    endloop
  endfacet
  facet normal -0.773007 -0.634397 0
    outer loop
      vertex 4.02028 1.52028 2.5
      vertex 4.28766 1.19448 -2.5
      vertex 4.28766 1.19448 2.5
    endloop
  endfacet
  facet normal -0.956939 0.290291 0
    outer loop
      vertex 4.48634 -0.822769 -2.5
      vertex 4.60869 -0.419444 2.5
      vertex 4.60869 -0.419444 -2.5
    endloop
  endfacet
  facet normal -0.956939 0.290291 0
    outer loop
      vertex 4.60869 -0.419444 2.5
      vertex 4.48634 -0.822769 -2.5
      vertex 4.48634 -0.822769 2.5
    endloop
  endfacet
  facet normal 0.881925 0.47139 0
    outer loop
      vertex 0.712339 -1.19448 2.5
      vertex 0.513659 -0.822769 -2.5
      vertex 0.513659 -0.822769 2.5
    endloop
  endfacet
  facet normal 0.881925 0.47139 0
    outer loop
      vertex 0.513659 -0.822769 -2.5
      vertex 0.712339 -1.19448 2.5
      vertex 0.712339 -1.19448 -2.5
    endloop
  endfacet
  facet normal -0.995185 0.0980133 0
    outer loop
      vertex 4.60869 -0.419444 -2.5
      vertex 4.65 0 2.5
      vertex 4.65 0 -2.5
    endloop
  endfacet
  facet normal -0.995185 0.0980133 0
    outer loop
      vertex 4.65 0 2.5
      vertex 4.60869 -0.419444 -2.5
      vertex 4.60869 -0.419444 2.5
    endloop
  endfacet
  facet normal -0.471391 -0.881924 0
    outer loop
      vertex 3.32277 1.98634 -2.5
      vertex 3.69448 1.78766 2.5
      vertex 3.32277 1.98634 2.5
    endloop
  endfacet
  facet normal -0.471391 -0.881924 -0
    outer loop
      vertex 3.69448 1.78766 2.5
      vertex 3.32277 1.98634 -2.5
      vertex 3.69448 1.78766 -2.5
    endloop
  endfacet
  facet normal -0.0980142 -0.995185 0
    outer loop
      vertex 2.5 2.15 -2.5
      vertex 2.91944 2.10869 2.5
      vertex 2.5 2.15 2.5
    endloop
  endfacet
  facet normal -0.0980142 -0.995185 -0
    outer loop
      vertex 2.91944 2.10869 2.5
      vertex 2.5 2.15 -2.5
      vertex 2.91944 2.10869 -2.5
    endloop
  endfacet
  facet normal -0.634397 -0.773007 0
    outer loop
      vertex 3.69448 1.78766 -2.5
      vertex 4.02028 1.52028 2.5
      vertex 3.69448 1.78766 2.5
    endloop
  endfacet
  facet normal -0.634397 -0.773007 -0
    outer loop
      vertex 4.02028 1.52028 2.5
      vertex 3.69448 1.78766 -2.5
      vertex 4.02028 1.52028 -2.5
    endloop
  endfacet
  facet normal -0.881925 0.47139 0
    outer loop
      vertex 4.28766 -1.19448 -2.5
      vertex 4.48634 -0.822769 2.5
      vertex 4.48634 -0.822769 -2.5
    endloop
  endfacet
  facet normal -0.881925 0.47139 0
    outer loop
      vertex 4.48634 -0.822769 2.5
      vertex 4.28766 -1.19448 -2.5
      vertex 4.28766 -1.19448 2.5
    endloop
  endfacet
  facet normal -0.0980142 0.995185 0
    outer loop
      vertex 2.91944 -2.10869 -2.5
      vertex 2.5 -2.15 2.5
      vertex 2.91944 -2.10869 2.5
    endloop
  endfacet
  facet normal -0.0980142 0.995185 0
    outer loop
      vertex 2.5 -2.15 2.5
      vertex 2.91944 -2.10869 -2.5
      vertex 2.5 -2.15 -2.5
    endloop
  endfacet
  facet normal 0.471391 0.881924 -0
    outer loop
      vertex 1.67723 -1.98634 -2.5
      vertex 1.30552 -1.78766 2.5
      vertex 1.67723 -1.98634 2.5
    endloop
  endfacet
  facet normal 0.471391 0.881924 0
    outer loop
      vertex 1.30552 -1.78766 2.5
      vertex 1.67723 -1.98634 -2.5
      vertex 1.30552 -1.78766 -2.5
    endloop
  endfacet
  facet normal 0.290294 0.956938 -0
    outer loop
      vertex 2.08055 -2.10869 -2.5
      vertex 1.67723 -1.98634 2.5
      vertex 2.08055 -2.10869 2.5
    endloop
  endfacet
  facet normal 0.290294 0.956938 0
    outer loop
      vertex 1.67723 -1.98634 2.5
      vertex 2.08055 -2.10869 -2.5
      vertex 1.67723 -1.98634 -2.5
    endloop
  endfacet
  facet normal -0.773007 0.634397 0
    outer loop
      vertex 4.02028 -1.52028 -2.5
      vertex 4.28766 -1.19448 2.5
      vertex 4.28766 -1.19448 -2.5
    endloop
  endfacet
  facet normal -0.773007 0.634397 0
    outer loop
      vertex 4.28766 -1.19448 2.5
      vertex 4.02028 -1.52028 -2.5
      vertex 4.02028 -1.52028 2.5
    endloop
  endfacet
  facet normal 0.995184 -0.0980204 0
    outer loop
      vertex 0.349999 0 2.5
      vertex 0.391312 0.419444 -2.5
      vertex 0.391312 0.419444 2.5
    endloop
  endfacet
  facet normal 0.995184 -0.0980204 0
    outer loop
      vertex 0.391312 0.419444 -2.5
      vertex 0.349999 0 2.5
      vertex 0.349999 0 -2.5
    endloop
  endfacet
  facet normal -0.634397 0.773007 0
    outer loop
      vertex 4.02028 -1.52028 -2.5
      vertex 3.69448 -1.78766 2.5
      vertex 4.02028 -1.52028 2.5
    endloop
  endfacet
  facet normal -0.634397 0.773007 0
    outer loop
      vertex 3.69448 -1.78766 2.5
      vertex 4.02028 -1.52028 -2.5
      vertex 3.69448 -1.78766 -2.5
    endloop
  endfacet
  facet normal 0.773006 -0.634399 0
    outer loop
      vertex 0.712339 1.19448 2.5
      vertex 0.97972 1.52028 -2.5
      vertex 0.97972 1.52028 2.5
    endloop
  endfacet
  facet normal 0.773006 -0.634399 0
    outer loop
      vertex 0.97972 1.52028 -2.5
      vertex 0.712339 1.19448 2.5
      vertex 0.712339 1.19448 -2.5
    endloop
  endfacet
  facet normal -0.290287 -0.95694 0
    outer loop
      vertex 2.91944 2.10869 -2.5
      vertex 3.32277 1.98634 2.5
      vertex 2.91944 2.10869 2.5
    endloop
  endfacet
  facet normal -0.290287 -0.95694 -0
    outer loop
      vertex 3.32277 1.98634 2.5
      vertex 2.91944 2.10869 -2.5
      vertex 3.32277 1.98634 -2.5
    endloop
  endfacet
  facet normal 0.634397 -0.773007 0
    outer loop
      vertex 0.97972 1.52028 -2.5
      vertex 1.30552 1.78766 2.5
      vertex 0.97972 1.52028 2.5
    endloop
  endfacet
  facet normal 0.634397 -0.773007 0
    outer loop
      vertex 1.30552 1.78766 2.5
      vertex 0.97972 1.52028 -2.5
      vertex 1.30552 1.78766 -2.5
    endloop
  endfacet
  facet normal 0.0980119 -0.995185 0
    outer loop
      vertex 2.08055 2.10869 -2.5
      vertex 2.5 2.15 2.5
      vertex 2.08055 2.10869 2.5
    endloop
  endfacet
  facet normal 0.0980119 -0.995185 0
    outer loop
      vertex 2.5 2.15 2.5
      vertex 2.08055 2.10869 -2.5
      vertex 2.5 2.15 -2.5
    endloop
  endfacet
  facet normal 0.290294 -0.956938 0
    outer loop
      vertex 1.67723 1.98634 -2.5
      vertex 2.08055 2.10869 2.5
      vertex 1.67723 1.98634 2.5
    endloop
  endfacet
  facet normal 0.290294 -0.956938 0
    outer loop
      vertex 2.08055 2.10869 2.5
      vertex 1.67723 1.98634 -2.5
      vertex 2.08055 2.10869 -2.5
    endloop
  endfacet
  facet normal 0.773006 0.634399 0
    outer loop
      vertex 0.97972 -1.52028 2.5
      vertex 0.712339 -1.19448 -2.5
      vertex 0.712339 -1.19448 2.5
    endloop
  endfacet
  facet normal 0.773006 0.634399 0
    outer loop
      vertex 0.712339 -1.19448 -2.5
      vertex 0.97972 -1.52028 2.5
      vertex 0.97972 -1.52028 -2.5
    endloop
  endfacet
  facet normal 0.0980119 0.995185 -0
    outer loop
      vertex 2.5 -2.15 -2.5
      vertex 2.08055 -2.10869 2.5
      vertex 2.5 -2.15 2.5
    endloop
  endfacet
  facet normal 0.0980119 0.995185 0
    outer loop
      vertex 2.08055 -2.10869 2.5
      vertex 2.5 -2.15 -2.5
      vertex 2.08055 -2.10869 -2.5
    endloop
  endfacet
  facet normal 0.995184 0.0980204 0
    outer loop
      vertex 0.391312 -0.419444 2.5
      vertex 0.349999 0 -2.5
      vertex 0.349999 0 2.5
    endloop
  endfacet
  facet normal 0.995184 0.0980204 0
    outer loop
      vertex 0.349999 0 -2.5
      vertex 0.391312 -0.419444 2.5
      vertex 0.391312 -0.419444 -2.5
    endloop
  endfacet
  facet normal 0.634397 0.773007 -0
    outer loop
      vertex 1.30552 -1.78766 -2.5
      vertex 0.97972 -1.52028 2.5
      vertex 1.30552 -1.78766 2.5
    endloop
  endfacet
  facet normal 0.634397 0.773007 0
    outer loop
      vertex 0.97972 -1.52028 2.5
      vertex 1.30552 -1.78766 -2.5
      vertex 0.97972 -1.52028 -2.5
    endloop
  endfacet
  facet normal -0.290287 0.95694 0
    outer loop
      vertex 3.32277 -1.98634 -2.5
      vertex 2.91944 -2.10869 2.5
      vertex 3.32277 -1.98634 2.5
    endloop
  endfacet
  facet normal -0.290287 0.95694 0
    outer loop
      vertex 2.91944 -2.10869 2.5
      vertex 3.32277 -1.98634 -2.5
      vertex 2.91944 -2.10869 -2.5
    endloop
  endfacet
  facet normal 0.956941 -0.290284 0
    outer loop
      vertex 0.391312 0.419444 2.5
      vertex 0.513659 0.822769 -2.5
      vertex 0.513659 0.822769 2.5
    endloop
  endfacet
  facet normal 0.956941 -0.290284 0
    outer loop
      vertex 0.513659 0.822769 -2.5
      vertex 0.391312 0.419444 2.5
      vertex 0.391312 0.419444 -2.5
    endloop
  endfacet
  facet normal 0.195084 0.980787 -0
    outer loop
      vertex 10.5 -1 -2.5
      vertex 10.1173 -0.923879 2.5
      vertex 10.5 -1 2.5
    endloop
  endfacet
  facet normal 0.195084 0.980787 0
    outer loop
      vertex 10.1173 -0.923879 2.5
      vertex 10.5 -1 -2.5
      vertex 10.1173 -0.923879 -2.5
    endloop
  endfacet
  facet normal -0.831438 0.555618 0
    outer loop
      vertex 11.2071 -0.707107 -2.5
      vertex 11.4239 -0.382683 2.5
      vertex 11.4239 -0.382683 -2.5
    endloop
  endfacet
  facet normal -0.831438 0.555618 0
    outer loop
      vertex 11.4239 -0.382683 2.5
      vertex 11.2071 -0.707107 -2.5
      vertex 11.2071 -0.707107 2.5
    endloop
  endfacet
  facet normal -0.831438 -0.555618 0
    outer loop
      vertex 11.4239 0.382683 -2.5
      vertex 11.2071 0.707107 2.5
      vertex 11.2071 0.707107 -2.5
    endloop
  endfacet
  facet normal -0.831438 -0.555618 0
    outer loop
      vertex 11.2071 0.707107 2.5
      vertex 11.4239 0.382683 -2.5
      vertex 11.4239 0.382683 2.5
    endloop
  endfacet
  facet normal -0.980795 -0.19504 0
    outer loop
      vertex 11.5 0 -2.5
      vertex 11.4239 0.382683 2.5
      vertex 11.4239 0.382683 -2.5
    endloop
  endfacet
  facet normal -0.980795 -0.19504 0
    outer loop
      vertex 11.4239 0.382683 2.5
      vertex 11.5 0 -2.5
      vertex 11.5 0 2.5
    endloop
  endfacet
  facet normal -0.555597 -0.831452 0
    outer loop
      vertex 10.8827 0.923879 -2.5
      vertex 11.2071 0.707107 2.5
      vertex 10.8827 0.923879 2.5
    endloop
  endfacet
  facet normal -0.555597 -0.831452 -0
    outer loop
      vertex 11.2071 0.707107 2.5
      vertex 10.8827 0.923879 -2.5
      vertex 11.2071 0.707107 -2.5
    endloop
  endfacet
  facet normal 0.980785 0.195089 0
    outer loop
      vertex 9.57612 -0.382683 2.5
      vertex 9.5 0 -2.5
      vertex 9.5 0 2.5
    endloop
  endfacet
  facet normal 0.980785 0.195089 0
    outer loop
      vertex 9.5 0 -2.5
      vertex 9.57612 -0.382683 2.5
      vertex 9.57612 -0.382683 -2.5
    endloop
  endfacet
  facet normal -0.555597 0.831452 0
    outer loop
      vertex 11.2071 -0.707107 -2.5
      vertex 10.8827 -0.923879 2.5
      vertex 11.2071 -0.707107 2.5
    endloop
  endfacet
  facet normal -0.555597 0.831452 0
    outer loop
      vertex 10.8827 -0.923879 2.5
      vertex 11.2071 -0.707107 -2.5
      vertex 10.8827 -0.923879 -2.5
    endloop
  endfacet
  facet normal 0.831473 -0.555565 0
    outer loop
      vertex 9.57612 0.382683 2.5
      vertex 9.79289 0.707107 -2.5
      vertex 9.79289 0.707107 2.5
    endloop
  endfacet
  facet normal 0.831473 -0.555565 0
    outer loop
      vertex 9.79289 0.707107 -2.5
      vertex 9.57612 0.382683 2.5
      vertex 9.57612 0.382683 -2.5
    endloop
  endfacet
  facet normal -0.195084 0.980787 0
    outer loop
      vertex 10.8827 -0.923879 -2.5
      vertex 10.5 -1 2.5
      vertex 10.8827 -0.923879 2.5
    endloop
  endfacet
  facet normal -0.195084 0.980787 0
    outer loop
      vertex 10.5 -1 2.5
      vertex 10.8827 -0.923879 -2.5
      vertex 10.5 -1 -2.5
    endloop
  endfacet
  facet normal 0.195084 -0.980787 0
    outer loop
      vertex 10.1173 0.923879 -2.5
      vertex 10.5 1 2.5
      vertex 10.1173 0.923879 2.5
    endloop
  endfacet
  facet normal 0.195084 -0.980787 0
    outer loop
      vertex 10.5 1 2.5
      vertex 10.1173 0.923879 -2.5
      vertex 10.5 1 -2.5
    endloop
  endfacet
  facet normal 0.555585 -0.83146 0
    outer loop
      vertex 9.79289 0.707107 -2.5
      vertex 10.1173 0.923879 2.5
      vertex 9.79289 0.707107 2.5
    endloop
  endfacet
  facet normal 0.555585 -0.83146 0
    outer loop
      vertex 10.1173 0.923879 2.5
      vertex 9.79289 0.707107 -2.5
      vertex 10.1173 0.923879 -2.5
    endloop
  endfacet
  facet normal -0.980795 0.19504 0
    outer loop
      vertex 11.4239 -0.382683 -2.5
      vertex 11.5 0 2.5
      vertex 11.5 0 -2.5
    endloop
  endfacet
  facet normal -0.980795 0.19504 0
    outer loop
      vertex 11.5 0 2.5
      vertex 11.4239 -0.382683 -2.5
      vertex 11.4239 -0.382683 2.5
    endloop
  endfacet
  facet normal 0.980785 -0.195089 0
    outer loop
      vertex 9.5 0 2.5
      vertex 9.57612 0.382683 -2.5
      vertex 9.57612 0.382683 2.5
    endloop
  endfacet
  facet normal 0.980785 -0.195089 0
    outer loop
      vertex 9.57612 0.382683 -2.5
      vertex 9.5 0 2.5
      vertex 9.5 0 -2.5
    endloop
  endfacet
  facet normal 0.831473 0.555565 0
    outer loop
      vertex 9.79289 -0.707107 2.5
      vertex 9.57612 -0.382683 -2.5
      vertex 9.57612 -0.382683 2.5
    endloop
  endfacet
  facet normal 0.831473 0.555565 0
    outer loop
      vertex 9.57612 -0.382683 -2.5
      vertex 9.79289 -0.707107 2.5
      vertex 9.79289 -0.707107 -2.5
    endloop
  endfacet
  facet normal -0.195084 -0.980787 0
    outer loop
      vertex 10.5 1 -2.5
      vertex 10.8827 0.923879 2.5
      vertex 10.5 1 2.5
    endloop
  endfacet
  facet normal -0.195084 -0.980787 -0
    outer loop
      vertex 10.8827 0.923879 2.5
      vertex 10.5 1 -2.5
      vertex 10.8827 0.923879 -2.5
    endloop
  endfacet
  facet normal 0.555585 0.83146 -0
    outer loop
      vertex 10.1173 -0.923879 -2.5
      vertex 9.79289 -0.707107 2.5
      vertex 10.1173 -0.923879 2.5
    endloop
  endfacet
  facet normal 0.555585 0.83146 0
    outer loop
      vertex 9.79289 -0.707107 2.5
      vertex 10.1173 -0.923879 -2.5
      vertex 9.79289 -0.707107 -2.5
    endloop
  endfacet
endsolid OpenSCAD_Model
