solid OpenSCAD_Model
  facet normal -0.831498 -0.555528 0
    outer loop
      vertex -13.5218 -9.38771 -1
      vertex -13.8686 -8.86863 1
      vertex -13.8686 -8.86863 -1
    endloop
  endfacet
  facet normal -0.831498 -0.555528 0
    outer loop
      vertex -13.8686 -8.86863 1
      vertex -13.5218 -9.38771 -1
      vertex -13.5218 -9.38771 1
    endloop
  endfacet
  facet normal -0.980783 -0.195103 0
    outer loop
      vertex -13.4 -10 -1
      vertex -13.5218 -9.38771 1
      vertex -13.5218 -9.38771 -1
    endloop
  endfacet
  facet normal -0.980783 -0.195103 0
    outer loop
      vertex -13.5218 -9.38771 1
      vertex -13.4 -10 -1
      vertex -13.4 -10 1
    endloop
  endfacet
  facet normal -0.555557 -0.831478 0
    outer loop
      vertex -14.3877 -8.52179 -1
      vertex -13.8686 -8.86863 1
      vertex -14.3877 -8.52179 1
    endloop
  endfacet
  facet normal -0.555557 -0.831478 -0
    outer loop
      vertex -13.8686 -8.86863 1
      vertex -14.3877 -8.52179 -1
      vertex -13.8686 -8.86863 -1
    endloop
  endfacet
  facet normal -0.195084 -0.980787 0
    outer loop
      vertex -15 -8.4 -1
      vertex -14.3877 -8.52179 1
      vertex -15 -8.4 1
    endloop
  endfacet
  facet normal -0.195084 -0.980787 -0
    outer loop
      vertex -14.3877 -8.52179 1
      vertex -15 -8.4 -1
      vertex -14.3877 -8.52179 -1
    endloop
  endfacet
  facet normal -0.980783 0.1951 0
    outer loop
      vertex -13.5218 -10.6123 -1
      vertex -13.4 -10 1
      vertex -13.4 -10 -1
    endloop
  endfacet
  facet normal -0.980783 0.1951 0
    outer loop
      vertex -13.4 -10 1
      vertex -13.5218 -10.6123 -1
      vertex -13.5218 -10.6123 1
    endloop
  endfacet
  facet normal -0.555513 0.831508 0
    outer loop
      vertex -13.8686 -11.1314 -1
      vertex -14.3877 -11.4782 1
      vertex -13.8686 -11.1314 1
    endloop
  endfacet
  facet normal -0.555513 0.831508 0
    outer loop
      vertex -14.3877 -11.4782 1
      vertex -13.8686 -11.1314 -1
      vertex -14.3877 -11.4782 -1
    endloop
  endfacet
  facet normal 0.555557 -0.831478 0
    outer loop
      vertex -16.1314 -8.86863 -1
      vertex -15.6123 -8.52179 1
      vertex -16.1314 -8.86863 1
    endloop
  endfacet
  facet normal 0.555557 -0.831478 0
    outer loop
      vertex -15.6123 -8.52179 1
      vertex -16.1314 -8.86863 -1
      vertex -15.6123 -8.52179 -1
    endloop
  endfacet
  facet normal 0.831508 0.555513 0
    outer loop
      vertex -16.1314 -11.1314 1
      vertex -16.4782 -10.6123 -1
      vertex -16.4782 -10.6123 1
    endloop
  endfacet
  facet normal 0.831508 0.555513 0
    outer loop
      vertex -16.4782 -10.6123 -1
      vertex -16.1314 -11.1314 1
      vertex -16.1314 -11.1314 -1
    endloop
  endfacet
  facet normal 0.1951 0.980783 -0
    outer loop
      vertex -15 -11.6 -1
      vertex -15.6123 -11.4782 1
      vertex -15 -11.6 1
    endloop
  endfacet
  facet normal 0.1951 0.980783 0
    outer loop
      vertex -15.6123 -11.4782 1
      vertex -15 -11.6 -1
      vertex -15.6123 -11.4782 -1
    endloop
  endfacet
  facet normal 0.980783 -0.195103 0
    outer loop
      vertex -16.6 -10 1
      vertex -16.4782 -9.38771 -1
      vertex -16.4782 -9.38771 1
    endloop
  endfacet
  facet normal 0.980783 -0.195103 0
    outer loop
      vertex -16.4782 -9.38771 -1
      vertex -16.6 -10 1
      vertex -16.6 -10 -1
    endloop
  endfacet
  facet normal 0.831498 -0.555528 0
    outer loop
      vertex -16.4782 -9.38771 1
      vertex -16.1314 -8.86863 -1
      vertex -16.1314 -8.86863 1
    endloop
  endfacet
  facet normal 0.831498 -0.555528 0
    outer loop
      vertex -16.1314 -8.86863 -1
      vertex -16.4782 -9.38771 1
      vertex -16.4782 -9.38771 -1
    endloop
  endfacet
  facet normal -0.831508 0.555513 0
    outer loop
      vertex -13.8686 -11.1314 -1
      vertex -13.5218 -10.6123 1
      vertex -13.5218 -10.6123 -1
    endloop
  endfacet
  facet normal -0.831508 0.555513 0
    outer loop
      vertex -13.5218 -10.6123 1
      vertex -13.8686 -11.1314 -1
      vertex -13.8686 -11.1314 1
    endloop
  endfacet
  facet normal 0.195084 -0.980787 0
    outer loop
      vertex -15.6123 -8.52179 -1
      vertex -15 -8.4 1
      vertex -15.6123 -8.52179 1
    endloop
  endfacet
  facet normal 0.195084 -0.980787 0
    outer loop
      vertex -15 -8.4 1
      vertex -15.6123 -8.52179 -1
      vertex -15 -8.4 -1
    endloop
  endfacet
  facet normal -0.1951 0.980783 0
    outer loop
      vertex -14.3877 -11.4782 -1
      vertex -15 -11.6 1
      vertex -14.3877 -11.4782 1
    endloop
  endfacet
  facet normal -0.1951 0.980783 0
    outer loop
      vertex -15 -11.6 1
      vertex -14.3877 -11.4782 -1
      vertex -15 -11.6 -1
    endloop
  endfacet
  facet normal 0.980783 0.1951 0
    outer loop
      vertex -16.4782 -10.6123 1
      vertex -16.6 -10 -1
      vertex -16.6 -10 1
    endloop
  endfacet
  facet normal 0.980783 0.1951 0
    outer loop
      vertex -16.6 -10 -1
      vertex -16.4782 -10.6123 1
      vertex -16.4782 -10.6123 -1
    endloop
  endfacet
  facet normal 0.555513 0.831508 -0
    outer loop
      vertex -15.6123 -11.4782 -1
      vertex -16.1314 -11.1314 1
      vertex -15.6123 -11.4782 1
    endloop
  endfacet
  facet normal 0.555513 0.831508 0
    outer loop
      vertex -16.1314 -11.1314 1
      vertex -15.6123 -11.4782 -1
      vertex -16.1314 -11.1314 -1
    endloop
  endfacet
  facet normal -0.831508 -0.555513 0
    outer loop
      vertex -13.5218 10.6123 -1
      vertex -13.8686 11.1314 1
      vertex -13.8686 11.1314 -1
    endloop
  endfacet
  facet normal -0.831508 -0.555513 0
    outer loop
      vertex -13.8686 11.1314 1
      vertex -13.5218 10.6123 -1
      vertex -13.5218 10.6123 1
    endloop
  endfacet
  facet normal -0.980783 -0.1951 0
    outer loop
      vertex -13.4 10 -1
      vertex -13.5218 10.6123 1
      vertex -13.5218 10.6123 -1
    endloop
  endfacet
  facet normal -0.980783 -0.1951 0
    outer loop
      vertex -13.5218 10.6123 1
      vertex -13.4 10 -1
      vertex -13.4 10 1
    endloop
  endfacet
  facet normal -0.555513 -0.831508 0
    outer loop
      vertex -14.3877 11.4782 -1
      vertex -13.8686 11.1314 1
      vertex -14.3877 11.4782 1
    endloop
  endfacet
  facet normal -0.555513 -0.831508 -0
    outer loop
      vertex -13.8686 11.1314 1
      vertex -14.3877 11.4782 -1
      vertex -13.8686 11.1314 -1
    endloop
  endfacet
  facet normal -0.831498 0.555528 0
    outer loop
      vertex -13.8686 8.86863 -1
      vertex -13.5218 9.38771 1
      vertex -13.5218 9.38771 -1
    endloop
  endfacet
  facet normal -0.831498 0.555528 0
    outer loop
      vertex -13.5218 9.38771 1
      vertex -13.8686 8.86863 -1
      vertex -13.8686 8.86863 1
    endloop
  endfacet
  facet normal 0.1951 -0.980783 0
    outer loop
      vertex -15.6123 11.4782 -1
      vertex -15 11.6 1
      vertex -15.6123 11.4782 1
    endloop
  endfacet
  facet normal 0.1951 -0.980783 0
    outer loop
      vertex -15 11.6 1
      vertex -15.6123 11.4782 -1
      vertex -15 11.6 -1
    endloop
  endfacet
  facet normal 0.831508 -0.555513 0
    outer loop
      vertex -16.4782 10.6123 1
      vertex -16.1314 11.1314 -1
      vertex -16.1314 11.1314 1
    endloop
  endfacet
  facet normal 0.831508 -0.555513 0
    outer loop
      vertex -16.1314 11.1314 -1
      vertex -16.4782 10.6123 1
      vertex -16.4782 10.6123 -1
    endloop
  endfacet
  facet normal 0.980783 -0.1951 0
    outer loop
      vertex -16.6 10 1
      vertex -16.4782 10.6123 -1
      vertex -16.4782 10.6123 1
    endloop
  endfacet
  facet normal 0.980783 -0.1951 0
    outer loop
      vertex -16.4782 10.6123 -1
      vertex -16.6 10 1
      vertex -16.6 10 -1
    endloop
  endfacet
  facet normal -0.195084 0.980787 0
    outer loop
      vertex -14.3877 8.52179 -1
      vertex -15 8.4 1
      vertex -14.3877 8.52179 1
    endloop
  endfacet
  facet normal -0.195084 0.980787 0
    outer loop
      vertex -15 8.4 1
      vertex -14.3877 8.52179 -1
      vertex -15 8.4 -1
    endloop
  endfacet
  facet normal 0.195084 0.980787 -0
    outer loop
      vertex -15 8.4 -1
      vertex -15.6123 8.52179 1
      vertex -15 8.4 1
    endloop
  endfacet
  facet normal 0.195084 0.980787 0
    outer loop
      vertex -15.6123 8.52179 1
      vertex -15 8.4 -1
      vertex -15.6123 8.52179 -1
    endloop
  endfacet
  facet normal 0.980783 0.195103 0
    outer loop
      vertex -16.4782 9.38771 1
      vertex -16.6 10 -1
      vertex -16.6 10 1
    endloop
  endfacet
  facet normal 0.980783 0.195103 0
    outer loop
      vertex -16.6 10 -1
      vertex -16.4782 9.38771 1
      vertex -16.4782 9.38771 -1
    endloop
  endfacet
  facet normal -0.1951 -0.980783 0
    outer loop
      vertex -15 11.6 -1
      vertex -14.3877 11.4782 1
      vertex -15 11.6 1
    endloop
  endfacet
  facet normal -0.1951 -0.980783 -0
    outer loop
      vertex -14.3877 11.4782 1
      vertex -15 11.6 -1
      vertex -14.3877 11.4782 -1
    endloop
  endfacet
  facet normal -0.980783 0.195103 0
    outer loop
      vertex -13.5218 9.38771 -1
      vertex -13.4 10 1
      vertex -13.4 10 -1
    endloop
  endfacet
  facet normal -0.980783 0.195103 0
    outer loop
      vertex -13.4 10 1
      vertex -13.5218 9.38771 -1
      vertex -13.5218 9.38771 1
    endloop
  endfacet
  facet normal -0.555557 0.831478 0
    outer loop
      vertex -13.8686 8.86863 -1
      vertex -14.3877 8.52179 1
      vertex -13.8686 8.86863 1
    endloop
  endfacet
  facet normal -0.555557 0.831478 0
    outer loop
      vertex -14.3877 8.52179 1
      vertex -13.8686 8.86863 -1
      vertex -14.3877 8.52179 -1
    endloop
  endfacet
  facet normal 0.831498 0.555528 0
    outer loop
      vertex -16.1314 8.86863 1
      vertex -16.4782 9.38771 -1
      vertex -16.4782 9.38771 1
    endloop
  endfacet
  facet normal 0.831498 0.555528 0
    outer loop
      vertex -16.4782 9.38771 -1
      vertex -16.1314 8.86863 1
      vertex -16.1314 8.86863 -1
    endloop
  endfacet
  facet normal 0.555513 -0.831508 0
    outer loop
      vertex -16.1314 11.1314 -1
      vertex -15.6123 11.4782 1
      vertex -16.1314 11.1314 1
    endloop
  endfacet
  facet normal 0.555513 -0.831508 0
    outer loop
      vertex -15.6123 11.4782 1
      vertex -16.1314 11.1314 -1
      vertex -15.6123 11.4782 -1
    endloop
  endfacet
  facet normal 0.555557 0.831478 -0
    outer loop
      vertex -15.6123 8.52179 -1
      vertex -16.1314 8.86863 1
      vertex -15.6123 8.52179 1
    endloop
  endfacet
  facet normal 0.555557 0.831478 0
    outer loop
      vertex -16.1314 8.86863 1
      vertex -15.6123 8.52179 -1
      vertex -16.1314 8.86863 -1
    endloop
  endfacet
  facet normal 0.980783 -0.195103 0
    outer loop
      vertex 13.4 -10 1
      vertex 13.5218 -9.38771 -1
      vertex 13.5218 -9.38771 1
    endloop
  endfacet
  facet normal 0.980783 -0.195103 0
    outer loop
      vertex 13.5218 -9.38771 -1
      vertex 13.4 -10 1
      vertex 13.4 -10 -1
    endloop
  endfacet
  facet normal -0.831498 -0.555528 0
    outer loop
      vertex 16.4782 -9.38771 -1
      vertex 16.1314 -8.86863 1
      vertex 16.1314 -8.86863 -1
    endloop
  endfacet
  facet normal -0.831498 -0.555528 0
    outer loop
      vertex 16.1314 -8.86863 1
      vertex 16.4782 -9.38771 -1
      vertex 16.4782 -9.38771 1
    endloop
  endfacet
  facet normal -0.980783 -0.195103 0
    outer loop
      vertex 16.6 -10 -1
      vertex 16.4782 -9.38771 1
      vertex 16.4782 -9.38771 -1
    endloop
  endfacet
  facet normal -0.980783 -0.195103 0
    outer loop
      vertex 16.4782 -9.38771 1
      vertex 16.6 -10 -1
      vertex 16.6 -10 1
    endloop
  endfacet
  facet normal -0.555557 -0.831478 0
    outer loop
      vertex 15.6123 -8.52179 -1
      vertex 16.1314 -8.86863 1
      vertex 15.6123 -8.52179 1
    endloop
  endfacet
  facet normal -0.555557 -0.831478 -0
    outer loop
      vertex 16.1314 -8.86863 1
      vertex 15.6123 -8.52179 -1
      vertex 16.1314 -8.86863 -1
    endloop
  endfacet
  facet normal -0.831508 0.555513 0
    outer loop
      vertex 16.1314 -11.1314 -1
      vertex 16.4782 -10.6123 1
      vertex 16.4782 -10.6123 -1
    endloop
  endfacet
  facet normal -0.831508 0.555513 0
    outer loop
      vertex 16.4782 -10.6123 1
      vertex 16.1314 -11.1314 -1
      vertex 16.1314 -11.1314 1
    endloop
  endfacet
  facet normal -0.555513 0.831508 0
    outer loop
      vertex 16.1314 -11.1314 -1
      vertex 15.6123 -11.4782 1
      vertex 16.1314 -11.1314 1
    endloop
  endfacet
  facet normal -0.555513 0.831508 0
    outer loop
      vertex 15.6123 -11.4782 1
      vertex 16.1314 -11.1314 -1
      vertex 15.6123 -11.4782 -1
    endloop
  endfacet
  facet normal 0.555557 -0.831478 0
    outer loop
      vertex 13.8686 -8.86863 -1
      vertex 14.3877 -8.52179 1
      vertex 13.8686 -8.86863 1
    endloop
  endfacet
  facet normal 0.555557 -0.831478 0
    outer loop
      vertex 14.3877 -8.52179 1
      vertex 13.8686 -8.86863 -1
      vertex 14.3877 -8.52179 -1
    endloop
  endfacet
  facet normal 0.1951 0.980783 -0
    outer loop
      vertex 15 -11.6 -1
      vertex 14.3877 -11.4782 1
      vertex 15 -11.6 1
    endloop
  endfacet
  facet normal 0.1951 0.980783 0
    outer loop
      vertex 14.3877 -11.4782 1
      vertex 15 -11.6 -1
      vertex 14.3877 -11.4782 -1
    endloop
  endfacet
  facet normal 0.195084 -0.980787 0
    outer loop
      vertex 14.3877 -8.52179 -1
      vertex 15 -8.4 1
      vertex 14.3877 -8.52179 1
    endloop
  endfacet
  facet normal 0.195084 -0.980787 0
    outer loop
      vertex 15 -8.4 1
      vertex 14.3877 -8.52179 -1
      vertex 15 -8.4 -1
    endloop
  endfacet
  facet normal -0.195084 -0.980787 0
    outer loop
      vertex 15 -8.4 -1
      vertex 15.6123 -8.52179 1
      vertex 15 -8.4 1
    endloop
  endfacet
  facet normal -0.195084 -0.980787 -0
    outer loop
      vertex 15.6123 -8.52179 1
      vertex 15 -8.4 -1
      vertex 15.6123 -8.52179 -1
    endloop
  endfacet
  facet normal -0.980783 0.1951 0
    outer loop
      vertex 16.4782 -10.6123 -1
      vertex 16.6 -10 1
      vertex 16.6 -10 -1
    endloop
  endfacet
  facet normal -0.980783 0.1951 0
    outer loop
      vertex 16.6 -10 1
      vertex 16.4782 -10.6123 -1
      vertex 16.4782 -10.6123 1
    endloop
  endfacet
  facet normal 0.831498 -0.555528 0
    outer loop
      vertex 13.5218 -9.38771 1
      vertex 13.8686 -8.86863 -1
      vertex 13.8686 -8.86863 1
    endloop
  endfacet
  facet normal 0.831498 -0.555528 0
    outer loop
      vertex 13.8686 -8.86863 -1
      vertex 13.5218 -9.38771 1
      vertex 13.5218 -9.38771 -1
    endloop
  endfacet
  facet normal -0.1951 0.980783 0
    outer loop
      vertex 15.6123 -11.4782 -1
      vertex 15 -11.6 1
      vertex 15.6123 -11.4782 1
    endloop
  endfacet
  facet normal -0.1951 0.980783 0
    outer loop
      vertex 15 -11.6 1
      vertex 15.6123 -11.4782 -1
      vertex 15 -11.6 -1
    endloop
  endfacet
  facet normal 0.831508 0.555513 0
    outer loop
      vertex 13.8686 -11.1314 1
      vertex 13.5218 -10.6123 -1
      vertex 13.5218 -10.6123 1
    endloop
  endfacet
  facet normal 0.831508 0.555513 0
    outer loop
      vertex 13.5218 -10.6123 -1
      vertex 13.8686 -11.1314 1
      vertex 13.8686 -11.1314 -1
    endloop
  endfacet
  facet normal 0.980783 0.1951 0
    outer loop
      vertex 13.5218 -10.6123 1
      vertex 13.4 -10 -1
      vertex 13.4 -10 1
    endloop
  endfacet
  facet normal 0.980783 0.1951 0
    outer loop
      vertex 13.4 -10 -1
      vertex 13.5218 -10.6123 1
      vertex 13.5218 -10.6123 -1
    endloop
  endfacet
  facet normal 0.555513 0.831508 -0
    outer loop
      vertex 14.3877 -11.4782 -1
      vertex 13.8686 -11.1314 1
      vertex 14.3877 -11.4782 1
    endloop
  endfacet
  facet normal 0.555513 0.831508 0
    outer loop
      vertex 13.8686 -11.1314 1
      vertex 14.3877 -11.4782 -1
      vertex 13.8686 -11.1314 -1
    endloop
  endfacet
  facet normal -0.831508 -0.555513 0
    outer loop
      vertex 16.4782 10.6123 -1
      vertex 16.1314 11.1314 1
      vertex 16.1314 11.1314 -1
    endloop
  endfacet
  facet normal -0.831508 -0.555513 0
    outer loop
      vertex 16.1314 11.1314 1
      vertex 16.4782 10.6123 -1
      vertex 16.4782 10.6123 1
    endloop
  endfacet
  facet normal -0.980783 -0.1951 0
    outer loop
      vertex 16.6 10 -1
      vertex 16.4782 10.6123 1
      vertex 16.4782 10.6123 -1
    endloop
  endfacet
  facet normal -0.980783 -0.1951 0
    outer loop
      vertex 16.4782 10.6123 1
      vertex 16.6 10 -1
      vertex 16.6 10 1
    endloop
  endfacet
  facet normal -0.555513 -0.831508 0
    outer loop
      vertex 15.6123 11.4782 -1
      vertex 16.1314 11.1314 1
      vertex 15.6123 11.4782 1
    endloop
  endfacet
  facet normal -0.555513 -0.831508 -0
    outer loop
      vertex 16.1314 11.1314 1
      vertex 15.6123 11.4782 -1
      vertex 16.1314 11.1314 -1
    endloop
  endfacet
  facet normal -0.831498 0.555528 0
    outer loop
      vertex 16.1314 8.86863 -1
      vertex 16.4782 9.38771 1
      vertex 16.4782 9.38771 -1
    endloop
  endfacet
  facet normal -0.831498 0.555528 0
    outer loop
      vertex 16.4782 9.38771 1
      vertex 16.1314 8.86863 -1
      vertex 16.1314 8.86863 1
    endloop
  endfacet
  facet normal 0.1951 -0.980783 0
    outer loop
      vertex 14.3877 11.4782 -1
      vertex 15 11.6 1
      vertex 14.3877 11.4782 1
    endloop
  endfacet
  facet normal 0.1951 -0.980783 0
    outer loop
      vertex 15 11.6 1
      vertex 14.3877 11.4782 -1
      vertex 15 11.6 -1
    endloop
  endfacet
  facet normal 0.831508 -0.555513 0
    outer loop
      vertex 13.5218 10.6123 1
      vertex 13.8686 11.1314 -1
      vertex 13.8686 11.1314 1
    endloop
  endfacet
  facet normal 0.831508 -0.555513 0
    outer loop
      vertex 13.8686 11.1314 -1
      vertex 13.5218 10.6123 1
      vertex 13.5218 10.6123 -1
    endloop
  endfacet
  facet normal 0.980783 -0.1951 0
    outer loop
      vertex 13.4 10 1
      vertex 13.5218 10.6123 -1
      vertex 13.5218 10.6123 1
    endloop
  endfacet
  facet normal 0.980783 -0.1951 0
    outer loop
      vertex 13.5218 10.6123 -1
      vertex 13.4 10 1
      vertex 13.4 10 -1
    endloop
  endfacet
  facet normal -0.195084 0.980787 0
    outer loop
      vertex 15.6123 8.52179 -1
      vertex 15 8.4 1
      vertex 15.6123 8.52179 1
    endloop
  endfacet
  facet normal -0.195084 0.980787 0
    outer loop
      vertex 15 8.4 1
      vertex 15.6123 8.52179 -1
      vertex 15 8.4 -1
    endloop
  endfacet
  facet normal 0.195084 0.980787 -0
    outer loop
      vertex 15 8.4 -1
      vertex 14.3877 8.52179 1
      vertex 15 8.4 1
    endloop
  endfacet
  facet normal 0.195084 0.980787 0
    outer loop
      vertex 14.3877 8.52179 1
      vertex 15 8.4 -1
      vertex 14.3877 8.52179 -1
    endloop
  endfacet
  facet normal 0.980783 0.195103 0
    outer loop
      vertex 13.5218 9.38771 1
      vertex 13.4 10 -1
      vertex 13.4 10 1
    endloop
  endfacet
  facet normal 0.980783 0.195103 0
    outer loop
      vertex 13.4 10 -1
      vertex 13.5218 9.38771 1
      vertex 13.5218 9.38771 -1
    endloop
  endfacet
  facet normal -0.1951 -0.980783 0
    outer loop
      vertex 15 11.6 -1
      vertex 15.6123 11.4782 1
      vertex 15 11.6 1
    endloop
  endfacet
  facet normal -0.1951 -0.980783 -0
    outer loop
      vertex 15.6123 11.4782 1
      vertex 15 11.6 -1
      vertex 15.6123 11.4782 -1
    endloop
  endfacet
  facet normal -0.980783 0.195103 0
    outer loop
      vertex 16.4782 9.38771 -1
      vertex 16.6 10 1
      vertex 16.6 10 -1
    endloop
  endfacet
  facet normal -0.980783 0.195103 0
    outer loop
      vertex 16.6 10 1
      vertex 16.4782 9.38771 -1
      vertex 16.4782 9.38771 1
    endloop
  endfacet
  facet normal -0.555557 0.831478 0
    outer loop
      vertex 16.1314 8.86863 -1
      vertex 15.6123 8.52179 1
      vertex 16.1314 8.86863 1
    endloop
  endfacet
  facet normal -0.555557 0.831478 0
    outer loop
      vertex 15.6123 8.52179 1
      vertex 16.1314 8.86863 -1
      vertex 15.6123 8.52179 -1
    endloop
  endfacet
  facet normal 0.831498 0.555528 0
    outer loop
      vertex 13.8686 8.86863 1
      vertex 13.5218 9.38771 -1
      vertex 13.5218 9.38771 1
    endloop
  endfacet
  facet normal 0.831498 0.555528 0
    outer loop
      vertex 13.5218 9.38771 -1
      vertex 13.8686 8.86863 1
      vertex 13.8686 8.86863 -1
    endloop
  endfacet
  facet normal 0.555513 -0.831508 0
    outer loop
      vertex 13.8686 11.1314 -1
      vertex 14.3877 11.4782 1
      vertex 13.8686 11.1314 1
    endloop
  endfacet
  facet normal 0.555513 -0.831508 0
    outer loop
      vertex 14.3877 11.4782 1
      vertex 13.8686 11.1314 -1
      vertex 14.3877 11.4782 -1
    endloop
  endfacet
  facet normal 0.555557 0.831478 -0
    outer loop
      vertex 14.3877 8.52179 -1
      vertex 13.8686 8.86863 1
      vertex 14.3877 8.52179 1
    endloop
  endfacet
  facet normal 0.555557 0.831478 0
    outer loop
      vertex 13.8686 8.86863 1
      vertex 14.3877 8.52179 -1
      vertex 13.8686 8.86863 -1
    endloop
  endfacet
  facet normal 1 -0 0
    outer loop
      vertex 36.5 -26.5 1
      vertex 36.5 26.5 -1
      vertex 36.5 26.5 1
    endloop
  endfacet
  facet normal 1 0 0
    outer loop
      vertex 36.5 26.5 -1
      vertex 36.5 -26.5 1
      vertex 36.5 -26.5 -1
    endloop
  endfacet
  facet normal -0 0 1
    outer loop
      vertex -14.3877 8.52179 1
      vertex -2.5597 0.68587 1
      vertex -13.8686 8.86863 1
    endloop
  endfacet
  facet normal 0 0 1
    outer loop
      vertex -2.65 0 1
      vertex -13.5218 -9.38771 1
      vertex -13.4 -10 1
    endloop
  endfacet
  facet normal 0 0 1
    outer loop
      vertex -2.5597 0.68587 1
      vertex -14.3877 8.52179 1
      vertex -2.65 0 1
    endloop
  endfacet
  facet normal 0 0 1
    outer loop
      vertex -2.65 0 1
      vertex -13.8686 -8.86863 1
      vertex -13.5218 -9.38771 1
    endloop
  endfacet
  facet normal 0 0 1
    outer loop
      vertex -14.3877 -8.52179 1
      vertex -2.65 0 1
      vertex -14.3877 8.52179 1
    endloop
  endfacet
  facet normal 0 0 1
    outer loop
      vertex -2.65 0 1
      vertex -14.3877 -8.52179 1
      vertex -13.8686 -8.86863 1
    endloop
  endfacet
  facet normal -0 0 1
    outer loop
      vertex -15 8.4 1
      vertex -14.3877 -8.52179 1
      vertex -14.3877 8.52179 1
    endloop
  endfacet
  facet normal 0 0 1
    outer loop
      vertex -15 8.4 1
      vertex -15 -8.4 1
      vertex -14.3877 -8.52179 1
    endloop
  endfacet
  facet normal 0 0 1
    outer loop
      vertex -15.6123 8.52179 1
      vertex -15 -8.4 1
      vertex -15 8.4 1
    endloop
  endfacet
  facet normal 0 0 1
    outer loop
      vertex -15.6123 8.52179 1
      vertex -15.6123 -8.52179 1
      vertex -15 -8.4 1
    endloop
  endfacet
  facet normal 0 0 1
    outer loop
      vertex -16.1314 8.86863 1
      vertex -15.6123 -8.52179 1
      vertex -15.6123 8.52179 1
    endloop
  endfacet
  facet normal 0 0 1
    outer loop
      vertex -16.1314 8.86863 1
      vertex -16.1314 -8.86863 1
      vertex -15.6123 -8.52179 1
    endloop
  endfacet
  facet normal 0 0 1
    outer loop
      vertex -16.4782 9.38771 1
      vertex -16.1314 -8.86863 1
      vertex -16.1314 8.86863 1
    endloop
  endfacet
  facet normal 0 0 1
    outer loop
      vertex -16.4782 9.38771 1
      vertex -16.4782 -9.38771 1
      vertex -16.1314 -8.86863 1
    endloop
  endfacet
  facet normal 0 0 1
    outer loop
      vertex -36.5 26.5 1
      vertex -16.4782 9.38771 1
      vertex -16.6 10 1
    endloop
  endfacet
  facet normal 0 0 1
    outer loop
      vertex -16.4782 9.38771 1
      vertex -36.5 26.5 1
      vertex -16.4782 -9.38771 1
    endloop
  endfacet
  facet normal -0 0 1
    outer loop
      vertex 16.4782 -9.38771 1
      vertex 36.5 -26.5 1
      vertex 16.4782 9.38771 1
    endloop
  endfacet
  facet normal 0 0 1
    outer loop
      vertex 36.5 -26.5 1
      vertex 16.4782 -9.38771 1
      vertex 16.6 -10 1
    endloop
  endfacet
  facet normal -0 0 1
    outer loop
      vertex 16.1314 8.86863 1
      vertex 16.4782 -9.38771 1
      vertex 16.4782 9.38771 1
    endloop
  endfacet
  facet normal 0 0 1
    outer loop
      vertex 16.1314 8.86863 1
      vertex 16.1314 -8.86863 1
      vertex 16.4782 -9.38771 1
    endloop
  endfacet
  facet normal -0 0 1
    outer loop
      vertex 15.6123 8.52179 1
      vertex 16.1314 -8.86863 1
      vertex 16.1314 8.86863 1
    endloop
  endfacet
  facet normal 0 0 1
    outer loop
      vertex 15.6123 8.52179 1
      vertex 15.6123 -8.52179 1
      vertex 16.1314 -8.86863 1
    endloop
  endfacet
  facet normal -0 0 1
    outer loop
      vertex 15 8.4 1
      vertex 15.6123 -8.52179 1
      vertex 15.6123 8.52179 1
    endloop
  endfacet
  facet normal 0 0 1
    outer loop
      vertex 15 8.4 1
      vertex 15 -8.4 1
      vertex 15.6123 -8.52179 1
    endloop
  endfacet
  facet normal 0 0 1
    outer loop
      vertex 14.3877 8.52179 1
      vertex 15 -8.4 1
      vertex 15 8.4 1
    endloop
  endfacet
  facet normal 0 0 1
    outer loop
      vertex 14.3877 8.52179 1
      vertex 14.3877 -8.52179 1
      vertex 15 -8.4 1
    endloop
  endfacet
  facet normal 0 0 1
    outer loop
      vertex 2.5597 0.68587 1
      vertex 14.3877 8.52179 1
      vertex 13.8686 8.86863 1
    endloop
  endfacet
  facet normal 0 0 1
    outer loop
      vertex 14.3877 8.52179 1
      vertex 2.65 0 1
      vertex 14.3877 -8.52179 1
    endloop
  endfacet
  facet normal 0 0 1
    outer loop
      vertex 2.29497 1.325 1
      vertex 13.8686 8.86863 1
      vertex 13.5218 9.38771 1
    endloop
  endfacet
  facet normal -0 0 1
    outer loop
      vertex 2.5597 -0.68587 1
      vertex 14.3877 -8.52179 1
      vertex 2.65 0 1
    endloop
  endfacet
  facet normal 0 0 1
    outer loop
      vertex 1.325 2.29497 1
      vertex 13.5218 9.38771 1
      vertex 13.4 10 1
    endloop
  endfacet
  facet normal 0 0 1
    outer loop
      vertex 14.3877 -8.52179 1
      vertex 2.5597 -0.68587 1
      vertex 13.8686 -8.86863 1
    endloop
  endfacet
  facet normal 0 0 1
    outer loop
      vertex 16.4782 9.38771 1
      vertex 36.5 26.5 1
      vertex 16.6 10 1
    endloop
  endfacet
  facet normal 0 0 1
    outer loop
      vertex 36.5 26.5 1
      vertex 16.4782 10.6123 1
      vertex 16.6 10 1
    endloop
  endfacet
  facet normal 0 0 1
    outer loop
      vertex 36.5 26.5 1
      vertex 16.1314 11.1314 1
      vertex 16.4782 10.6123 1
    endloop
  endfacet
  facet normal 0 0 1
    outer loop
      vertex 36.5 26.5 1
      vertex 15.6123 11.4782 1
      vertex 16.1314 11.1314 1
    endloop
  endfacet
  facet normal 0 0 1
    outer loop
      vertex 36.5 26.5 1
      vertex 15 11.6 1
      vertex 15.6123 11.4782 1
    endloop
  endfacet
  facet normal 0 0 1
    outer loop
      vertex 36.5 26.5 1
      vertex 14.3877 11.4782 1
      vertex 15 11.6 1
    endloop
  endfacet
  facet normal 0 0 1
    outer loop
      vertex -14.3877 11.4782 1
      vertex 14.3877 11.4782 1
      vertex 36.5 26.5 1
    endloop
  endfacet
  facet normal -0 0 1
    outer loop
      vertex 2.29497 -1.325 1
      vertex 13.8686 -8.86863 1
      vertex 2.5597 -0.68587 1
    endloop
  endfacet
  facet normal 0 0 1
    outer loop
      vertex 0.68587 2.5597 1
      vertex 13.4 10 1
      vertex 13.5218 10.6123 1
    endloop
  endfacet
  facet normal 0 0 1
    outer loop
      vertex -13.5218 10.6123 1
      vertex 13.5218 10.6123 1
      vertex 13.8686 11.1314 1
    endloop
  endfacet
  facet normal 0 0 1
    outer loop
      vertex 14.3877 8.52179 1
      vertex 2.5597 0.68587 1
      vertex 2.65 0 1
    endloop
  endfacet
  facet normal 0 0 1
    outer loop
      vertex 13.8686 8.86863 1
      vertex 2.29497 1.325 1
      vertex 2.5597 0.68587 1
    endloop
  endfacet
  facet normal 0 0 1
    outer loop
      vertex 13.5218 9.38771 1
      vertex 1.87383 1.87383 1
      vertex 2.29497 1.325 1
    endloop
  endfacet
  facet normal 0 0 1
    outer loop
      vertex 13.5218 9.38771 1
      vertex 1.325 2.29497 1
      vertex 1.87383 1.87383 1
    endloop
  endfacet
  facet normal 0 0 1
    outer loop
      vertex 13.4 10 1
      vertex 0.68587 2.5597 1
      vertex 1.325 2.29497 1
    endloop
  endfacet
  facet normal 0 0 1
    outer loop
      vertex 14.3877 11.4782 1
      vertex -14.3877 11.4782 1
      vertex 13.8686 11.1314 1
    endloop
  endfacet
  facet normal 0 -0 1
    outer loop
      vertex -13.5218 10.6123 1
      vertex 13.8686 11.1314 1
      vertex -13.8686 11.1314 1
    endloop
  endfacet
  facet normal 0 0 1
    outer loop
      vertex 13.5218 10.6123 1
      vertex 0 2.65 1
      vertex 0.68587 2.5597 1
    endloop
  endfacet
  facet normal 0 0 1
    outer loop
      vertex 13.5218 10.6123 1
      vertex -13.5218 10.6123 1
      vertex 0 2.65 1
    endloop
  endfacet
  facet normal -0 0 1
    outer loop
      vertex -13.8686 8.86863 1
      vertex -2.29497 1.325 1
      vertex -13.5218 9.38771 1
    endloop
  endfacet
  facet normal 0 0 1
    outer loop
      vertex -1.87383 1.87383 1
      vertex -13.5218 9.38771 1
      vertex -2.29497 1.325 1
    endloop
  endfacet
  facet normal 0 0 1
    outer loop
      vertex -1.325 2.29497 1
      vertex -13.5218 9.38771 1
      vertex -1.87383 1.87383 1
    endloop
  endfacet
  facet normal -0 0 1
    outer loop
      vertex -13.5218 9.38771 1
      vertex -1.325 2.29497 1
      vertex -13.4 10 1
    endloop
  endfacet
  facet normal 0 0 1
    outer loop
      vertex 0 2.65 1
      vertex -13.5218 10.6123 1
      vertex -0.68587 2.5597 1
    endloop
  endfacet
  facet normal 0 0 1
    outer loop
      vertex -0.68587 2.5597 1
      vertex -13.4 10 1
      vertex -1.325 2.29497 1
    endloop
  endfacet
  facet normal -0 -0 1
    outer loop
      vertex -13.4 10 1
      vertex -0.68587 2.5597 1
      vertex -13.5218 10.6123 1
    endloop
  endfacet
  facet normal 0 0 1
    outer loop
      vertex 13.8686 11.1314 1
      vertex -14.3877 11.4782 1
      vertex -13.8686 11.1314 1
    endloop
  endfacet
  facet normal -0 0 1
    outer loop
      vertex -36.5 26.5 1
      vertex -14.3877 11.4782 1
      vertex 36.5 26.5 1
    endloop
  endfacet
  facet normal 0 0 1
    outer loop
      vertex -14.3877 11.4782 1
      vertex -36.5 26.5 1
      vertex -15 11.6 1
    endloop
  endfacet
  facet normal 0 0 1
    outer loop
      vertex -36.5 -26.5 1
      vertex -16.4782 -9.38771 1
      vertex -36.5 26.5 1
    endloop
  endfacet
  facet normal 0 0 1
    outer loop
      vertex -16.4782 10.6123 1
      vertex -36.5 26.5 1
      vertex -16.6 10 1
    endloop
  endfacet
  facet normal 0 0 1
    outer loop
      vertex -16.1314 11.1314 1
      vertex -36.5 26.5 1
      vertex -16.4782 10.6123 1
    endloop
  endfacet
  facet normal 0 0 1
    outer loop
      vertex -15.6123 11.4782 1
      vertex -36.5 26.5 1
      vertex -16.1314 11.1314 1
    endloop
  endfacet
  facet normal 0 0 1
    outer loop
      vertex -15 11.6 1
      vertex -36.5 26.5 1
      vertex -15.6123 11.4782 1
    endloop
  endfacet
  facet normal 0 0 1
    outer loop
      vertex 36.5 26.5 1
      vertex 16.4782 9.38771 1
      vertex 36.5 -26.5 1
    endloop
  endfacet
  facet normal -0 0 1
    outer loop
      vertex 16.4782 -10.6123 1
      vertex 36.5 -26.5 1
      vertex 16.6 -10 1
    endloop
  endfacet
  facet normal -0 0 1
    outer loop
      vertex 16.1314 -11.1314 1
      vertex 36.5 -26.5 1
      vertex 16.4782 -10.6123 1
    endloop
  endfacet
  facet normal -0 0 1
    outer loop
      vertex 15.6123 -11.4782 1
      vertex 36.5 -26.5 1
      vertex 16.1314 -11.1314 1
    endloop
  endfacet
  facet normal -0 0 1
    outer loop
      vertex 15 -11.6 1
      vertex 36.5 -26.5 1
      vertex 15.6123 -11.4782 1
    endloop
  endfacet
  facet normal 0 0 1
    outer loop
      vertex 14.3877 -11.4782 1
      vertex 36.5 -26.5 1
      vertex 15 -11.6 1
    endloop
  endfacet
  facet normal 0 0 1
    outer loop
      vertex -14.3877 -11.4782 1
      vertex 14.3877 -11.4782 1
      vertex 13.8686 -11.1314 1
    endloop
  endfacet
  facet normal 0 0 1
    outer loop
      vertex 13.8686 -8.86863 1
      vertex 2.29497 -1.325 1
      vertex 13.5218 -9.38771 1
    endloop
  endfacet
  facet normal -0 0 1
    outer loop
      vertex 1.87383 -1.87383 1
      vertex 13.5218 -9.38771 1
      vertex 2.29497 -1.325 1
    endloop
  endfacet
  facet normal -0 0 1
    outer loop
      vertex 1.325 -2.29497 1
      vertex 13.5218 -9.38771 1
      vertex 1.87383 -1.87383 1
    endloop
  endfacet
  facet normal 0 0 1
    outer loop
      vertex 13.5218 -9.38771 1
      vertex 1.325 -2.29497 1
      vertex 13.4 -10 1
    endloop
  endfacet
  facet normal -0 0 1
    outer loop
      vertex 0.68587 -2.5597 1
      vertex 13.4 -10 1
      vertex 1.325 -2.29497 1
    endloop
  endfacet
  facet normal 0 0 1
    outer loop
      vertex 13.4 -10 1
      vertex 0.68587 -2.5597 1
      vertex 13.5218 -10.6123 1
    endloop
  endfacet
  facet normal -0 0 1
    outer loop
      vertex 0 -2.65 1
      vertex 13.5218 -10.6123 1
      vertex 0.68587 -2.5597 1
    endloop
  endfacet
  facet normal 0 0 1
    outer loop
      vertex -13.5218 -10.6123 1
      vertex 13.5218 -10.6123 1
      vertex 0 -2.65 1
    endloop
  endfacet
  facet normal 0 0 1
    outer loop
      vertex 13.5218 -10.6123 1
      vertex -13.5218 -10.6123 1
      vertex 13.8686 -11.1314 1
    endloop
  endfacet
  facet normal 0 0 1
    outer loop
      vertex -13.5218 -10.6123 1
      vertex 0 -2.65 1
      vertex -0.68587 -2.5597 1
    endloop
  endfacet
  facet normal 0 0 1
    outer loop
      vertex -13.4 -10 1
      vertex -0.68587 -2.5597 1
      vertex -1.325 -2.29497 1
    endloop
  endfacet
  facet normal 0 0 1
    outer loop
      vertex -2.29497 1.325 1
      vertex -13.8686 8.86863 1
      vertex -2.5597 0.68587 1
    endloop
  endfacet
  facet normal 0 0 1
    outer loop
      vertex -2.65 0 1
      vertex -13.4 -10 1
      vertex -2.5597 -0.68587 1
    endloop
  endfacet
  facet normal 0 0 1
    outer loop
      vertex -2.5597 -0.68587 1
      vertex -13.4 -10 1
      vertex -2.29497 -1.325 1
    endloop
  endfacet
  facet normal 0 0 1
    outer loop
      vertex -2.29497 -1.325 1
      vertex -13.4 -10 1
      vertex -1.87383 -1.87383 1
    endloop
  endfacet
  facet normal 0 0 1
    outer loop
      vertex -13.4 -10 1
      vertex -1.325 -2.29497 1
      vertex -1.87383 -1.87383 1
    endloop
  endfacet
  facet normal 0 0 1
    outer loop
      vertex -0.68587 -2.5597 1
      vertex -13.4 -10 1
      vertex -13.5218 -10.6123 1
    endloop
  endfacet
  facet normal 0 0 1
    outer loop
      vertex 13.8686 -11.1314 1
      vertex -13.5218 -10.6123 1
      vertex -13.8686 -11.1314 1
    endloop
  endfacet
  facet normal 0 0 1
    outer loop
      vertex -14.3877 -11.4782 1
      vertex 13.8686 -11.1314 1
      vertex -13.8686 -11.1314 1
    endloop
  endfacet
  facet normal 0 0 1
    outer loop
      vertex 14.3877 -11.4782 1
      vertex -14.3877 -11.4782 1
      vertex 36.5 -26.5 1
    endloop
  endfacet
  facet normal 0 0 1
    outer loop
      vertex -36.5 -26.5 1
      vertex -14.3877 -11.4782 1
      vertex -15 -11.6 1
    endloop
  endfacet
  facet normal 0 0 1
    outer loop
      vertex -36.5 -26.5 1
      vertex -15 -11.6 1
      vertex -15.6123 -11.4782 1
    endloop
  endfacet
  facet normal 0 0 1
    outer loop
      vertex -16.4782 -9.38771 1
      vertex -36.5 -26.5 1
      vertex -16.6 -10 1
    endloop
  endfacet
  facet normal 0 0 1
    outer loop
      vertex -14.3877 -11.4782 1
      vertex -36.5 -26.5 1
      vertex 36.5 -26.5 1
    endloop
  endfacet
  facet normal 0 0 1
    outer loop
      vertex -16.1314 -11.1314 1
      vertex -36.5 -26.5 1
      vertex -15.6123 -11.4782 1
    endloop
  endfacet
  facet normal 0 0 1
    outer loop
      vertex -16.4782 -10.6123 1
      vertex -36.5 -26.5 1
      vertex -16.1314 -11.1314 1
    endloop
  endfacet
  facet normal 0 0 1
    outer loop
      vertex -16.6 -10 1
      vertex -36.5 -26.5 1
      vertex -16.4782 -10.6123 1
    endloop
  endfacet
  facet normal 0 0 -1
    outer loop
      vertex -14.3877 -8.52179 -1
      vertex -2.5597 -0.68587 -1
      vertex -13.8686 -8.86863 -1
    endloop
  endfacet
  facet normal 0 0 -1
    outer loop
      vertex -2.65 0 -1
      vertex -13.5218 9.38771 -1
      vertex -13.4 10 -1
    endloop
  endfacet
  facet normal -0 0 -1
    outer loop
      vertex -2.5597 -0.68587 -1
      vertex -14.3877 -8.52179 -1
      vertex -2.65 0 -1
    endloop
  endfacet
  facet normal 0 0 -1
    outer loop
      vertex -2.65 0 -1
      vertex -13.8686 8.86863 -1
      vertex -13.5218 9.38771 -1
    endloop
  endfacet
  facet normal 0 0 -1
    outer loop
      vertex -14.3877 8.52179 -1
      vertex -2.65 0 -1
      vertex -14.3877 -8.52179 -1
    endloop
  endfacet
  facet normal 0 0 -1
    outer loop
      vertex -2.65 0 -1
      vertex -14.3877 8.52179 -1
      vertex -13.8686 8.86863 -1
    endloop
  endfacet
  facet normal 0 0 -1
    outer loop
      vertex -15 -8.4 -1
      vertex -14.3877 8.52179 -1
      vertex -14.3877 -8.52179 -1
    endloop
  endfacet
  facet normal 0 0 -1
    outer loop
      vertex -15 -8.4 -1
      vertex -15 8.4 -1
      vertex -14.3877 8.52179 -1
    endloop
  endfacet
  facet normal 0 0 -1
    outer loop
      vertex -15.6123 -8.52179 -1
      vertex -15 8.4 -1
      vertex -15 -8.4 -1
    endloop
  endfacet
  facet normal 0 0 -1
    outer loop
      vertex -15.6123 -8.52179 -1
      vertex -15.6123 8.52179 -1
      vertex -15 8.4 -1
    endloop
  endfacet
  facet normal 0 0 -1
    outer loop
      vertex -16.1314 -8.86863 -1
      vertex -15.6123 8.52179 -1
      vertex -15.6123 -8.52179 -1
    endloop
  endfacet
  facet normal 0 0 -1
    outer loop
      vertex -16.1314 -8.86863 -1
      vertex -16.1314 8.86863 -1
      vertex -15.6123 8.52179 -1
    endloop
  endfacet
  facet normal 0 0 -1
    outer loop
      vertex -16.4782 -9.38771 -1
      vertex -16.1314 8.86863 -1
      vertex -16.1314 -8.86863 -1
    endloop
  endfacet
  facet normal 0 0 -1
    outer loop
      vertex -16.4782 -9.38771 -1
      vertex -16.4782 9.38771 -1
      vertex -16.1314 8.86863 -1
    endloop
  endfacet
  facet normal 0 0 -1
    outer loop
      vertex -36.5 -26.5 -1
      vertex -16.4782 -9.38771 -1
      vertex -16.6 -10 -1
    endloop
  endfacet
  facet normal -0 0 -1
    outer loop
      vertex -16.4782 -9.38771 -1
      vertex -36.5 -26.5 -1
      vertex -16.4782 9.38771 -1
    endloop
  endfacet
  facet normal 0 0 -1
    outer loop
      vertex 16.4782 9.38771 -1
      vertex 36.5 26.5 -1
      vertex 16.4782 -9.38771 -1
    endloop
  endfacet
  facet normal 0 0 -1
    outer loop
      vertex 36.5 26.5 -1
      vertex 16.4782 9.38771 -1
      vertex 16.6 10 -1
    endloop
  endfacet
  facet normal 0 0 -1
    outer loop
      vertex 16.1314 -8.86863 -1
      vertex 16.4782 9.38771 -1
      vertex 16.4782 -9.38771 -1
    endloop
  endfacet
  facet normal 0 0 -1
    outer loop
      vertex 16.1314 -8.86863 -1
      vertex 16.1314 8.86863 -1
      vertex 16.4782 9.38771 -1
    endloop
  endfacet
  facet normal 0 0 -1
    outer loop
      vertex 15.6123 -8.52179 -1
      vertex 16.1314 8.86863 -1
      vertex 16.1314 -8.86863 -1
    endloop
  endfacet
  facet normal 0 0 -1
    outer loop
      vertex 15.6123 -8.52179 -1
      vertex 15.6123 8.52179 -1
      vertex 16.1314 8.86863 -1
    endloop
  endfacet
  facet normal 0 0 -1
    outer loop
      vertex 15 -8.4 -1
      vertex 15.6123 8.52179 -1
      vertex 15.6123 -8.52179 -1
    endloop
  endfacet
  facet normal 0 0 -1
    outer loop
      vertex 15 -8.4 -1
      vertex 15 8.4 -1
      vertex 15.6123 8.52179 -1
    endloop
  endfacet
  facet normal 0 0 -1
    outer loop
      vertex 14.3877 -8.52179 -1
      vertex 15 8.4 -1
      vertex 15 -8.4 -1
    endloop
  endfacet
  facet normal 0 0 -1
    outer loop
      vertex 14.3877 -8.52179 -1
      vertex 14.3877 8.52179 -1
      vertex 15 8.4 -1
    endloop
  endfacet
  facet normal 0 0 -1
    outer loop
      vertex 2.5597 -0.68587 -1
      vertex 14.3877 -8.52179 -1
      vertex 13.8686 -8.86863 -1
    endloop
  endfacet
  facet normal 0 0 -1
    outer loop
      vertex 14.3877 -8.52179 -1
      vertex 2.65 0 -1
      vertex 14.3877 8.52179 -1
    endloop
  endfacet
  facet normal 0 0 -1
    outer loop
      vertex 2.29497 -1.325 -1
      vertex 13.8686 -8.86863 -1
      vertex 13.5218 -9.38771 -1
    endloop
  endfacet
  facet normal 0 0 -1
    outer loop
      vertex 2.5597 0.68587 -1
      vertex 14.3877 8.52179 -1
      vertex 2.65 0 -1
    endloop
  endfacet
  facet normal 0 0 -1
    outer loop
      vertex 1.325 -2.29497 -1
      vertex 13.5218 -9.38771 -1
      vertex 13.4 -10 -1
    endloop
  endfacet
  facet normal -0 0 -1
    outer loop
      vertex 14.3877 8.52179 -1
      vertex 2.5597 0.68587 -1
      vertex 13.8686 8.86863 -1
    endloop
  endfacet
  facet normal 0 0 -1
    outer loop
      vertex 16.4782 -9.38771 -1
      vertex 36.5 -26.5 -1
      vertex 16.6 -10 -1
    endloop
  endfacet
  facet normal 0 0 -1
    outer loop
      vertex 36.5 -26.5 -1
      vertex 16.4782 -10.6123 -1
      vertex 16.6 -10 -1
    endloop
  endfacet
  facet normal 0 0 -1
    outer loop
      vertex 36.5 -26.5 -1
      vertex 16.1314 -11.1314 -1
      vertex 16.4782 -10.6123 -1
    endloop
  endfacet
  facet normal 0 0 -1
    outer loop
      vertex 36.5 -26.5 -1
      vertex 15.6123 -11.4782 -1
      vertex 16.1314 -11.1314 -1
    endloop
  endfacet
  facet normal 0 0 -1
    outer loop
      vertex 36.5 -26.5 -1
      vertex 15 -11.6 -1
      vertex 15.6123 -11.4782 -1
    endloop
  endfacet
  facet normal 0 0 -1
    outer loop
      vertex 36.5 -26.5 -1
      vertex 14.3877 -11.4782 -1
      vertex 15 -11.6 -1
    endloop
  endfacet
  facet normal 0 0 -1
    outer loop
      vertex -14.3877 -11.4782 -1
      vertex 14.3877 -11.4782 -1
      vertex 36.5 -26.5 -1
    endloop
  endfacet
  facet normal 0 0 -1
    outer loop
      vertex 2.29497 1.325 -1
      vertex 13.8686 8.86863 -1
      vertex 2.5597 0.68587 -1
    endloop
  endfacet
  facet normal 0 0 -1
    outer loop
      vertex 0.68587 -2.5597 -1
      vertex 13.4 -10 -1
      vertex 13.5218 -10.6123 -1
    endloop
  endfacet
  facet normal 0 0 -1
    outer loop
      vertex -13.5218 -10.6123 -1
      vertex 13.5218 -10.6123 -1
      vertex 13.8686 -11.1314 -1
    endloop
  endfacet
  facet normal 0 0 -1
    outer loop
      vertex 14.3877 -8.52179 -1
      vertex 2.5597 -0.68587 -1
      vertex 2.65 0 -1
    endloop
  endfacet
  facet normal 0 0 -1
    outer loop
      vertex 13.8686 -8.86863 -1
      vertex 2.29497 -1.325 -1
      vertex 2.5597 -0.68587 -1
    endloop
  endfacet
  facet normal 0 0 -1
    outer loop
      vertex 13.5218 -9.38771 -1
      vertex 1.87383 -1.87383 -1
      vertex 2.29497 -1.325 -1
    endloop
  endfacet
  facet normal 0 0 -1
    outer loop
      vertex 13.5218 -9.38771 -1
      vertex 1.325 -2.29497 -1
      vertex 1.87383 -1.87383 -1
    endloop
  endfacet
  facet normal 0 0 -1
    outer loop
      vertex 13.4 -10 -1
      vertex 0.68587 -2.5597 -1
      vertex 1.325 -2.29497 -1
    endloop
  endfacet
  facet normal 0 0 -1
    outer loop
      vertex 14.3877 -11.4782 -1
      vertex -14.3877 -11.4782 -1
      vertex 13.8686 -11.1314 -1
    endloop
  endfacet
  facet normal 0 -0 -1
    outer loop
      vertex -13.5218 -10.6123 -1
      vertex 13.8686 -11.1314 -1
      vertex -13.8686 -11.1314 -1
    endloop
  endfacet
  facet normal 0 0 -1
    outer loop
      vertex 13.5218 -10.6123 -1
      vertex 0 -2.65 -1
      vertex 0.68587 -2.5597 -1
    endloop
  endfacet
  facet normal 0 0 -1
    outer loop
      vertex 13.5218 -10.6123 -1
      vertex -13.5218 -10.6123 -1
      vertex 0 -2.65 -1
    endloop
  endfacet
  facet normal 0 0 -1
    outer loop
      vertex -13.8686 -8.86863 -1
      vertex -2.29497 -1.325 -1
      vertex -13.5218 -9.38771 -1
    endloop
  endfacet
  facet normal -0 0 -1
    outer loop
      vertex -1.87383 -1.87383 -1
      vertex -13.5218 -9.38771 -1
      vertex -2.29497 -1.325 -1
    endloop
  endfacet
  facet normal -0 0 -1
    outer loop
      vertex -1.325 -2.29497 -1
      vertex -13.5218 -9.38771 -1
      vertex -1.87383 -1.87383 -1
    endloop
  endfacet
  facet normal 0 0 -1
    outer loop
      vertex -13.5218 -9.38771 -1
      vertex -1.325 -2.29497 -1
      vertex -13.4 -10 -1
    endloop
  endfacet
  facet normal -0 0 -1
    outer loop
      vertex 0 -2.65 -1
      vertex -13.5218 -10.6123 -1
      vertex -0.68587 -2.5597 -1
    endloop
  endfacet
  facet normal -0 0 -1
    outer loop
      vertex -0.68587 -2.5597 -1
      vertex -13.4 -10 -1
      vertex -1.325 -2.29497 -1
    endloop
  endfacet
  facet normal 0 -0 -1
    outer loop
      vertex -13.4 -10 -1
      vertex -0.68587 -2.5597 -1
      vertex -13.5218 -10.6123 -1
    endloop
  endfacet
  facet normal -0 0 -1
    outer loop
      vertex 13.8686 -11.1314 -1
      vertex -14.3877 -11.4782 -1
      vertex -13.8686 -11.1314 -1
    endloop
  endfacet
  facet normal 0 0 -1
    outer loop
      vertex -36.5 -26.5 -1
      vertex -14.3877 -11.4782 -1
      vertex 36.5 -26.5 -1
    endloop
  endfacet
  facet normal 0 0 -1
    outer loop
      vertex -14.3877 -11.4782 -1
      vertex -36.5 -26.5 -1
      vertex -15 -11.6 -1
    endloop
  endfacet
  facet normal 0 0 -1
    outer loop
      vertex -36.5 26.5 -1
      vertex -16.4782 9.38771 -1
      vertex -36.5 -26.5 -1
    endloop
  endfacet
  facet normal -0 0 -1
    outer loop
      vertex -16.4782 -10.6123 -1
      vertex -36.5 -26.5 -1
      vertex -16.6 -10 -1
    endloop
  endfacet
  facet normal -0 0 -1
    outer loop
      vertex -16.1314 -11.1314 -1
      vertex -36.5 -26.5 -1
      vertex -16.4782 -10.6123 -1
    endloop
  endfacet
  facet normal -0 0 -1
    outer loop
      vertex -15.6123 -11.4782 -1
      vertex -36.5 -26.5 -1
      vertex -16.1314 -11.1314 -1
    endloop
  endfacet
  facet normal -0 0 -1
    outer loop
      vertex -15 -11.6 -1
      vertex -36.5 -26.5 -1
      vertex -15.6123 -11.4782 -1
    endloop
  endfacet
  facet normal 0 0 -1
    outer loop
      vertex 36.5 -26.5 -1
      vertex 16.4782 -9.38771 -1
      vertex 36.5 26.5 -1
    endloop
  endfacet
  facet normal 0 0 -1
    outer loop
      vertex 16.4782 10.6123 -1
      vertex 36.5 26.5 -1
      vertex 16.6 10 -1
    endloop
  endfacet
  facet normal 0 0 -1
    outer loop
      vertex 16.1314 11.1314 -1
      vertex 36.5 26.5 -1
      vertex 16.4782 10.6123 -1
    endloop
  endfacet
  facet normal 0 0 -1
    outer loop
      vertex 15.6123 11.4782 -1
      vertex 36.5 26.5 -1
      vertex 16.1314 11.1314 -1
    endloop
  endfacet
  facet normal 0 0 -1
    outer loop
      vertex 15 11.6 -1
      vertex 36.5 26.5 -1
      vertex 15.6123 11.4782 -1
    endloop
  endfacet
  facet normal 0 0 -1
    outer loop
      vertex 14.3877 11.4782 -1
      vertex 36.5 26.5 -1
      vertex 15 11.6 -1
    endloop
  endfacet
  facet normal 0 0 -1
    outer loop
      vertex -14.3877 11.4782 -1
      vertex 14.3877 11.4782 -1
      vertex 13.8686 11.1314 -1
    endloop
  endfacet
  facet normal -0 0 -1
    outer loop
      vertex 13.8686 8.86863 -1
      vertex 2.29497 1.325 -1
      vertex 13.5218 9.38771 -1
    endloop
  endfacet
  facet normal 0 0 -1
    outer loop
      vertex 1.87383 1.87383 -1
      vertex 13.5218 9.38771 -1
      vertex 2.29497 1.325 -1
    endloop
  endfacet
  facet normal 0 0 -1
    outer loop
      vertex 1.325 2.29497 -1
      vertex 13.5218 9.38771 -1
      vertex 1.87383 1.87383 -1
    endloop
  endfacet
  facet normal -0 0 -1
    outer loop
      vertex 13.5218 9.38771 -1
      vertex 1.325 2.29497 -1
      vertex 13.4 10 -1
    endloop
  endfacet
  facet normal 0 0 -1
    outer loop
      vertex 0.68587 2.5597 -1
      vertex 13.4 10 -1
      vertex 1.325 2.29497 -1
    endloop
  endfacet
  facet normal -0 0 -1
    outer loop
      vertex 13.4 10 -1
      vertex 0.68587 2.5597 -1
      vertex 13.5218 10.6123 -1
    endloop
  endfacet
  facet normal 0 0 -1
    outer loop
      vertex 0 2.65 -1
      vertex 13.5218 10.6123 -1
      vertex 0.68587 2.5597 -1
    endloop
  endfacet
  facet normal 0 0 -1
    outer loop
      vertex -13.5218 10.6123 -1
      vertex 13.5218 10.6123 -1
      vertex 0 2.65 -1
    endloop
  endfacet
  facet normal 0 0 -1
    outer loop
      vertex 13.5218 10.6123 -1
      vertex -13.5218 10.6123 -1
      vertex 13.8686 11.1314 -1
    endloop
  endfacet
  facet normal 0 0 -1
    outer loop
      vertex -13.5218 10.6123 -1
      vertex 0 2.65 -1
      vertex -0.68587 2.5597 -1
    endloop
  endfacet
  facet normal 0 0 -1
    outer loop
      vertex -13.4 10 -1
      vertex -0.68587 2.5597 -1
      vertex -1.325 2.29497 -1
    endloop
  endfacet
  facet normal -0 0 -1
    outer loop
      vertex -2.29497 -1.325 -1
      vertex -13.8686 -8.86863 -1
      vertex -2.5597 -0.68587 -1
    endloop
  endfacet
  facet normal 0 0 -1
    outer loop
      vertex -2.65 0 -1
      vertex -13.4 10 -1
      vertex -2.5597 0.68587 -1
    endloop
  endfacet
  facet normal 0 0 -1
    outer loop
      vertex -2.5597 0.68587 -1
      vertex -13.4 10 -1
      vertex -2.29497 1.325 -1
    endloop
  endfacet
  facet normal 0 0 -1
    outer loop
      vertex -2.29497 1.325 -1
      vertex -13.4 10 -1
      vertex -1.87383 1.87383 -1
    endloop
  endfacet
  facet normal 0 0 -1
    outer loop
      vertex -13.4 10 -1
      vertex -1.325 2.29497 -1
      vertex -1.87383 1.87383 -1
    endloop
  endfacet
  facet normal 0 0 -1
    outer loop
      vertex -0.68587 2.5597 -1
      vertex -13.4 10 -1
      vertex -13.5218 10.6123 -1
    endloop
  endfacet
  facet normal -0 0 -1
    outer loop
      vertex 13.8686 11.1314 -1
      vertex -13.5218 10.6123 -1
      vertex -13.8686 11.1314 -1
    endloop
  endfacet
  facet normal 0 0 -1
    outer loop
      vertex -14.3877 11.4782 -1
      vertex 13.8686 11.1314 -1
      vertex -13.8686 11.1314 -1
    endloop
  endfacet
  facet normal 0 0 -1
    outer loop
      vertex 14.3877 11.4782 -1
      vertex -14.3877 11.4782 -1
      vertex 36.5 26.5 -1
    endloop
  endfacet
  facet normal 0 0 -1
    outer loop
      vertex -36.5 26.5 -1
      vertex -14.3877 11.4782 -1
      vertex -15 11.6 -1
    endloop
  endfacet
  facet normal 0 0 -1
    outer loop
      vertex -36.5 26.5 -1
      vertex -15 11.6 -1
      vertex -15.6123 11.4782 -1
    endloop
  endfacet
  facet normal 0 0 -1
    outer loop
      vertex -16.4782 9.38771 -1
      vertex -36.5 26.5 -1
      vertex -16.6 10 -1
    endloop
  endfacet
  facet normal 0 0 -1
    outer loop
      vertex -14.3877 11.4782 -1
      vertex -36.5 26.5 -1
      vertex 36.5 26.5 -1
    endloop
  endfacet
  facet normal 0 0 -1
    outer loop
      vertex -16.1314 11.1314 -1
      vertex -36.5 26.5 -1
      vertex -15.6123 11.4782 -1
    endloop
  endfacet
  facet normal 0 0 -1
    outer loop
      vertex -16.4782 10.6123 -1
      vertex -36.5 26.5 -1
      vertex -16.1314 11.1314 -1
    endloop
  endfacet
  facet normal 0 0 -1
    outer loop
      vertex -16.6 10 -1
      vertex -36.5 26.5 -1
      vertex -16.4782 10.6123 -1
    endloop
  endfacet
  facet normal -1 0 0
    outer loop
      vertex -36.5 -26.5 -1
      vertex -36.5 26.5 1
      vertex -36.5 26.5 -1
    endloop
  endfacet
  facet normal -1 -0 0
    outer loop
      vertex -36.5 26.5 1
      vertex -36.5 -26.5 -1
      vertex -36.5 -26.5 1
    endloop
  endfacet
  facet normal 0 1 -0
    outer loop
      vertex 36.5 26.5 -1
      vertex -36.5 26.5 1
      vertex 36.5 26.5 1
    endloop
  endfacet
  facet normal 0 1 0
    outer loop
      vertex -36.5 26.5 1
      vertex 36.5 26.5 -1
      vertex -36.5 26.5 -1
    endloop
  endfacet
  facet normal 0 -1 0
    outer loop
      vertex -36.5 -26.5 -1
      vertex 36.5 -26.5 1
      vertex -36.5 -26.5 1
    endloop
  endfacet
  facet normal 0 -1 -0
    outer loop
      vertex 36.5 -26.5 1
      vertex -36.5 -26.5 -1
      vertex 36.5 -26.5 -1
    endloop
  endfacet
  facet normal 0.991444 -0.130531 0
    outer loop
      vertex -2.65 0 1
      vertex -2.5597 0.68587 -1
      vertex -2.5597 0.68587 1
    endloop
  endfacet
  facet normal 0.991444 -0.130531 0
    outer loop
      vertex -2.5597 0.68587 -1
      vertex -2.65 0 1
      vertex -2.65 0 -1
    endloop
  endfacet
  facet normal -0.923883 -0.382676 0
    outer loop
      vertex 2.5597 0.68587 -1
      vertex 2.29497 1.325 1
      vertex 2.29497 1.325 -1
    endloop
  endfacet
  facet normal -0.923883 -0.382676 0
    outer loop
      vertex 2.29497 1.325 1
      vertex 2.5597 0.68587 -1
      vertex 2.5597 0.68587 1
    endloop
  endfacet
  facet normal -0.991444 -0.130531 0
    outer loop
      vertex 2.65 0 -1
      vertex 2.5597 0.68587 1
      vertex 2.5597 0.68587 -1
    endloop
  endfacet
  facet normal -0.991444 -0.130531 0
    outer loop
      vertex 2.5597 0.68587 1
      vertex 2.65 0 -1
      vertex 2.65 0 1
    endloop
  endfacet
  facet normal -0.793348 -0.608769 0
    outer loop
      vertex 2.29497 1.325 -1
      vertex 1.87383 1.87383 1
      vertex 1.87383 1.87383 -1
    endloop
  endfacet
  facet normal -0.793348 -0.608769 0
    outer loop
      vertex 1.87383 1.87383 1
      vertex 2.29497 1.325 -1
      vertex 2.29497 1.325 1
    endloop
  endfacet
  facet normal -0.991444 0.130531 0
    outer loop
      vertex 2.5597 -0.68587 -1
      vertex 2.65 0 1
      vertex 2.65 0 -1
    endloop
  endfacet
  facet normal -0.991444 0.130531 0
    outer loop
      vertex 2.65 0 1
      vertex 2.5597 -0.68587 -1
      vertex 2.5597 -0.68587 1
    endloop
  endfacet
  facet normal -0.130531 0.991444 0
    outer loop
      vertex 0.68587 -2.5597 -1
      vertex 0 -2.65 1
      vertex 0.68587 -2.5597 1
    endloop
  endfacet
  facet normal -0.130531 0.991444 0
    outer loop
      vertex 0 -2.65 1
      vertex 0.68587 -2.5597 -1
      vertex 0 -2.65 -1
    endloop
  endfacet
  facet normal 0.923883 -0.382676 0
    outer loop
      vertex -2.5597 0.68587 1
      vertex -2.29497 1.325 -1
      vertex -2.29497 1.325 1
    endloop
  endfacet
  facet normal 0.923883 -0.382676 0
    outer loop
      vertex -2.29497 1.325 -1
      vertex -2.5597 0.68587 1
      vertex -2.5597 0.68587 -1
    endloop
  endfacet
  facet normal -0.608769 0.793348 0
    outer loop
      vertex 1.87383 -1.87383 -1
      vertex 1.325 -2.29497 1
      vertex 1.87383 -1.87383 1
    endloop
  endfacet
  facet normal -0.608769 0.793348 0
    outer loop
      vertex 1.325 -2.29497 1
      vertex 1.87383 -1.87383 -1
      vertex 1.325 -2.29497 -1
    endloop
  endfacet
  facet normal -0.382676 -0.923883 0
    outer loop
      vertex 0.68587 2.5597 -1
      vertex 1.325 2.29497 1
      vertex 0.68587 2.5597 1
    endloop
  endfacet
  facet normal -0.382676 -0.923883 -0
    outer loop
      vertex 1.325 2.29497 1
      vertex 0.68587 2.5597 -1
      vertex 1.325 2.29497 -1
    endloop
  endfacet
  facet normal 0.793348 -0.608769 0
    outer loop
      vertex -2.29497 1.325 1
      vertex -1.87383 1.87383 -1
      vertex -1.87383 1.87383 1
    endloop
  endfacet
  facet normal 0.793348 -0.608769 0
    outer loop
      vertex -1.87383 1.87383 -1
      vertex -2.29497 1.325 1
      vertex -2.29497 1.325 -1
    endloop
  endfacet
  facet normal 0.923883 0.382676 0
    outer loop
      vertex -2.29497 -1.325 1
      vertex -2.5597 -0.68587 -1
      vertex -2.5597 -0.68587 1
    endloop
  endfacet
  facet normal 0.923883 0.382676 0
    outer loop
      vertex -2.5597 -0.68587 -1
      vertex -2.29497 -1.325 1
      vertex -2.29497 -1.325 -1
    endloop
  endfacet
  facet normal -0.130531 -0.991444 0
    outer loop
      vertex 0 2.65 -1
      vertex 0.68587 2.5597 1
      vertex 0 2.65 1
    endloop
  endfacet
  facet normal -0.130531 -0.991444 -0
    outer loop
      vertex 0.68587 2.5597 1
      vertex 0 2.65 -1
      vertex 0.68587 2.5597 -1
    endloop
  endfacet
  facet normal 0.382676 -0.923883 0
    outer loop
      vertex -1.325 2.29497 -1
      vertex -0.68587 2.5597 1
      vertex -1.325 2.29497 1
    endloop
  endfacet
  facet normal 0.382676 -0.923883 0
    outer loop
      vertex -0.68587 2.5597 1
      vertex -1.325 2.29497 -1
      vertex -0.68587 2.5597 -1
    endloop
  endfacet
  facet normal 0.130531 -0.991444 0
    outer loop
      vertex -0.68587 2.5597 -1
      vertex 0 2.65 1
      vertex -0.68587 2.5597 1
    endloop
  endfacet
  facet normal 0.130531 -0.991444 0
    outer loop
      vertex 0 2.65 1
      vertex -0.68587 2.5597 -1
      vertex 0 2.65 -1
    endloop
  endfacet
  facet normal 0.608769 0.793348 -0
    outer loop
      vertex -1.325 -2.29497 -1
      vertex -1.87383 -1.87383 1
      vertex -1.325 -2.29497 1
    endloop
  endfacet
  facet normal 0.608769 0.793348 0
    outer loop
      vertex -1.87383 -1.87383 1
      vertex -1.325 -2.29497 -1
      vertex -1.87383 -1.87383 -1
    endloop
  endfacet
  facet normal 0.608769 -0.793348 0
    outer loop
      vertex -1.87383 1.87383 -1
      vertex -1.325 2.29497 1
      vertex -1.87383 1.87383 1
    endloop
  endfacet
  facet normal 0.608769 -0.793348 0
    outer loop
      vertex -1.325 2.29497 1
      vertex -1.87383 1.87383 -1
      vertex -1.325 2.29497 -1
    endloop
  endfacet
  facet normal -0.923883 0.382676 0
    outer loop
      vertex 2.29497 -1.325 -1
      vertex 2.5597 -0.68587 1
      vertex 2.5597 -0.68587 -1
    endloop
  endfacet
  facet normal -0.923883 0.382676 0
    outer loop
      vertex 2.5597 -0.68587 1
      vertex 2.29497 -1.325 -1
      vertex 2.29497 -1.325 1
    endloop
  endfacet
  facet normal -0.793348 0.608769 0
    outer loop
      vertex 1.87383 -1.87383 -1
      vertex 2.29497 -1.325 1
      vertex 2.29497 -1.325 -1
    endloop
  endfacet
  facet normal -0.793348 0.608769 0
    outer loop
      vertex 2.29497 -1.325 1
      vertex 1.87383 -1.87383 -1
      vertex 1.87383 -1.87383 1
    endloop
  endfacet
  facet normal -0.608769 -0.793348 0
    outer loop
      vertex 1.325 2.29497 -1
      vertex 1.87383 1.87383 1
      vertex 1.325 2.29497 1
    endloop
  endfacet
  facet normal -0.608769 -0.793348 -0
    outer loop
      vertex 1.87383 1.87383 1
      vertex 1.325 2.29497 -1
      vertex 1.87383 1.87383 -1
    endloop
  endfacet
  facet normal 0.991444 0.130531 0
    outer loop
      vertex -2.5597 -0.68587 1
      vertex -2.65 0 -1
      vertex -2.65 0 1
    endloop
  endfacet
  facet normal 0.991444 0.130531 0
    outer loop
      vertex -2.65 0 -1
      vertex -2.5597 -0.68587 1
      vertex -2.5597 -0.68587 -1
    endloop
  endfacet
  facet normal -0.382676 0.923883 0
    outer loop
      vertex 1.325 -2.29497 -1
      vertex 0.68587 -2.5597 1
      vertex 1.325 -2.29497 1
    endloop
  endfacet
  facet normal -0.382676 0.923883 0
    outer loop
      vertex 0.68587 -2.5597 1
      vertex 1.325 -2.29497 -1
      vertex 0.68587 -2.5597 -1
    endloop
  endfacet
  facet normal 0.793348 0.608769 0
    outer loop
      vertex -1.87383 -1.87383 1
      vertex -2.29497 -1.325 -1
      vertex -2.29497 -1.325 1
    endloop
  endfacet
  facet normal 0.793348 0.608769 0
    outer loop
      vertex -2.29497 -1.325 -1
      vertex -1.87383 -1.87383 1
      vertex -1.87383 -1.87383 -1
    endloop
  endfacet
  facet normal 0.382676 0.923883 -0
    outer loop
      vertex -0.68587 -2.5597 -1
      vertex -1.325 -2.29497 1
      vertex -0.68587 -2.5597 1
    endloop
  endfacet
  facet normal 0.382676 0.923883 0
    outer loop
      vertex -1.325 -2.29497 1
      vertex -0.68587 -2.5597 -1
      vertex -1.325 -2.29497 -1
    endloop
  endfacet
  facet normal 0.130531 0.991444 -0
    outer loop
      vertex 0 -2.65 -1
      vertex -0.68587 -2.5597 1
      vertex 0 -2.65 1
    endloop
  endfacet
  facet normal 0.130531 0.991444 0
    outer loop
      vertex -0.68587 -2.5597 1
      vertex 0 -2.65 -1
      vertex -0.68587 -2.5597 -1
    endloop
  endfacet
endsolid OpenSCAD_Model
