solid OpenSCAD_Model
  facet normal -0.831508 -0.555513 0
    outer loop
      vertex -15.5218 -11.3877 -1
      vertex -15.8686 -10.8686 1.5
      vertex -15.8686 -10.8686 -1
    endloop
  endfacet
  facet normal -0.831508 -0.555513 0
    outer loop
      vertex -15.8686 -10.8686 1.5
      vertex -15.5218 -11.3877 -1
      vertex -15.5218 -11.3877 1.5
    endloop
  endfacet
  facet normal -0.980783 -0.1951 0
    outer loop
      vertex -15.4 -12 -1
      vertex -15.5218 -11.3877 1.5
      vertex -15.5218 -11.3877 -1
    endloop
  endfacet
  facet normal -0.980783 -0.1951 0
    outer loop
      vertex -15.5218 -11.3877 1.5
      vertex -15.4 -12 -1
      vertex -15.4 -12 1.5
    endloop
  endfacet
  facet normal -0.555513 -0.831508 0
    outer loop
      vertex -16.3877 -10.5218 -1
      vertex -15.8686 -10.8686 1.5
      vertex -16.3877 -10.5218 1.5
    endloop
  endfacet
  facet normal -0.555513 -0.831508 -0
    outer loop
      vertex -15.8686 -10.8686 1.5
      vertex -16.3877 -10.5218 -1
      vertex -15.8686 -10.8686 -1
    endloop
  endfacet
  facet normal -0.1951 -0.980783 0
    outer loop
      vertex -17 -10.4 -1
      vertex -16.3877 -10.5218 1.5
      vertex -17 -10.4 1.5
    endloop
  endfacet
  facet normal -0.1951 -0.980783 -0
    outer loop
      vertex -16.3877 -10.5218 1.5
      vertex -17 -10.4 -1
      vertex -16.3877 -10.5218 -1
    endloop
  endfacet
  facet normal -0.980783 0.1951 0
    outer loop
      vertex -15.5218 -12.6123 -1
      vertex -15.4 -12 1.5
      vertex -15.4 -12 -1
    endloop
  endfacet
  facet normal -0.980783 0.1951 0
    outer loop
      vertex -15.4 -12 1.5
      vertex -15.5218 -12.6123 -1
      vertex -15.5218 -12.6123 1.5
    endloop
  endfacet
  facet normal -0.555513 0.831508 0
    outer loop
      vertex -15.8686 -13.1314 -1
      vertex -16.3877 -13.4782 1.5
      vertex -15.8686 -13.1314 1.5
    endloop
  endfacet
  facet normal -0.555513 0.831508 0
    outer loop
      vertex -16.3877 -13.4782 1.5
      vertex -15.8686 -13.1314 -1
      vertex -16.3877 -13.4782 -1
    endloop
  endfacet
  facet normal 0.555513 -0.831508 0
    outer loop
      vertex -18.1314 -10.8686 -1
      vertex -17.6123 -10.5218 1.5
      vertex -18.1314 -10.8686 1.5
    endloop
  endfacet
  facet normal 0.555513 -0.831508 0
    outer loop
      vertex -17.6123 -10.5218 1.5
      vertex -18.1314 -10.8686 -1
      vertex -17.6123 -10.5218 -1
    endloop
  endfacet
  facet normal 0.831508 0.555513 0
    outer loop
      vertex -18.1314 -13.1314 1.5
      vertex -18.4782 -12.6123 -1
      vertex -18.4782 -12.6123 1.5
    endloop
  endfacet
  facet normal 0.831508 0.555513 0
    outer loop
      vertex -18.4782 -12.6123 -1
      vertex -18.1314 -13.1314 1.5
      vertex -18.1314 -13.1314 -1
    endloop
  endfacet
  facet normal 0.1951 0.980783 -0
    outer loop
      vertex -17 -13.6 -1
      vertex -17.6123 -13.4782 1.5
      vertex -17 -13.6 1.5
    endloop
  endfacet
  facet normal 0.1951 0.980783 0
    outer loop
      vertex -17.6123 -13.4782 1.5
      vertex -17 -13.6 -1
      vertex -17.6123 -13.4782 -1
    endloop
  endfacet
  facet normal 0.980783 -0.1951 0
    outer loop
      vertex -18.6 -12 1.5
      vertex -18.4782 -11.3877 -1
      vertex -18.4782 -11.3877 1.5
    endloop
  endfacet
  facet normal 0.980783 -0.1951 0
    outer loop
      vertex -18.4782 -11.3877 -1
      vertex -18.6 -12 1.5
      vertex -18.6 -12 -1
    endloop
  endfacet
  facet normal 0.831508 -0.555513 0
    outer loop
      vertex -18.4782 -11.3877 1.5
      vertex -18.1314 -10.8686 -1
      vertex -18.1314 -10.8686 1.5
    endloop
  endfacet
  facet normal 0.831508 -0.555513 0
    outer loop
      vertex -18.1314 -10.8686 -1
      vertex -18.4782 -11.3877 1.5
      vertex -18.4782 -11.3877 -1
    endloop
  endfacet
  facet normal -0.831508 0.555513 0
    outer loop
      vertex -15.8686 -13.1314 -1
      vertex -15.5218 -12.6123 1.5
      vertex -15.5218 -12.6123 -1
    endloop
  endfacet
  facet normal -0.831508 0.555513 0
    outer loop
      vertex -15.5218 -12.6123 1.5
      vertex -15.8686 -13.1314 -1
      vertex -15.8686 -13.1314 1.5
    endloop
  endfacet
  facet normal 0.1951 -0.980783 0
    outer loop
      vertex -17.6123 -10.5218 -1
      vertex -17 -10.4 1.5
      vertex -17.6123 -10.5218 1.5
    endloop
  endfacet
  facet normal 0.1951 -0.980783 0
    outer loop
      vertex -17 -10.4 1.5
      vertex -17.6123 -10.5218 -1
      vertex -17 -10.4 -1
    endloop
  endfacet
  facet normal -0.1951 0.980783 0
    outer loop
      vertex -16.3877 -13.4782 -1
      vertex -17 -13.6 1.5
      vertex -16.3877 -13.4782 1.5
    endloop
  endfacet
  facet normal -0.1951 0.980783 0
    outer loop
      vertex -17 -13.6 1.5
      vertex -16.3877 -13.4782 -1
      vertex -17 -13.6 -1
    endloop
  endfacet
  facet normal 0.980783 0.1951 0
    outer loop
      vertex -18.4782 -12.6123 1.5
      vertex -18.6 -12 -1
      vertex -18.6 -12 1.5
    endloop
  endfacet
  facet normal 0.980783 0.1951 0
    outer loop
      vertex -18.6 -12 -1
      vertex -18.4782 -12.6123 1.5
      vertex -18.4782 -12.6123 -1
    endloop
  endfacet
  facet normal 0.555513 0.831508 -0
    outer loop
      vertex -17.6123 -13.4782 -1
      vertex -18.1314 -13.1314 1.5
      vertex -17.6123 -13.4782 1.5
    endloop
  endfacet
  facet normal 0.555513 0.831508 0
    outer loop
      vertex -18.1314 -13.1314 1.5
      vertex -17.6123 -13.4782 -1
      vertex -18.1314 -13.1314 -1
    endloop
  endfacet
  facet normal -0.831508 -0.555513 0
    outer loop
      vertex -15.5218 12.6123 -1
      vertex -15.8686 13.1314 1.5
      vertex -15.8686 13.1314 -1
    endloop
  endfacet
  facet normal -0.831508 -0.555513 0
    outer loop
      vertex -15.8686 13.1314 1.5
      vertex -15.5218 12.6123 -1
      vertex -15.5218 12.6123 1.5
    endloop
  endfacet
  facet normal -0.980783 -0.1951 0
    outer loop
      vertex -15.4 12 -1
      vertex -15.5218 12.6123 1.5
      vertex -15.5218 12.6123 -1
    endloop
  endfacet
  facet normal -0.980783 -0.1951 0
    outer loop
      vertex -15.5218 12.6123 1.5
      vertex -15.4 12 -1
      vertex -15.4 12 1.5
    endloop
  endfacet
  facet normal -0.555513 -0.831508 0
    outer loop
      vertex -16.3877 13.4782 -1
      vertex -15.8686 13.1314 1.5
      vertex -16.3877 13.4782 1.5
    endloop
  endfacet
  facet normal -0.555513 -0.831508 -0
    outer loop
      vertex -15.8686 13.1314 1.5
      vertex -16.3877 13.4782 -1
      vertex -15.8686 13.1314 -1
    endloop
  endfacet
  facet normal -0.831508 0.555513 0
    outer loop
      vertex -15.8686 10.8686 -1
      vertex -15.5218 11.3877 1.5
      vertex -15.5218 11.3877 -1
    endloop
  endfacet
  facet normal -0.831508 0.555513 0
    outer loop
      vertex -15.5218 11.3877 1.5
      vertex -15.8686 10.8686 -1
      vertex -15.8686 10.8686 1.5
    endloop
  endfacet
  facet normal 0.1951 -0.980783 0
    outer loop
      vertex -17.6123 13.4782 -1
      vertex -17 13.6 1.5
      vertex -17.6123 13.4782 1.5
    endloop
  endfacet
  facet normal 0.1951 -0.980783 0
    outer loop
      vertex -17 13.6 1.5
      vertex -17.6123 13.4782 -1
      vertex -17 13.6 -1
    endloop
  endfacet
  facet normal 0.831508 -0.555513 0
    outer loop
      vertex -18.4782 12.6123 1.5
      vertex -18.1314 13.1314 -1
      vertex -18.1314 13.1314 1.5
    endloop
  endfacet
  facet normal 0.831508 -0.555513 0
    outer loop
      vertex -18.1314 13.1314 -1
      vertex -18.4782 12.6123 1.5
      vertex -18.4782 12.6123 -1
    endloop
  endfacet
  facet normal 0.980783 -0.1951 0
    outer loop
      vertex -18.6 12 1.5
      vertex -18.4782 12.6123 -1
      vertex -18.4782 12.6123 1.5
    endloop
  endfacet
  facet normal 0.980783 -0.1951 0
    outer loop
      vertex -18.4782 12.6123 -1
      vertex -18.6 12 1.5
      vertex -18.6 12 -1
    endloop
  endfacet
  facet normal -0.1951 0.980783 0
    outer loop
      vertex -16.3877 10.5218 -1
      vertex -17 10.4 1.5
      vertex -16.3877 10.5218 1.5
    endloop
  endfacet
  facet normal -0.1951 0.980783 0
    outer loop
      vertex -17 10.4 1.5
      vertex -16.3877 10.5218 -1
      vertex -17 10.4 -1
    endloop
  endfacet
  facet normal 0.1951 0.980783 -0
    outer loop
      vertex -17 10.4 -1
      vertex -17.6123 10.5218 1.5
      vertex -17 10.4 1.5
    endloop
  endfacet
  facet normal 0.1951 0.980783 0
    outer loop
      vertex -17.6123 10.5218 1.5
      vertex -17 10.4 -1
      vertex -17.6123 10.5218 -1
    endloop
  endfacet
  facet normal 0.980783 0.1951 0
    outer loop
      vertex -18.4782 11.3877 1.5
      vertex -18.6 12 -1
      vertex -18.6 12 1.5
    endloop
  endfacet
  facet normal 0.980783 0.1951 0
    outer loop
      vertex -18.6 12 -1
      vertex -18.4782 11.3877 1.5
      vertex -18.4782 11.3877 -1
    endloop
  endfacet
  facet normal -0.1951 -0.980783 0
    outer loop
      vertex -17 13.6 -1
      vertex -16.3877 13.4782 1.5
      vertex -17 13.6 1.5
    endloop
  endfacet
  facet normal -0.1951 -0.980783 -0
    outer loop
      vertex -16.3877 13.4782 1.5
      vertex -17 13.6 -1
      vertex -16.3877 13.4782 -1
    endloop
  endfacet
  facet normal -0.980783 0.1951 0
    outer loop
      vertex -15.5218 11.3877 -1
      vertex -15.4 12 1.5
      vertex -15.4 12 -1
    endloop
  endfacet
  facet normal -0.980783 0.1951 0
    outer loop
      vertex -15.4 12 1.5
      vertex -15.5218 11.3877 -1
      vertex -15.5218 11.3877 1.5
    endloop
  endfacet
  facet normal -0.555513 0.831508 0
    outer loop
      vertex -15.8686 10.8686 -1
      vertex -16.3877 10.5218 1.5
      vertex -15.8686 10.8686 1.5
    endloop
  endfacet
  facet normal -0.555513 0.831508 0
    outer loop
      vertex -16.3877 10.5218 1.5
      vertex -15.8686 10.8686 -1
      vertex -16.3877 10.5218 -1
    endloop
  endfacet
  facet normal 0.831508 0.555513 0
    outer loop
      vertex -18.1314 10.8686 1.5
      vertex -18.4782 11.3877 -1
      vertex -18.4782 11.3877 1.5
    endloop
  endfacet
  facet normal 0.831508 0.555513 0
    outer loop
      vertex -18.4782 11.3877 -1
      vertex -18.1314 10.8686 1.5
      vertex -18.1314 10.8686 -1
    endloop
  endfacet
  facet normal 0.555513 -0.831508 0
    outer loop
      vertex -18.1314 13.1314 -1
      vertex -17.6123 13.4782 1.5
      vertex -18.1314 13.1314 1.5
    endloop
  endfacet
  facet normal 0.555513 -0.831508 0
    outer loop
      vertex -17.6123 13.4782 1.5
      vertex -18.1314 13.1314 -1
      vertex -17.6123 13.4782 -1
    endloop
  endfacet
  facet normal 0.555513 0.831508 -0
    outer loop
      vertex -17.6123 10.5218 -1
      vertex -18.1314 10.8686 1.5
      vertex -17.6123 10.5218 1.5
    endloop
  endfacet
  facet normal 0.555513 0.831508 0
    outer loop
      vertex -18.1314 10.8686 1.5
      vertex -17.6123 10.5218 -1
      vertex -18.1314 10.8686 -1
    endloop
  endfacet
  facet normal 0.980783 -0.1951 0
    outer loop
      vertex 15.4 -12 1.5
      vertex 15.5218 -11.3877 -1
      vertex 15.5218 -11.3877 1.5
    endloop
  endfacet
  facet normal 0.980783 -0.1951 0
    outer loop
      vertex 15.5218 -11.3877 -1
      vertex 15.4 -12 1.5
      vertex 15.4 -12 -1
    endloop
  endfacet
  facet normal -0.831508 -0.555513 0
    outer loop
      vertex 18.4782 -11.3877 -1
      vertex 18.1314 -10.8686 1.5
      vertex 18.1314 -10.8686 -1
    endloop
  endfacet
  facet normal -0.831508 -0.555513 0
    outer loop
      vertex 18.1314 -10.8686 1.5
      vertex 18.4782 -11.3877 -1
      vertex 18.4782 -11.3877 1.5
    endloop
  endfacet
  facet normal -0.980783 -0.1951 0
    outer loop
      vertex 18.6 -12 -1
      vertex 18.4782 -11.3877 1.5
      vertex 18.4782 -11.3877 -1
    endloop
  endfacet
  facet normal -0.980783 -0.1951 0
    outer loop
      vertex 18.4782 -11.3877 1.5
      vertex 18.6 -12 -1
      vertex 18.6 -12 1.5
    endloop
  endfacet
  facet normal -0.555513 -0.831508 0
    outer loop
      vertex 17.6123 -10.5218 -1
      vertex 18.1314 -10.8686 1.5
      vertex 17.6123 -10.5218 1.5
    endloop
  endfacet
  facet normal -0.555513 -0.831508 -0
    outer loop
      vertex 18.1314 -10.8686 1.5
      vertex 17.6123 -10.5218 -1
      vertex 18.1314 -10.8686 -1
    endloop
  endfacet
  facet normal -0.831508 0.555513 0
    outer loop
      vertex 18.1314 -13.1314 -1
      vertex 18.4782 -12.6123 1.5
      vertex 18.4782 -12.6123 -1
    endloop
  endfacet
  facet normal -0.831508 0.555513 0
    outer loop
      vertex 18.4782 -12.6123 1.5
      vertex 18.1314 -13.1314 -1
      vertex 18.1314 -13.1314 1.5
    endloop
  endfacet
  facet normal -0.555513 0.831508 0
    outer loop
      vertex 18.1314 -13.1314 -1
      vertex 17.6123 -13.4782 1.5
      vertex 18.1314 -13.1314 1.5
    endloop
  endfacet
  facet normal -0.555513 0.831508 0
    outer loop
      vertex 17.6123 -13.4782 1.5
      vertex 18.1314 -13.1314 -1
      vertex 17.6123 -13.4782 -1
    endloop
  endfacet
  facet normal 0.555513 -0.831508 0
    outer loop
      vertex 15.8686 -10.8686 -1
      vertex 16.3877 -10.5218 1.5
      vertex 15.8686 -10.8686 1.5
    endloop
  endfacet
  facet normal 0.555513 -0.831508 0
    outer loop
      vertex 16.3877 -10.5218 1.5
      vertex 15.8686 -10.8686 -1
      vertex 16.3877 -10.5218 -1
    endloop
  endfacet
  facet normal 0.1951 0.980783 -0
    outer loop
      vertex 17 -13.6 -1
      vertex 16.3877 -13.4782 1.5
      vertex 17 -13.6 1.5
    endloop
  endfacet
  facet normal 0.1951 0.980783 0
    outer loop
      vertex 16.3877 -13.4782 1.5
      vertex 17 -13.6 -1
      vertex 16.3877 -13.4782 -1
    endloop
  endfacet
  facet normal 0.1951 -0.980783 0
    outer loop
      vertex 16.3877 -10.5218 -1
      vertex 17 -10.4 1.5
      vertex 16.3877 -10.5218 1.5
    endloop
  endfacet
  facet normal 0.1951 -0.980783 0
    outer loop
      vertex 17 -10.4 1.5
      vertex 16.3877 -10.5218 -1
      vertex 17 -10.4 -1
    endloop
  endfacet
  facet normal -0.1951 0.980783 0
    outer loop
      vertex 17.6123 -13.4782 -1
      vertex 17 -13.6 1.5
      vertex 17.6123 -13.4782 1.5
    endloop
  endfacet
  facet normal -0.1951 0.980783 0
    outer loop
      vertex 17 -13.6 1.5
      vertex 17.6123 -13.4782 -1
      vertex 17 -13.6 -1
    endloop
  endfacet
  facet normal -0.1951 -0.980783 0
    outer loop
      vertex 17 -10.4 -1
      vertex 17.6123 -10.5218 1.5
      vertex 17 -10.4 1.5
    endloop
  endfacet
  facet normal -0.1951 -0.980783 -0
    outer loop
      vertex 17.6123 -10.5218 1.5
      vertex 17 -10.4 -1
      vertex 17.6123 -10.5218 -1
    endloop
  endfacet
  facet normal -0.980783 0.1951 0
    outer loop
      vertex 18.4782 -12.6123 -1
      vertex 18.6 -12 1.5
      vertex 18.6 -12 -1
    endloop
  endfacet
  facet normal -0.980783 0.1951 0
    outer loop
      vertex 18.6 -12 1.5
      vertex 18.4782 -12.6123 -1
      vertex 18.4782 -12.6123 1.5
    endloop
  endfacet
  facet normal 0.831508 -0.555513 0
    outer loop
      vertex 15.5218 -11.3877 1.5
      vertex 15.8686 -10.8686 -1
      vertex 15.8686 -10.8686 1.5
    endloop
  endfacet
  facet normal 0.831508 -0.555513 0
    outer loop
      vertex 15.8686 -10.8686 -1
      vertex 15.5218 -11.3877 1.5
      vertex 15.5218 -11.3877 -1
    endloop
  endfacet
  facet normal 0.831508 0.555513 0
    outer loop
      vertex 15.8686 -13.1314 1.5
      vertex 15.5218 -12.6123 -1
      vertex 15.5218 -12.6123 1.5
    endloop
  endfacet
  facet normal 0.831508 0.555513 0
    outer loop
      vertex 15.5218 -12.6123 -1
      vertex 15.8686 -13.1314 1.5
      vertex 15.8686 -13.1314 -1
    endloop
  endfacet
  facet normal 0.980783 0.1951 0
    outer loop
      vertex 15.5218 -12.6123 1.5
      vertex 15.4 -12 -1
      vertex 15.4 -12 1.5
    endloop
  endfacet
  facet normal 0.980783 0.1951 0
    outer loop
      vertex 15.4 -12 -1
      vertex 15.5218 -12.6123 1.5
      vertex 15.5218 -12.6123 -1
    endloop
  endfacet
  facet normal 0.555513 0.831508 -0
    outer loop
      vertex 16.3877 -13.4782 -1
      vertex 15.8686 -13.1314 1.5
      vertex 16.3877 -13.4782 1.5
    endloop
  endfacet
  facet normal 0.555513 0.831508 0
    outer loop
      vertex 15.8686 -13.1314 1.5
      vertex 16.3877 -13.4782 -1
      vertex 15.8686 -13.1314 -1
    endloop
  endfacet
  facet normal -0.831508 -0.555513 0
    outer loop
      vertex 18.4782 12.6123 -1
      vertex 18.1314 13.1314 1.5
      vertex 18.1314 13.1314 -1
    endloop
  endfacet
  facet normal -0.831508 -0.555513 0
    outer loop
      vertex 18.1314 13.1314 1.5
      vertex 18.4782 12.6123 -1
      vertex 18.4782 12.6123 1.5
    endloop
  endfacet
  facet normal -0.980783 -0.1951 0
    outer loop
      vertex 18.6 12 -1
      vertex 18.4782 12.6123 1.5
      vertex 18.4782 12.6123 -1
    endloop
  endfacet
  facet normal -0.980783 -0.1951 0
    outer loop
      vertex 18.4782 12.6123 1.5
      vertex 18.6 12 -1
      vertex 18.6 12 1.5
    endloop
  endfacet
  facet normal -0.555513 -0.831508 0
    outer loop
      vertex 17.6123 13.4782 -1
      vertex 18.1314 13.1314 1.5
      vertex 17.6123 13.4782 1.5
    endloop
  endfacet
  facet normal -0.555513 -0.831508 -0
    outer loop
      vertex 18.1314 13.1314 1.5
      vertex 17.6123 13.4782 -1
      vertex 18.1314 13.1314 -1
    endloop
  endfacet
  facet normal -0.831508 0.555513 0
    outer loop
      vertex 18.1314 10.8686 -1
      vertex 18.4782 11.3877 1.5
      vertex 18.4782 11.3877 -1
    endloop
  endfacet
  facet normal -0.831508 0.555513 0
    outer loop
      vertex 18.4782 11.3877 1.5
      vertex 18.1314 10.8686 -1
      vertex 18.1314 10.8686 1.5
    endloop
  endfacet
  facet normal 0.1951 -0.980783 0
    outer loop
      vertex 16.3877 13.4782 -1
      vertex 17 13.6 1.5
      vertex 16.3877 13.4782 1.5
    endloop
  endfacet
  facet normal 0.1951 -0.980783 0
    outer loop
      vertex 17 13.6 1.5
      vertex 16.3877 13.4782 -1
      vertex 17 13.6 -1
    endloop
  endfacet
  facet normal 0.831508 -0.555513 0
    outer loop
      vertex 15.5218 12.6123 1.5
      vertex 15.8686 13.1314 -1
      vertex 15.8686 13.1314 1.5
    endloop
  endfacet
  facet normal 0.831508 -0.555513 0
    outer loop
      vertex 15.8686 13.1314 -1
      vertex 15.5218 12.6123 1.5
      vertex 15.5218 12.6123 -1
    endloop
  endfacet
  facet normal 0.980783 -0.1951 0
    outer loop
      vertex 15.4 12 1.5
      vertex 15.5218 12.6123 -1
      vertex 15.5218 12.6123 1.5
    endloop
  endfacet
  facet normal 0.980783 -0.1951 0
    outer loop
      vertex 15.5218 12.6123 -1
      vertex 15.4 12 1.5
      vertex 15.4 12 -1
    endloop
  endfacet
  facet normal -0.1951 0.980783 0
    outer loop
      vertex 17.6123 10.5218 -1
      vertex 17 10.4 1.5
      vertex 17.6123 10.5218 1.5
    endloop
  endfacet
  facet normal -0.1951 0.980783 0
    outer loop
      vertex 17 10.4 1.5
      vertex 17.6123 10.5218 -1
      vertex 17 10.4 -1
    endloop
  endfacet
  facet normal 0.1951 0.980783 -0
    outer loop
      vertex 17 10.4 -1
      vertex 16.3877 10.5218 1.5
      vertex 17 10.4 1.5
    endloop
  endfacet
  facet normal 0.1951 0.980783 0
    outer loop
      vertex 16.3877 10.5218 1.5
      vertex 17 10.4 -1
      vertex 16.3877 10.5218 -1
    endloop
  endfacet
  facet normal 0.980783 0.1951 0
    outer loop
      vertex 15.5218 11.3877 1.5
      vertex 15.4 12 -1
      vertex 15.4 12 1.5
    endloop
  endfacet
  facet normal 0.980783 0.1951 0
    outer loop
      vertex 15.4 12 -1
      vertex 15.5218 11.3877 1.5
      vertex 15.5218 11.3877 -1
    endloop
  endfacet
  facet normal -0.1951 -0.980783 0
    outer loop
      vertex 17 13.6 -1
      vertex 17.6123 13.4782 1.5
      vertex 17 13.6 1.5
    endloop
  endfacet
  facet normal -0.1951 -0.980783 -0
    outer loop
      vertex 17.6123 13.4782 1.5
      vertex 17 13.6 -1
      vertex 17.6123 13.4782 -1
    endloop
  endfacet
  facet normal -0.980783 0.1951 0
    outer loop
      vertex 18.4782 11.3877 -1
      vertex 18.6 12 1.5
      vertex 18.6 12 -1
    endloop
  endfacet
  facet normal -0.980783 0.1951 0
    outer loop
      vertex 18.6 12 1.5
      vertex 18.4782 11.3877 -1
      vertex 18.4782 11.3877 1.5
    endloop
  endfacet
  facet normal -0.555513 0.831508 0
    outer loop
      vertex 18.1314 10.8686 -1
      vertex 17.6123 10.5218 1.5
      vertex 18.1314 10.8686 1.5
    endloop
  endfacet
  facet normal -0.555513 0.831508 0
    outer loop
      vertex 17.6123 10.5218 1.5
      vertex 18.1314 10.8686 -1
      vertex 17.6123 10.5218 -1
    endloop
  endfacet
  facet normal 0.831508 0.555513 0
    outer loop
      vertex 15.8686 10.8686 1.5
      vertex 15.5218 11.3877 -1
      vertex 15.5218 11.3877 1.5
    endloop
  endfacet
  facet normal 0.831508 0.555513 0
    outer loop
      vertex 15.5218 11.3877 -1
      vertex 15.8686 10.8686 1.5
      vertex 15.8686 10.8686 -1
    endloop
  endfacet
  facet normal 0.555513 -0.831508 0
    outer loop
      vertex 15.8686 13.1314 -1
      vertex 16.3877 13.4782 1.5
      vertex 15.8686 13.1314 1.5
    endloop
  endfacet
  facet normal 0.555513 -0.831508 0
    outer loop
      vertex 16.3877 13.4782 1.5
      vertex 15.8686 13.1314 -1
      vertex 16.3877 13.4782 -1
    endloop
  endfacet
  facet normal 0.555513 0.831508 -0
    outer loop
      vertex 16.3877 10.5218 -1
      vertex 15.8686 10.8686 1.5
      vertex 16.3877 10.5218 1.5
    endloop
  endfacet
  facet normal 0.555513 0.831508 0
    outer loop
      vertex 15.8686 10.8686 1.5
      vertex 16.3877 10.5218 -1
      vertex 15.8686 10.8686 -1
    endloop
  endfacet
  facet normal 1 -0 0
    outer loop
      vertex 24 -19 1.5
      vertex 24 19 -1.5
      vertex 24 19 1.5
    endloop
  endfacet
  facet normal 1 0 0
    outer loop
      vertex 24 19 -1.5
      vertex 24 -19 1.5
      vertex 24 -19 -1.5
    endloop
  endfacet
  facet normal 0 0 1
    outer loop
      vertex 15.8686 10.8686 1.5
      vertex -15.8686 10.8686 1.5
      vertex 15.8686 -10.8686 1.5
    endloop
  endfacet
  facet normal 0 0 1
    outer loop
      vertex 15.8686 -10.8686 1.5
      vertex -15.5218 -11.3877 1.5
      vertex -15.4 -12 1.5
    endloop
  endfacet
  facet normal 0 0 1
    outer loop
      vertex -15.8686 -10.8686 1.5
      vertex 15.8686 -10.8686 1.5
      vertex -15.8686 10.8686 1.5
    endloop
  endfacet
  facet normal 0 0 1
    outer loop
      vertex 15.8686 -10.8686 1.5
      vertex -15.8686 -10.8686 1.5
      vertex -15.5218 -11.3877 1.5
    endloop
  endfacet
  facet normal -0 0 1
    outer loop
      vertex -16.3877 10.5218 1.5
      vertex -15.8686 -10.8686 1.5
      vertex -15.8686 10.8686 1.5
    endloop
  endfacet
  facet normal 0 0 1
    outer loop
      vertex -16.3877 10.5218 1.5
      vertex -16.3877 -10.5218 1.5
      vertex -15.8686 -10.8686 1.5
    endloop
  endfacet
  facet normal -0 0 1
    outer loop
      vertex -17 10.4 1.5
      vertex -16.3877 -10.5218 1.5
      vertex -16.3877 10.5218 1.5
    endloop
  endfacet
  facet normal 0 0 1
    outer loop
      vertex -17 10.4 1.5
      vertex -17 -10.4 1.5
      vertex -16.3877 -10.5218 1.5
    endloop
  endfacet
  facet normal 0 0 1
    outer loop
      vertex -17.6123 10.5218 1.5
      vertex -17 -10.4 1.5
      vertex -17 10.4 1.5
    endloop
  endfacet
  facet normal 0 0 1
    outer loop
      vertex -17.6123 10.5218 1.5
      vertex -17.6123 -10.5218 1.5
      vertex -17 -10.4 1.5
    endloop
  endfacet
  facet normal 0 0 1
    outer loop
      vertex -18.1314 10.8686 1.5
      vertex -17.6123 -10.5218 1.5
      vertex -17.6123 10.5218 1.5
    endloop
  endfacet
  facet normal 0 0 1
    outer loop
      vertex -18.1314 10.8686 1.5
      vertex -18.1314 -10.8686 1.5
      vertex -17.6123 -10.5218 1.5
    endloop
  endfacet
  facet normal 0 0 1
    outer loop
      vertex -18.4782 11.3877 1.5
      vertex -18.1314 -10.8686 1.5
      vertex -18.1314 10.8686 1.5
    endloop
  endfacet
  facet normal 0 0 1
    outer loop
      vertex -18.4782 11.3877 1.5
      vertex -18.4782 -11.3877 1.5
      vertex -18.1314 -10.8686 1.5
    endloop
  endfacet
  facet normal 0 0 1
    outer loop
      vertex -24 19 1.5
      vertex -18.4782 11.3877 1.5
      vertex -18.6 12 1.5
    endloop
  endfacet
  facet normal 0 0 1
    outer loop
      vertex -18.4782 11.3877 1.5
      vertex -24 19 1.5
      vertex -18.4782 -11.3877 1.5
    endloop
  endfacet
  facet normal -0 0 1
    outer loop
      vertex 18.4782 -11.3877 1.5
      vertex 24 -19 1.5
      vertex 18.4782 11.3877 1.5
    endloop
  endfacet
  facet normal 0 0 1
    outer loop
      vertex 24 -19 1.5
      vertex 18.4782 -11.3877 1.5
      vertex 18.6 -12 1.5
    endloop
  endfacet
  facet normal -0 0 1
    outer loop
      vertex 18.1314 10.8686 1.5
      vertex 18.4782 -11.3877 1.5
      vertex 18.4782 11.3877 1.5
    endloop
  endfacet
  facet normal 0 0 1
    outer loop
      vertex 18.1314 10.8686 1.5
      vertex 18.1314 -10.8686 1.5
      vertex 18.4782 -11.3877 1.5
    endloop
  endfacet
  facet normal -0 0 1
    outer loop
      vertex 17.6123 10.5218 1.5
      vertex 18.1314 -10.8686 1.5
      vertex 18.1314 10.8686 1.5
    endloop
  endfacet
  facet normal 0 0 1
    outer loop
      vertex 17.6123 10.5218 1.5
      vertex 17.6123 -10.5218 1.5
      vertex 18.1314 -10.8686 1.5
    endloop
  endfacet
  facet normal -0 0 1
    outer loop
      vertex 17 10.4 1.5
      vertex 17.6123 -10.5218 1.5
      vertex 17.6123 10.5218 1.5
    endloop
  endfacet
  facet normal 0 0 1
    outer loop
      vertex 17 10.4 1.5
      vertex 17 -10.4 1.5
      vertex 17.6123 -10.5218 1.5
    endloop
  endfacet
  facet normal 0 0 1
    outer loop
      vertex 16.3877 10.5218 1.5
      vertex 17 -10.4 1.5
      vertex 17 10.4 1.5
    endloop
  endfacet
  facet normal 0 0 1
    outer loop
      vertex 16.3877 10.5218 1.5
      vertex 16.3877 -10.5218 1.5
      vertex 17 -10.4 1.5
    endloop
  endfacet
  facet normal 0 0 1
    outer loop
      vertex 15.8686 10.8686 1.5
      vertex 16.3877 -10.5218 1.5
      vertex 16.3877 10.5218 1.5
    endloop
  endfacet
  facet normal 0 0 1
    outer loop
      vertex 15.8686 10.8686 1.5
      vertex 15.8686 -10.8686 1.5
      vertex 16.3877 -10.5218 1.5
    endloop
  endfacet
  facet normal 0 0 1
    outer loop
      vertex -15.5218 11.3877 1.5
      vertex 15.5218 11.3877 1.5
      vertex -15.4 12 1.5
    endloop
  endfacet
  facet normal 0 0 1
    outer loop
      vertex 15.5218 11.3877 1.5
      vertex -15.5218 11.3877 1.5
      vertex 15.8686 10.8686 1.5
    endloop
  endfacet
  facet normal -0 0 1
    outer loop
      vertex -15.4 12 1.5
      vertex 15.5218 11.3877 1.5
      vertex 15.4 12 1.5
    endloop
  endfacet
  facet normal 0 0 1
    outer loop
      vertex -15.8686 10.8686 1.5
      vertex 15.8686 10.8686 1.5
      vertex -15.5218 11.3877 1.5
    endloop
  endfacet
  facet normal 0 0 1
    outer loop
      vertex 18.4782 11.3877 1.5
      vertex 24 19 1.5
      vertex 18.6 12 1.5
    endloop
  endfacet
  facet normal 0 0 1
    outer loop
      vertex 24 19 1.5
      vertex 18.4782 12.6123 1.5
      vertex 18.6 12 1.5
    endloop
  endfacet
  facet normal 0 0 1
    outer loop
      vertex 24 19 1.5
      vertex 18.1314 13.1314 1.5
      vertex 18.4782 12.6123 1.5
    endloop
  endfacet
  facet normal 0 0 1
    outer loop
      vertex 24 19 1.5
      vertex 17.6123 13.4782 1.5
      vertex 18.1314 13.1314 1.5
    endloop
  endfacet
  facet normal 0 0 1
    outer loop
      vertex 24 19 1.5
      vertex 17 13.6 1.5
      vertex 17.6123 13.4782 1.5
    endloop
  endfacet
  facet normal 0 0 1
    outer loop
      vertex 24 19 1.5
      vertex 16.3877 13.4782 1.5
      vertex 17 13.6 1.5
    endloop
  endfacet
  facet normal 0 0 1
    outer loop
      vertex -16.3877 13.4782 1.5
      vertex 16.3877 13.4782 1.5
      vertex 24 19 1.5
    endloop
  endfacet
  facet normal 0 0 1
    outer loop
      vertex 15.8686 -10.8686 1.5
      vertex -15.4 -12 1.5
      vertex 15.5218 -11.3877 1.5
    endloop
  endfacet
  facet normal 0 0 1
    outer loop
      vertex 15.5218 12.6123 1.5
      vertex -15.4 12 1.5
      vertex 15.4 12 1.5
    endloop
  endfacet
  facet normal 0 0 1
    outer loop
      vertex -15.5218 12.6123 1.5
      vertex 15.5218 12.6123 1.5
      vertex 15.8686 13.1314 1.5
    endloop
  endfacet
  facet normal 0 0 1
    outer loop
      vertex 16.3877 13.4782 1.5
      vertex -16.3877 13.4782 1.5
      vertex 15.8686 13.1314 1.5
    endloop
  endfacet
  facet normal 0 0 1
    outer loop
      vertex 15.5218 12.6123 1.5
      vertex -15.5218 12.6123 1.5
      vertex -15.4 12 1.5
    endloop
  endfacet
  facet normal 0 0 1
    outer loop
      vertex 15.8686 13.1314 1.5
      vertex -15.8686 13.1314 1.5
      vertex -15.5218 12.6123 1.5
    endloop
  endfacet
  facet normal 0 0 1
    outer loop
      vertex 15.8686 13.1314 1.5
      vertex -16.3877 13.4782 1.5
      vertex -15.8686 13.1314 1.5
    endloop
  endfacet
  facet normal -0 0 1
    outer loop
      vertex -24 19 1.5
      vertex -16.3877 13.4782 1.5
      vertex 24 19 1.5
    endloop
  endfacet
  facet normal 0 0 1
    outer loop
      vertex -24 -19 1.5
      vertex -18.4782 -11.3877 1.5
      vertex -24 19 1.5
    endloop
  endfacet
  facet normal 0 0 1
    outer loop
      vertex -18.4782 12.6123 1.5
      vertex -24 19 1.5
      vertex -18.6 12 1.5
    endloop
  endfacet
  facet normal 0 0 1
    outer loop
      vertex -18.1314 13.1314 1.5
      vertex -24 19 1.5
      vertex -18.4782 12.6123 1.5
    endloop
  endfacet
  facet normal 0 0 1
    outer loop
      vertex -17.6123 13.4782 1.5
      vertex -24 19 1.5
      vertex -18.1314 13.1314 1.5
    endloop
  endfacet
  facet normal 0 0 1
    outer loop
      vertex -17 13.6 1.5
      vertex -24 19 1.5
      vertex -17.6123 13.4782 1.5
    endloop
  endfacet
  facet normal 0 0 1
    outer loop
      vertex -16.3877 13.4782 1.5
      vertex -24 19 1.5
      vertex -17 13.6 1.5
    endloop
  endfacet
  facet normal 0 0 1
    outer loop
      vertex 24 19 1.5
      vertex 18.4782 11.3877 1.5
      vertex 24 -19 1.5
    endloop
  endfacet
  facet normal -0 0 1
    outer loop
      vertex 18.4782 -12.6123 1.5
      vertex 24 -19 1.5
      vertex 18.6 -12 1.5
    endloop
  endfacet
  facet normal -0 0 1
    outer loop
      vertex 18.1314 -13.1314 1.5
      vertex 24 -19 1.5
      vertex 18.4782 -12.6123 1.5
    endloop
  endfacet
  facet normal -0 0 1
    outer loop
      vertex 17.6123 -13.4782 1.5
      vertex 24 -19 1.5
      vertex 18.1314 -13.1314 1.5
    endloop
  endfacet
  facet normal -0 0 1
    outer loop
      vertex 17 -13.6 1.5
      vertex 24 -19 1.5
      vertex 17.6123 -13.4782 1.5
    endloop
  endfacet
  facet normal 0 0 1
    outer loop
      vertex 16.3877 -13.4782 1.5
      vertex 24 -19 1.5
      vertex 17 -13.6 1.5
    endloop
  endfacet
  facet normal 0 0 1
    outer loop
      vertex -16.3877 -13.4782 1.5
      vertex 16.3877 -13.4782 1.5
      vertex 15.8686 -13.1314 1.5
    endloop
  endfacet
  facet normal 0 0 1
    outer loop
      vertex 15.5218 -11.3877 1.5
      vertex -15.4 -12 1.5
      vertex 15.4 -12 1.5
    endloop
  endfacet
  facet normal 0 0 1
    outer loop
      vertex 15.4 -12 1.5
      vertex -15.4 -12 1.5
      vertex 15.5218 -12.6123 1.5
    endloop
  endfacet
  facet normal 0 0 1
    outer loop
      vertex -15.5218 -12.6123 1.5
      vertex 15.5218 -12.6123 1.5
      vertex -15.4 -12 1.5
    endloop
  endfacet
  facet normal 0 0 1
    outer loop
      vertex 15.5218 -12.6123 1.5
      vertex -15.5218 -12.6123 1.5
      vertex 15.8686 -13.1314 1.5
    endloop
  endfacet
  facet normal 0 0 1
    outer loop
      vertex -15.8686 -13.1314 1.5
      vertex 15.8686 -13.1314 1.5
      vertex -15.5218 -12.6123 1.5
    endloop
  endfacet
  facet normal 0 0 1
    outer loop
      vertex -16.3877 -13.4782 1.5
      vertex 15.8686 -13.1314 1.5
      vertex -15.8686 -13.1314 1.5
    endloop
  endfacet
  facet normal 0 0 1
    outer loop
      vertex 16.3877 -13.4782 1.5
      vertex -16.3877 -13.4782 1.5
      vertex 24 -19 1.5
    endloop
  endfacet
  facet normal 0 0 1
    outer loop
      vertex -24 -19 1.5
      vertex -16.3877 -13.4782 1.5
      vertex -17 -13.6 1.5
    endloop
  endfacet
  facet normal 0 0 1
    outer loop
      vertex -16.3877 -13.4782 1.5
      vertex -24 -19 1.5
      vertex 24 -19 1.5
    endloop
  endfacet
  facet normal 0 0 1
    outer loop
      vertex -17.6123 -13.4782 1.5
      vertex -24 -19 1.5
      vertex -17 -13.6 1.5
    endloop
  endfacet
  facet normal 0 0 1
    outer loop
      vertex -18.1314 -13.1314 1.5
      vertex -24 -19 1.5
      vertex -17.6123 -13.4782 1.5
    endloop
  endfacet
  facet normal 0 0 1
    outer loop
      vertex -18.4782 -12.6123 1.5
      vertex -24 -19 1.5
      vertex -18.1314 -13.1314 1.5
    endloop
  endfacet
  facet normal 0 0 1
    outer loop
      vertex -18.6 -12 1.5
      vertex -24 -19 1.5
      vertex -18.4782 -12.6123 1.5
    endloop
  endfacet
  facet normal 0 0 1
    outer loop
      vertex -18.4782 -11.3877 1.5
      vertex -24 -19 1.5
      vertex -18.6 -12 1.5
    endloop
  endfacet
  facet normal 0 0 -1
    outer loop
      vertex 24 -19 -1.5
      vertex 20 -15 -1.5
      vertex 24 19 -1.5
    endloop
  endfacet
  facet normal 0 0 -1
    outer loop
      vertex 24 -19 -1.5
      vertex -20 -15 -1.5
      vertex 20 -15 -1.5
    endloop
  endfacet
  facet normal -0 0 -1
    outer loop
      vertex -20 -15 -1.5
      vertex -24 -19 -1.5
      vertex -20 15 -1.5
    endloop
  endfacet
  facet normal 0 0 -1
    outer loop
      vertex -24 -19 -1.5
      vertex -20 -15 -1.5
      vertex 24 -19 -1.5
    endloop
  endfacet
  facet normal 0 0 -1
    outer loop
      vertex 20 15 -1.5
      vertex 24 19 -1.5
      vertex 20 -15 -1.5
    endloop
  endfacet
  facet normal 0 0 -1
    outer loop
      vertex -20 15 -1.5
      vertex 24 19 -1.5
      vertex 20 15 -1.5
    endloop
  endfacet
  facet normal 0 0 -1
    outer loop
      vertex -20 15 -1.5
      vertex -24 19 -1.5
      vertex 24 19 -1.5
    endloop
  endfacet
  facet normal 0 0 -1
    outer loop
      vertex -24 19 -1.5
      vertex -20 15 -1.5
      vertex -24 -19 -1.5
    endloop
  endfacet
  facet normal -1 0 0
    outer loop
      vertex -24 -19 -1.5
      vertex -24 19 1.5
      vertex -24 19 -1.5
    endloop
  endfacet
  facet normal -1 -0 0
    outer loop
      vertex -24 19 1.5
      vertex -24 -19 -1.5
      vertex -24 -19 1.5
    endloop
  endfacet
  facet normal 0 1 -0
    outer loop
      vertex 24 19 -1.5
      vertex -24 19 1.5
      vertex 24 19 1.5
    endloop
  endfacet
  facet normal 0 1 0
    outer loop
      vertex -24 19 1.5
      vertex 24 19 -1.5
      vertex -24 19 -1.5
    endloop
  endfacet
  facet normal 0 -1 0
    outer loop
      vertex -24 -19 -1.5
      vertex 24 -19 1.5
      vertex -24 -19 1.5
    endloop
  endfacet
  facet normal 0 -1 -0
    outer loop
      vertex 24 -19 1.5
      vertex -24 -19 -1.5
      vertex 24 -19 -1.5
    endloop
  endfacet
  facet normal -1 0 0
    outer loop
      vertex 20 -15 -1.5
      vertex 20 15 -1
      vertex 20 15 -1.5
    endloop
  endfacet
  facet normal -1 -0 0
    outer loop
      vertex 20 15 -1
      vertex 20 -15 -1.5
      vertex 20 -15 -1
    endloop
  endfacet
  facet normal 0 0 -1
    outer loop
      vertex 15.8686 -10.8686 -1
      vertex -15.8686 -10.8686 -1
      vertex 15.8686 10.8686 -1
    endloop
  endfacet
  facet normal 0 0 -1
    outer loop
      vertex 15.8686 10.8686 -1
      vertex -15.5218 11.3877 -1
      vertex -15.4 12 -1
    endloop
  endfacet
  facet normal 0 0 -1
    outer loop
      vertex -15.8686 10.8686 -1
      vertex 15.8686 10.8686 -1
      vertex -15.8686 -10.8686 -1
    endloop
  endfacet
  facet normal 0 0 -1
    outer loop
      vertex 15.8686 10.8686 -1
      vertex -15.8686 10.8686 -1
      vertex -15.5218 11.3877 -1
    endloop
  endfacet
  facet normal 0 0 -1
    outer loop
      vertex -16.3877 -10.5218 -1
      vertex -15.8686 10.8686 -1
      vertex -15.8686 -10.8686 -1
    endloop
  endfacet
  facet normal 0 0 -1
    outer loop
      vertex -16.3877 -10.5218 -1
      vertex -16.3877 10.5218 -1
      vertex -15.8686 10.8686 -1
    endloop
  endfacet
  facet normal 0 0 -1
    outer loop
      vertex -17 -10.4 -1
      vertex -16.3877 10.5218 -1
      vertex -16.3877 -10.5218 -1
    endloop
  endfacet
  facet normal 0 0 -1
    outer loop
      vertex -17 -10.4 -1
      vertex -17 10.4 -1
      vertex -16.3877 10.5218 -1
    endloop
  endfacet
  facet normal 0 0 -1
    outer loop
      vertex -17.6123 -10.5218 -1
      vertex -17 10.4 -1
      vertex -17 -10.4 -1
    endloop
  endfacet
  facet normal 0 0 -1
    outer loop
      vertex -17.6123 -10.5218 -1
      vertex -17.6123 10.5218 -1
      vertex -17 10.4 -1
    endloop
  endfacet
  facet normal 0 0 -1
    outer loop
      vertex -18.1314 -10.8686 -1
      vertex -17.6123 10.5218 -1
      vertex -17.6123 -10.5218 -1
    endloop
  endfacet
  facet normal 0 0 -1
    outer loop
      vertex -18.1314 -10.8686 -1
      vertex -18.1314 10.8686 -1
      vertex -17.6123 10.5218 -1
    endloop
  endfacet
  facet normal 0 0 -1
    outer loop
      vertex -18.4782 -11.3877 -1
      vertex -18.1314 10.8686 -1
      vertex -18.1314 -10.8686 -1
    endloop
  endfacet
  facet normal 0 0 -1
    outer loop
      vertex -18.4782 -11.3877 -1
      vertex -18.4782 11.3877 -1
      vertex -18.1314 10.8686 -1
    endloop
  endfacet
  facet normal 0 0 -1
    outer loop
      vertex -20 -15 -1
      vertex -18.4782 -11.3877 -1
      vertex -18.6 -12 -1
    endloop
  endfacet
  facet normal -0 0 -1
    outer loop
      vertex -18.4782 -11.3877 -1
      vertex -20 -15 -1
      vertex -18.4782 11.3877 -1
    endloop
  endfacet
  facet normal 0 0 -1
    outer loop
      vertex 18.4782 11.3877 -1
      vertex 20 15 -1
      vertex 18.4782 -11.3877 -1
    endloop
  endfacet
  facet normal 0 0 -1
    outer loop
      vertex 20 15 -1
      vertex 18.4782 11.3877 -1
      vertex 18.6 12 -1
    endloop
  endfacet
  facet normal 0 0 -1
    outer loop
      vertex 18.1314 -10.8686 -1
      vertex 18.4782 11.3877 -1
      vertex 18.4782 -11.3877 -1
    endloop
  endfacet
  facet normal 0 0 -1
    outer loop
      vertex 18.1314 -10.8686 -1
      vertex 18.1314 10.8686 -1
      vertex 18.4782 11.3877 -1
    endloop
  endfacet
  facet normal 0 0 -1
    outer loop
      vertex 17.6123 -10.5218 -1
      vertex 18.1314 10.8686 -1
      vertex 18.1314 -10.8686 -1
    endloop
  endfacet
  facet normal 0 0 -1
    outer loop
      vertex 17.6123 -10.5218 -1
      vertex 17.6123 10.5218 -1
      vertex 18.1314 10.8686 -1
    endloop
  endfacet
  facet normal 0 0 -1
    outer loop
      vertex 17 -10.4 -1
      vertex 17.6123 10.5218 -1
      vertex 17.6123 -10.5218 -1
    endloop
  endfacet
  facet normal 0 0 -1
    outer loop
      vertex 17 -10.4 -1
      vertex 17 10.4 -1
      vertex 17.6123 10.5218 -1
    endloop
  endfacet
  facet normal 0 0 -1
    outer loop
      vertex 16.3877 -10.5218 -1
      vertex 17 10.4 -1
      vertex 17 -10.4 -1
    endloop
  endfacet
  facet normal 0 0 -1
    outer loop
      vertex 16.3877 -10.5218 -1
      vertex 16.3877 10.5218 -1
      vertex 17 10.4 -1
    endloop
  endfacet
  facet normal 0 0 -1
    outer loop
      vertex 15.8686 -10.8686 -1
      vertex 16.3877 10.5218 -1
      vertex 16.3877 -10.5218 -1
    endloop
  endfacet
  facet normal 0 0 -1
    outer loop
      vertex 15.8686 -10.8686 -1
      vertex 15.8686 10.8686 -1
      vertex 16.3877 10.5218 -1
    endloop
  endfacet
  facet normal 0 0 -1
    outer loop
      vertex -15.5218 -11.3877 -1
      vertex 15.5218 -11.3877 -1
      vertex -15.4 -12 -1
    endloop
  endfacet
  facet normal 0 0 -1
    outer loop
      vertex 15.5218 -11.3877 -1
      vertex -15.5218 -11.3877 -1
      vertex 15.8686 -10.8686 -1
    endloop
  endfacet
  facet normal 0 0 -1
    outer loop
      vertex -15.4 -12 -1
      vertex 15.5218 -11.3877 -1
      vertex 15.4 -12 -1
    endloop
  endfacet
  facet normal 0 0 -1
    outer loop
      vertex -15.8686 -10.8686 -1
      vertex 15.8686 -10.8686 -1
      vertex -15.5218 -11.3877 -1
    endloop
  endfacet
  facet normal 0 0 -1
    outer loop
      vertex 18.4782 -11.3877 -1
      vertex 20 -15 -1
      vertex 18.6 -12 -1
    endloop
  endfacet
  facet normal 0 0 -1
    outer loop
      vertex 20 -15 -1
      vertex 18.4782 -12.6123 -1
      vertex 18.6 -12 -1
    endloop
  endfacet
  facet normal 0 0 -1
    outer loop
      vertex 20 -15 -1
      vertex 18.1314 -13.1314 -1
      vertex 18.4782 -12.6123 -1
    endloop
  endfacet
  facet normal 0 0 -1
    outer loop
      vertex 20 -15 -1
      vertex 17.6123 -13.4782 -1
      vertex 18.1314 -13.1314 -1
    endloop
  endfacet
  facet normal 0 0 -1
    outer loop
      vertex 20 -15 -1
      vertex 17 -13.6 -1
      vertex 17.6123 -13.4782 -1
    endloop
  endfacet
  facet normal 0 0 -1
    outer loop
      vertex 20 -15 -1
      vertex 16.3877 -13.4782 -1
      vertex 17 -13.6 -1
    endloop
  endfacet
  facet normal 0 0 -1
    outer loop
      vertex 15.8686 10.8686 -1
      vertex -15.4 12 -1
      vertex 15.5218 11.3877 -1
    endloop
  endfacet
  facet normal 0 0 -1
    outer loop
      vertex 15.5218 -12.6123 -1
      vertex -15.4 -12 -1
      vertex 15.4 -12 -1
    endloop
  endfacet
  facet normal 0 0 -1
    outer loop
      vertex -15.5218 -12.6123 -1
      vertex 15.5218 -12.6123 -1
      vertex 15.8686 -13.1314 -1
    endloop
  endfacet
  facet normal 0 0 -1
    outer loop
      vertex -15.8686 -13.1314 -1
      vertex 15.8686 -13.1314 -1
      vertex 16.3877 -13.4782 -1
    endloop
  endfacet
  facet normal 0 0 -1
    outer loop
      vertex -16.3877 -13.4782 -1
      vertex 16.3877 -13.4782 -1
      vertex 20 -15 -1
    endloop
  endfacet
  facet normal 0 0 -1
    outer loop
      vertex 15.5218 -12.6123 -1
      vertex -15.5218 -12.6123 -1
      vertex -15.4 -12 -1
    endloop
  endfacet
  facet normal 0 0 -1
    outer loop
      vertex 15.8686 -13.1314 -1
      vertex -15.8686 -13.1314 -1
      vertex -15.5218 -12.6123 -1
    endloop
  endfacet
  facet normal 0 0 -1
    outer loop
      vertex 16.3877 -13.4782 -1
      vertex -16.3877 -13.4782 -1
      vertex -15.8686 -13.1314 -1
    endloop
  endfacet
  facet normal 0 0 -1
    outer loop
      vertex -20 -15 -1
      vertex -16.3877 -13.4782 -1
      vertex 20 -15 -1
    endloop
  endfacet
  facet normal 0 0 -1
    outer loop
      vertex -20 15 -1
      vertex -18.4782 11.3877 -1
      vertex -20 -15 -1
    endloop
  endfacet
  facet normal -0 0 -1
    outer loop
      vertex -18.4782 -12.6123 -1
      vertex -20 -15 -1
      vertex -18.6 -12 -1
    endloop
  endfacet
  facet normal -0 0 -1
    outer loop
      vertex -18.1314 -13.1314 -1
      vertex -20 -15 -1
      vertex -18.4782 -12.6123 -1
    endloop
  endfacet
  facet normal -0 0 -1
    outer loop
      vertex -17.6123 -13.4782 -1
      vertex -20 -15 -1
      vertex -18.1314 -13.1314 -1
    endloop
  endfacet
  facet normal -0 0 -1
    outer loop
      vertex -17 -13.6 -1
      vertex -20 -15 -1
      vertex -17.6123 -13.4782 -1
    endloop
  endfacet
  facet normal 0 0 -1
    outer loop
      vertex -16.3877 -13.4782 -1
      vertex -20 -15 -1
      vertex -17 -13.6 -1
    endloop
  endfacet
  facet normal 0 0 -1
    outer loop
      vertex 20 -15 -1
      vertex 18.4782 -11.3877 -1
      vertex 20 15 -1
    endloop
  endfacet
  facet normal 0 0 -1
    outer loop
      vertex 18.4782 12.6123 -1
      vertex 20 15 -1
      vertex 18.6 12 -1
    endloop
  endfacet
  facet normal 0 0 -1
    outer loop
      vertex 18.1314 13.1314 -1
      vertex 20 15 -1
      vertex 18.4782 12.6123 -1
    endloop
  endfacet
  facet normal 0 0 -1
    outer loop
      vertex 17.6123 13.4782 -1
      vertex 20 15 -1
      vertex 18.1314 13.1314 -1
    endloop
  endfacet
  facet normal 0 0 -1
    outer loop
      vertex 17 13.6 -1
      vertex 20 15 -1
      vertex 17.6123 13.4782 -1
    endloop
  endfacet
  facet normal 0 0 -1
    outer loop
      vertex 16.3877 13.4782 -1
      vertex 20 15 -1
      vertex 17 13.6 -1
    endloop
  endfacet
  facet normal 0 0 -1
    outer loop
      vertex 15.5218 11.3877 -1
      vertex -15.4 12 -1
      vertex 15.4 12 -1
    endloop
  endfacet
  facet normal 0 0 -1
    outer loop
      vertex 15.4 12 -1
      vertex -15.4 12 -1
      vertex 15.5218 12.6123 -1
    endloop
  endfacet
  facet normal 0 0 -1
    outer loop
      vertex -15.5218 12.6123 -1
      vertex 15.5218 12.6123 -1
      vertex -15.4 12 -1
    endloop
  endfacet
  facet normal 0 0 -1
    outer loop
      vertex 15.5218 12.6123 -1
      vertex -15.5218 12.6123 -1
      vertex 15.8686 13.1314 -1
    endloop
  endfacet
  facet normal 0 0 -1
    outer loop
      vertex -15.8686 13.1314 -1
      vertex 15.8686 13.1314 -1
      vertex -15.5218 12.6123 -1
    endloop
  endfacet
  facet normal 0 0 -1
    outer loop
      vertex 15.8686 13.1314 -1
      vertex -15.8686 13.1314 -1
      vertex 16.3877 13.4782 -1
    endloop
  endfacet
  facet normal 0 0 -1
    outer loop
      vertex -16.3877 13.4782 -1
      vertex 16.3877 13.4782 -1
      vertex -15.8686 13.1314 -1
    endloop
  endfacet
  facet normal 0 0 -1
    outer loop
      vertex 16.3877 13.4782 -1
      vertex -16.3877 13.4782 -1
      vertex 20 15 -1
    endloop
  endfacet
  facet normal 0 0 -1
    outer loop
      vertex -20 15 -1
      vertex -16.3877 13.4782 -1
      vertex -17 13.6 -1
    endloop
  endfacet
  facet normal 0 0 -1
    outer loop
      vertex -16.3877 13.4782 -1
      vertex -20 15 -1
      vertex 20 15 -1
    endloop
  endfacet
  facet normal 0 0 -1
    outer loop
      vertex -17.6123 13.4782 -1
      vertex -20 15 -1
      vertex -17 13.6 -1
    endloop
  endfacet
  facet normal 0 0 -1
    outer loop
      vertex -18.1314 13.1314 -1
      vertex -20 15 -1
      vertex -17.6123 13.4782 -1
    endloop
  endfacet
  facet normal 0 0 -1
    outer loop
      vertex -18.4782 12.6123 -1
      vertex -20 15 -1
      vertex -18.1314 13.1314 -1
    endloop
  endfacet
  facet normal 0 0 -1
    outer loop
      vertex -18.6 12 -1
      vertex -20 15 -1
      vertex -18.4782 12.6123 -1
    endloop
  endfacet
  facet normal 0 0 -1
    outer loop
      vertex -18.4782 11.3877 -1
      vertex -20 15 -1
      vertex -18.6 12 -1
    endloop
  endfacet
  facet normal 1 -0 0
    outer loop
      vertex -20 -15 -1
      vertex -20 15 -1.5
      vertex -20 15 -1
    endloop
  endfacet
  facet normal 1 0 0
    outer loop
      vertex -20 15 -1.5
      vertex -20 -15 -1
      vertex -20 -15 -1.5
    endloop
  endfacet
  facet normal 0 -1 0
    outer loop
      vertex -20 15 -1.5
      vertex 20 15 -1
      vertex -20 15 -1
    endloop
  endfacet
  facet normal 0 -1 -0
    outer loop
      vertex 20 15 -1
      vertex -20 15 -1.5
      vertex 20 15 -1.5
    endloop
  endfacet
  facet normal 0 1 -0
    outer loop
      vertex 20 -15 -1.5
      vertex -20 -15 -1
      vertex 20 -15 -1
    endloop
  endfacet
  facet normal 0 1 0
    outer loop
      vertex -20 -15 -1
      vertex 20 -15 -1.5
      vertex -20 -15 -1.5
    endloop
  endfacet
endsolid OpenSCAD_Model
