solid OpenSCAD_Model
  facet normal -1 0 0
    outer loop
      vertex 4.8 -11.9619 22.5
      vertex 4.8 -10 37.5
      vertex 4.8 -10 22.5
    endloop
  endfacet
  facet normal -1 -0 0
    outer loop
      vertex 4.8 -10 37.5
      vertex 4.8 -11.9619 22.5
      vertex 4.8 -11.9619 37.5
    endloop
  endfacet
  facet normal 0 0 -1
    outer loop
      vertex -4.8 -11.9619 37.5
      vertex 4.8 -10 37.5
      vertex 4.8 -11.9619 37.5
    endloop
  endfacet
  facet normal -0 0 -1
    outer loop
      vertex 4.8 -10 37.5
      vertex -4.8 -11.9619 37.5
      vertex -4.8 -10 37.5
    endloop
  endfacet
  facet normal -0 0 1
    outer loop
      vertex -4.8 -10 22.5
      vertex 4.8 -11.9619 22.5
      vertex 4.8 -10 22.5
    endloop
  endfacet
  facet normal 0 0 1
    outer loop
      vertex 4.8 -11.9619 22.5
      vertex -4.8 -10 22.5
      vertex -4.8 -11.9619 22.5
    endloop
  endfacet
  facet normal 1 -0 0
    outer loop
      vertex -4.8 -11.9619 37.5
      vertex -4.8 -10 22.5
      vertex -4.8 -10 37.5
    endloop
  endfacet
  facet normal 1 0 0
    outer loop
      vertex -4.8 -10 22.5
      vertex -4.8 -11.9619 37.5
      vertex -4.8 -11.9619 22.5
    endloop
  endfacet
  facet normal 0 1 0
    outer loop
      vertex 10 -10 49.9619
      vertex 4.8 -10 37.5
      vertex -10 -10 49.9619
    endloop
  endfacet
  facet normal 0 1 0
    outer loop
      vertex 10 -10 49.9619
      vertex 4.8 -10 22.5
      vertex 4.8 -10 37.5
    endloop
  endfacet
  facet normal 0 1 0
    outer loop
      vertex 4.8 -10 22.5
      vertex 10 -10 3
      vertex -4.8 -10 22.5
    endloop
  endfacet
  facet normal 0 1 -0
    outer loop
      vertex 10 -10 3
      vertex 4.8 -10 22.5
      vertex 10 -10 49.9619
    endloop
  endfacet
  facet normal 0 1 -0
    outer loop
      vertex -4.8 -10 37.5
      vertex -10 -10 49.9619
      vertex 4.8 -10 37.5
    endloop
  endfacet
  facet normal 0 1 -0
    outer loop
      vertex -4.8 -10 22.5
      vertex -10 -10 49.9619
      vertex -4.8 -10 37.5
    endloop
  endfacet
  facet normal 0 1 0
    outer loop
      vertex -4.8 -10 22.5
      vertex -10 -10 3
      vertex -10 -10 49.9619
    endloop
  endfacet
  facet normal 0 1 0
    outer loop
      vertex -10 -10 3
      vertex -4.8 -10 22.5
      vertex 10 -10 3
    endloop
  endfacet
  facet normal -1 0 0
    outer loop
      vertex 4.8 10 22.5
      vertex 4.8 11.9619 37.5
      vertex 4.8 11.9619 22.5
    endloop
  endfacet
  facet normal -1 -0 0
    outer loop
      vertex 4.8 11.9619 37.5
      vertex 4.8 10 22.5
      vertex 4.8 10 37.5
    endloop
  endfacet
  facet normal 0 0 -1
    outer loop
      vertex -4.8 10 37.5
      vertex 4.8 11.9619 37.5
      vertex 4.8 10 37.5
    endloop
  endfacet
  facet normal -0 0 -1
    outer loop
      vertex 4.8 11.9619 37.5
      vertex -4.8 10 37.5
      vertex -4.8 11.9619 37.5
    endloop
  endfacet
  facet normal -0 0 1
    outer loop
      vertex -4.8 11.9619 22.5
      vertex 4.8 10 22.5
      vertex 4.8 11.9619 22.5
    endloop
  endfacet
  facet normal 0 0 1
    outer loop
      vertex 4.8 10 22.5
      vertex -4.8 11.9619 22.5
      vertex -4.8 10 22.5
    endloop
  endfacet
  facet normal 1 -0 0
    outer loop
      vertex -4.8 10 37.5
      vertex -4.8 11.9619 22.5
      vertex -4.8 11.9619 37.5
    endloop
  endfacet
  facet normal 1 0 0
    outer loop
      vertex -4.8 11.9619 22.5
      vertex -4.8 10 37.5
      vertex -4.8 10 22.5
    endloop
  endfacet
  facet normal 0 -1 0
    outer loop
      vertex -10 10 49.9619
      vertex -4.8 10 37.5
      vertex 10 10 49.9619
    endloop
  endfacet
  facet normal 0 -1 0
    outer loop
      vertex -10 10 49.9619
      vertex -4.8 10 22.5
      vertex -4.8 10 37.5
    endloop
  endfacet
  facet normal 0 -1 -0
    outer loop
      vertex -4.8 10 22.5
      vertex -10 10 3
      vertex 4.8 10 22.5
    endloop
  endfacet
  facet normal 0 -1 0
    outer loop
      vertex -10 10 3
      vertex -4.8 10 22.5
      vertex -10 10 49.9619
    endloop
  endfacet
  facet normal 0 -1 0
    outer loop
      vertex 4.8 10 37.5
      vertex 10 10 49.9619
      vertex -4.8 10 37.5
    endloop
  endfacet
  facet normal 0 -1 0
    outer loop
      vertex 4.8 10 22.5
      vertex 10 10 49.9619
      vertex 4.8 10 37.5
    endloop
  endfacet
  facet normal 0 -1 0
    outer loop
      vertex 4.8 10 22.5
      vertex 10 10 3
      vertex 10 10 49.9619
    endloop
  endfacet
  facet normal 0 -1 0
    outer loop
      vertex 10 10 3
      vertex 4.8 10 22.5
      vertex -10 10 3
    endloop
  endfacet
  facet normal 0.280944 0.67878 0.678475
    outer loop
      vertex 11.8266 11.8266 49.6913
      vertex 11.5 11.6913 49.9619
      vertex 11.6353 11.6353 49.9619
    endloop
  endfacet
  facet normal 0.67878 0.280944 0.678475
    outer loop
      vertex 11.8266 11.8266 49.6913
      vertex 11.6353 11.6353 49.9619
      vertex 11.6913 11.5 49.9619
    endloop
  endfacet
  facet normal -0.923862 0.382727 0
    outer loop
      vertex -11.9619 11.5 0.308659
      vertex -11.8266 11.8266 49.6913
      vertex -11.8266 11.8266 0.308659
    endloop
  endfacet
  facet normal -0.923862 0.382727 0
    outer loop
      vertex -11.8266 11.8266 49.6913
      vertex -11.9619 11.5 0.308659
      vertex -11.9619 11.5 49.6913
    endloop
  endfacet
  facet normal -0.678589 -0.281118 -0.678594
    outer loop
      vertex -11.8266 -11.8266 0.308659
      vertex -11.9619 -11.5 0.308659
      vertex -11.6913 -11.5 0.0380611
    endloop
  endfacet
  facet normal 0 1 0
    outer loop
      vertex 11.5 11.9619 49.6913
      vertex 4.8 11.9619 37.5
      vertex -11.5 11.9619 49.6913
    endloop
  endfacet
  facet normal 0 1 0
    outer loop
      vertex 11.5 11.9619 49.6913
      vertex 4.8 11.9619 22.5
      vertex 4.8 11.9619 37.5
    endloop
  endfacet
  facet normal 0 1 0
    outer loop
      vertex 4.8 11.9619 22.5
      vertex 11.5 11.9619 0.308659
      vertex -4.8 11.9619 22.5
    endloop
  endfacet
  facet normal 0 1 -0
    outer loop
      vertex 11.5 11.9619 0.308659
      vertex 4.8 11.9619 22.5
      vertex 11.5 11.9619 49.6913
    endloop
  endfacet
  facet normal 0 1 -0
    outer loop
      vertex -4.8 11.9619 37.5
      vertex -11.5 11.9619 49.6913
      vertex 4.8 11.9619 37.5
    endloop
  endfacet
  facet normal 0 1 -0
    outer loop
      vertex -4.8 11.9619 22.5
      vertex -11.5 11.9619 49.6913
      vertex -4.8 11.9619 37.5
    endloop
  endfacet
  facet normal 0 1 0
    outer loop
      vertex -4.8 11.9619 22.5
      vertex -11.5 11.9619 0.308659
      vertex -11.5 11.9619 49.6913
    endloop
  endfacet
  facet normal 0 1 0
    outer loop
      vertex -11.5 11.9619 0.308659
      vertex -4.8 11.9619 22.5
      vertex 11.5 11.9619 0.308659
    endloop
  endfacet
  facet normal 1 0 0
    outer loop
      vertex 11.9619 11.5 49.6913
      vertex 11.9619 6 30
      vertex 11.9619 11.5 0.308659
    endloop
  endfacet
  facet normal 1 0 0
    outer loop
      vertex 11.9619 11.5 49.6913
      vertex 11.9619 -6 30
      vertex 11.9619 6 30
    endloop
  endfacet
  facet normal 1 0 0
    outer loop
      vertex 11.9619 -11.5 0.308659
      vertex 11.9619 -6 30
      vertex 11.9619 -11.5 49.6913
    endloop
  endfacet
  facet normal 1 -0 0
    outer loop
      vertex 11.9619 -11.5 49.6913
      vertex 11.9619 -6 30
      vertex 11.9619 11.5 49.6913
    endloop
  endfacet
  facet normal 1 -0 0
    outer loop
      vertex 11.9619 6 10
      vertex 11.9619 11.5 0.308659
      vertex 11.9619 6 30
    endloop
  endfacet
  facet normal 1 -0 0
    outer loop
      vertex 11.9619 -6 10
      vertex 11.9619 11.5 0.308659
      vertex 11.9619 6 10
    endloop
  endfacet
  facet normal 1 0 0
    outer loop
      vertex 11.9619 -6 10
      vertex 11.9619 -11.5 0.308659
      vertex 11.9619 11.5 0.308659
    endloop
  endfacet
  facet normal 1 0 0
    outer loop
      vertex 11.9619 -6 30
      vertex 11.9619 -11.5 0.308659
      vertex 11.9619 -6 10
    endloop
  endfacet
  facet normal 0.281118 -0.678589 -0.678594
    outer loop
      vertex 11.8266 -11.8266 0.308659
      vertex 11.5 -11.9619 0.308659
      vertex 11.5 -11.6913 0.0380611
    endloop
  endfacet
  facet normal 0.281119 0.678591 0.678591
    outer loop
      vertex 11.5 11.9619 49.6913
      vertex 11.5 11.6913 49.9619
      vertex 11.8266 11.8266 49.6913
    endloop
  endfacet
  facet normal 0.707107 0 0.707107
    outer loop
      vertex 11.6913 11.5 49.9619
      vertex 11.9619 -11.5 49.6913
      vertex 11.9619 11.5 49.6913
    endloop
  endfacet
  facet normal 0.707107 0 0.707107
    outer loop
      vertex 11.9619 -11.5 49.6913
      vertex 11.6913 11.5 49.9619
      vertex 11.6913 -11.5 49.9619
    endloop
  endfacet
  facet normal 0 -1 0
    outer loop
      vertex -11.5 -11.9619 49.6913
      vertex -4.8 -11.9619 37.5
      vertex 11.5 -11.9619 49.6913
    endloop
  endfacet
  facet normal 0 -1 0
    outer loop
      vertex -11.5 -11.9619 49.6913
      vertex -4.8 -11.9619 22.5
      vertex -4.8 -11.9619 37.5
    endloop
  endfacet
  facet normal 0 -1 -0
    outer loop
      vertex -4.8 -11.9619 22.5
      vertex -11.5 -11.9619 0.308659
      vertex 4.8 -11.9619 22.5
    endloop
  endfacet
  facet normal 0 -1 0
    outer loop
      vertex -11.5 -11.9619 0.308659
      vertex -4.8 -11.9619 22.5
      vertex -11.5 -11.9619 49.6913
    endloop
  endfacet
  facet normal 0 -1 0
    outer loop
      vertex 4.8 -11.9619 37.5
      vertex 11.5 -11.9619 49.6913
      vertex -4.8 -11.9619 37.5
    endloop
  endfacet
  facet normal 0 -1 0
    outer loop
      vertex 4.8 -11.9619 22.5
      vertex 11.5 -11.9619 49.6913
      vertex 4.8 -11.9619 37.5
    endloop
  endfacet
  facet normal 0 -1 0
    outer loop
      vertex 4.8 -11.9619 22.5
      vertex 11.5 -11.9619 0.308659
      vertex 11.5 -11.9619 49.6913
    endloop
  endfacet
  facet normal 0 -1 0
    outer loop
      vertex 11.5 -11.9619 0.308659
      vertex 4.8 -11.9619 22.5
      vertex -11.5 -11.9619 0.308659
    endloop
  endfacet
  facet normal -0.382727 0.923862 0
    outer loop
      vertex -11.5 11.9619 0.308659
      vertex -11.8266 11.8266 49.6913
      vertex -11.5 11.9619 49.6913
    endloop
  endfacet
  facet normal -0.382727 0.923862 0
    outer loop
      vertex -11.8266 11.8266 49.6913
      vertex -11.5 11.9619 0.308659
      vertex -11.8266 11.8266 0.308659
    endloop
  endfacet
  facet normal 0 0.707104 -0.70711
    outer loop
      vertex 11.5 11.6913 0.0380611
      vertex -11.5 11.9619 0.308659
      vertex 11.5 11.9619 0.308659
    endloop
  endfacet
  facet normal 0 0.707104 -0.70711
    outer loop
      vertex -11.5 11.9619 0.308659
      vertex 11.5 11.6913 0.0380611
      vertex -11.5 11.6913 0.0380611
    endloop
  endfacet
  facet normal 0.382727 0.923862 -0
    outer loop
      vertex 11.8266 11.8266 0.308659
      vertex 11.5 11.9619 49.6913
      vertex 11.8266 11.8266 49.6913
    endloop
  endfacet
  facet normal 0.382727 0.923862 0
    outer loop
      vertex 11.5 11.9619 49.6913
      vertex 11.8266 11.8266 0.308659
      vertex 11.5 11.9619 0.308659
    endloop
  endfacet
  facet normal -0.67878 0.280944 0.678475
    outer loop
      vertex -11.6353 11.6353 49.9619
      vertex -11.8266 11.8266 49.6913
      vertex -11.6913 11.5 49.9619
    endloop
  endfacet
  facet normal -0.707107 0 0.707107
    outer loop
      vertex -11.9619 11.5 49.6913
      vertex -11.6913 -11.5 49.9619
      vertex -11.6913 11.5 49.9619
    endloop
  endfacet
  facet normal -0.707107 0 0.707107
    outer loop
      vertex -11.6913 -11.5 49.9619
      vertex -11.9619 11.5 49.6913
      vertex -11.9619 -11.5 49.6913
    endloop
  endfacet
  facet normal -0.280944 0.67878 0.678475
    outer loop
      vertex -11.5 11.6913 49.9619
      vertex -11.8266 11.8266 49.6913
      vertex -11.6353 11.6353 49.9619
    endloop
  endfacet
  facet normal 0.280944 -0.67878 0.678475
    outer loop
      vertex 11.6353 -11.6353 49.9619
      vertex 11.5 -11.6913 49.9619
      vertex 11.8266 -11.8266 49.6913
    endloop
  endfacet
  facet normal -0.67878 -0.280944 0.678475
    outer loop
      vertex -11.6913 -11.5 49.9619
      vertex -11.8266 -11.8266 49.6913
      vertex -11.6353 -11.6353 49.9619
    endloop
  endfacet
  facet normal 0.67878 -0.280944 0.678475
    outer loop
      vertex 11.6913 -11.5 49.9619
      vertex 11.6353 -11.6353 49.9619
      vertex 11.8266 -11.8266 49.6913
    endloop
  endfacet
  facet normal 0.678591 -0.281119 0.678591
    outer loop
      vertex 11.9619 -11.5 49.6913
      vertex 11.6913 -11.5 49.9619
      vertex 11.8266 -11.8266 49.6913
    endloop
  endfacet
  facet normal -0.678591 0.281119 0.678591
    outer loop
      vertex -11.8266 11.8266 49.6913
      vertex -11.9619 11.5 49.6913
      vertex -11.6913 11.5 49.9619
    endloop
  endfacet
  facet normal 0.923862 0.382727 0
    outer loop
      vertex 11.9619 11.5 49.6913
      vertex 11.8266 11.8266 0.308659
      vertex 11.8266 11.8266 49.6913
    endloop
  endfacet
  facet normal 0.923862 0.382727 0
    outer loop
      vertex 11.8266 11.8266 0.308659
      vertex 11.9619 11.5 49.6913
      vertex 11.9619 11.5 0.308659
    endloop
  endfacet
  facet normal -0.678591 -0.281119 0.678591
    outer loop
      vertex -11.6913 -11.5 49.9619
      vertex -11.9619 -11.5 49.6913
      vertex -11.8266 -11.8266 49.6913
    endloop
  endfacet
  facet normal 0.280943 -0.678778 -0.678477
    outer loop
      vertex 11.8266 -11.8266 0.308659
      vertex 11.5 -11.6913 0.0380611
      vertex 11.6353 -11.6353 0.0380611
    endloop
  endfacet
  facet normal 0.923862 -0.382727 0
    outer loop
      vertex 11.8266 -11.8266 49.6913
      vertex 11.9619 -11.5 0.308659
      vertex 11.9619 -11.5 49.6913
    endloop
  endfacet
  facet normal 0.923862 -0.382727 0
    outer loop
      vertex 11.9619 -11.5 0.308659
      vertex 11.8266 -11.8266 49.6913
      vertex 11.8266 -11.8266 0.308659
    endloop
  endfacet
  facet normal -0.281119 0.678591 0.678591
    outer loop
      vertex -11.5 11.9619 49.6913
      vertex -11.8266 11.8266 49.6913
      vertex -11.5 11.6913 49.9619
    endloop
  endfacet
  facet normal -0 0.707107 0.707107
    outer loop
      vertex -11.5 11.9619 49.6913
      vertex 11.5 11.6913 49.9619
      vertex 11.5 11.9619 49.6913
    endloop
  endfacet
  facet normal 0 0.707107 0.707107
    outer loop
      vertex 11.5 11.6913 49.9619
      vertex -11.5 11.9619 49.6913
      vertex -11.5 11.6913 49.9619
    endloop
  endfacet
  facet normal -1 0 0
    outer loop
      vertex -11.9619 -11.5 0.308659
      vertex -11.9619 11.5 49.6913
      vertex -11.9619 11.5 0.308659
    endloop
  endfacet
  facet normal -1 -0 0
    outer loop
      vertex -11.9619 11.5 49.6913
      vertex -11.9619 -11.5 0.308659
      vertex -11.9619 -11.5 49.6913
    endloop
  endfacet
  facet normal -0.923862 -0.382727 0
    outer loop
      vertex -11.8266 -11.8266 0.308659
      vertex -11.9619 -11.5 49.6913
      vertex -11.9619 -11.5 0.308659
    endloop
  endfacet
  facet normal -0.923862 -0.382727 0
    outer loop
      vertex -11.9619 -11.5 49.6913
      vertex -11.8266 -11.8266 0.308659
      vertex -11.8266 -11.8266 49.6913
    endloop
  endfacet
  facet normal 0.281119 -0.678591 0.678591
    outer loop
      vertex 11.5 -11.6913 49.9619
      vertex 11.5 -11.9619 49.6913
      vertex 11.8266 -11.8266 49.6913
    endloop
  endfacet
  facet normal 0.678591 0.281119 0.678591
    outer loop
      vertex 11.8266 11.8266 49.6913
      vertex 11.6913 11.5 49.9619
      vertex 11.9619 11.5 49.6913
    endloop
  endfacet
  facet normal 0 0 1
    outer loop
      vertex 11.5 11.6913 49.9619
      vertex 11.6913 11.5 49.9619
      vertex 11.6353 11.6353 49.9619
    endloop
  endfacet
  facet normal 0 0 1
    outer loop
      vertex 11.6913 11.5 49.9619
      vertex 10 10 49.9619
      vertex 11.6913 -11.5 49.9619
    endloop
  endfacet
  facet normal 0 0 1
    outer loop
      vertex 11.6913 11.5 49.9619
      vertex 11.5 11.6913 49.9619
      vertex 10 10 49.9619
    endloop
  endfacet
  facet normal -0 0 1
    outer loop
      vertex 10 -10 49.9619
      vertex 11.6913 -11.5 49.9619
      vertex 10 10 49.9619
    endloop
  endfacet
  facet normal 0 -0 1
    outer loop
      vertex 11.5 -11.6913 49.9619
      vertex 11.6913 -11.5 49.9619
      vertex 10 -10 49.9619
    endloop
  endfacet
  facet normal 0 0 1
    outer loop
      vertex 11.5 11.6913 49.9619
      vertex -10 10 49.9619
      vertex 10 10 49.9619
    endloop
  endfacet
  facet normal -0 0 1
    outer loop
      vertex -11.6913 11.5 49.9619
      vertex -10 10 49.9619
      vertex -11.5 11.6913 49.9619
    endloop
  endfacet
  facet normal -0 0 1
    outer loop
      vertex -11.5 11.6913 49.9619
      vertex -10 10 49.9619
      vertex 11.5 11.6913 49.9619
    endloop
  endfacet
  facet normal 0 0 1
    outer loop
      vertex 11.6913 -11.5 49.9619
      vertex 11.5 -11.6913 49.9619
      vertex 11.6353 -11.6353 49.9619
    endloop
  endfacet
  facet normal -0 0 1
    outer loop
      vertex -10 -10 49.9619
      vertex 11.5 -11.6913 49.9619
      vertex 10 -10 49.9619
    endloop
  endfacet
  facet normal 0 0 1
    outer loop
      vertex -10 -10 49.9619
      vertex -11.5 -11.6913 49.9619
      vertex 11.5 -11.6913 49.9619
    endloop
  endfacet
  facet normal 0 0 1
    outer loop
      vertex -10 10 49.9619
      vertex -11.6913 11.5 49.9619
      vertex -10 -10 49.9619
    endloop
  endfacet
  facet normal 0 0 1
    outer loop
      vertex -11.6913 11.5 49.9619
      vertex -11.5 11.6913 49.9619
      vertex -11.6353 11.6353 49.9619
    endloop
  endfacet
  facet normal 0 0 1
    outer loop
      vertex -11.6913 -11.5 49.9619
      vertex -10 -10 49.9619
      vertex -11.6913 11.5 49.9619
    endloop
  endfacet
  facet normal 0 0 1
    outer loop
      vertex -10 -10 49.9619
      vertex -11.6913 -11.5 49.9619
      vertex -11.5 -11.6913 49.9619
    endloop
  endfacet
  facet normal 0 0 1
    outer loop
      vertex -11.5 -11.6913 49.9619
      vertex -11.6913 -11.5 49.9619
      vertex -11.6353 -11.6353 49.9619
    endloop
  endfacet
  facet normal -0.281119 -0.678591 0.678591
    outer loop
      vertex -11.5 -11.6913 49.9619
      vertex -11.8266 -11.8266 49.6913
      vertex -11.5 -11.9619 49.6913
    endloop
  endfacet
  facet normal 0.382727 -0.923862 0
    outer loop
      vertex 11.5 -11.9619 0.308659
      vertex 11.8266 -11.8266 49.6913
      vertex 11.5 -11.9619 49.6913
    endloop
  endfacet
  facet normal 0.382727 -0.923862 0
    outer loop
      vertex 11.8266 -11.8266 49.6913
      vertex 11.5 -11.9619 0.308659
      vertex 11.8266 -11.8266 0.308659
    endloop
  endfacet
  facet normal 0.707104 0 -0.70711
    outer loop
      vertex 11.9619 -11.5 0.308659
      vertex 11.6913 11.5 0.0380611
      vertex 11.9619 11.5 0.308659
    endloop
  endfacet
  facet normal 0.707104 0 -0.70711
    outer loop
      vertex 11.6913 11.5 0.0380611
      vertex 11.9619 -11.5 0.308659
      vertex 11.6913 -11.5 0.0380611
    endloop
  endfacet
  facet normal -0.280944 -0.67878 0.678475
    outer loop
      vertex -11.6353 -11.6353 49.9619
      vertex -11.8266 -11.8266 49.6913
      vertex -11.5 -11.6913 49.9619
    endloop
  endfacet
  facet normal 0 -0.707107 0.707107
    outer loop
      vertex -11.5 -11.6913 49.9619
      vertex 11.5 -11.9619 49.6913
      vertex 11.5 -11.6913 49.9619
    endloop
  endfacet
  facet normal 0 -0.707107 0.707107
    outer loop
      vertex 11.5 -11.9619 49.6913
      vertex -11.5 -11.6913 49.9619
      vertex -11.5 -11.9619 49.6913
    endloop
  endfacet
  facet normal -0.382727 -0.923862 0
    outer loop
      vertex -11.8266 -11.8266 0.308659
      vertex -11.5 -11.9619 49.6913
      vertex -11.8266 -11.8266 49.6913
    endloop
  endfacet
  facet normal -0.382727 -0.923862 -0
    outer loop
      vertex -11.5 -11.9619 49.6913
      vertex -11.8266 -11.8266 0.308659
      vertex -11.5 -11.9619 0.308659
    endloop
  endfacet
  facet normal -0.281118 0.678589 -0.678594
    outer loop
      vertex -11.5 11.6913 0.0380611
      vertex -11.8266 11.8266 0.308659
      vertex -11.5 11.9619 0.308659
    endloop
  endfacet
  facet normal -0.678778 -0.280943 -0.678477
    outer loop
      vertex -11.6353 -11.6353 0.0380611
      vertex -11.8266 -11.8266 0.308659
      vertex -11.6913 -11.5 0.0380611
    endloop
  endfacet
  facet normal -0.707104 0 -0.70711
    outer loop
      vertex -11.6913 -11.5 0.0380611
      vertex -11.9619 11.5 0.308659
      vertex -11.6913 11.5 0.0380611
    endloop
  endfacet
  facet normal -0.707104 -0 -0.70711
    outer loop
      vertex -11.9619 11.5 0.308659
      vertex -11.6913 -11.5 0.0380611
      vertex -11.9619 -11.5 0.308659
    endloop
  endfacet
  facet normal -0.678589 0.281118 -0.678594
    outer loop
      vertex -11.6913 11.5 0.0380611
      vertex -11.9619 11.5 0.308659
      vertex -11.8266 11.8266 0.308659
    endloop
  endfacet
  facet normal 0 -0.707104 -0.70711
    outer loop
      vertex -11.5 -11.6913 0.0380611
      vertex 11.5 -11.9619 0.308659
      vertex -11.5 -11.9619 0.308659
    endloop
  endfacet
  facet normal 0 -0.707104 -0.70711
    outer loop
      vertex 11.5 -11.9619 0.308659
      vertex -11.5 -11.6913 0.0380611
      vertex 11.5 -11.6913 0.0380611
    endloop
  endfacet
  facet normal -0.281118 -0.678589 -0.678594
    outer loop
      vertex -11.5 -11.9619 0.308659
      vertex -11.8266 -11.8266 0.308659
      vertex -11.5 -11.6913 0.0380611
    endloop
  endfacet
  facet normal -0.280943 0.678778 -0.678477
    outer loop
      vertex -11.6353 11.6353 0.0380611
      vertex -11.8266 11.8266 0.308659
      vertex -11.5 11.6913 0.0380611
    endloop
  endfacet
  facet normal -0.280943 -0.678778 -0.678477
    outer loop
      vertex -11.5 -11.6913 0.0380611
      vertex -11.8266 -11.8266 0.308659
      vertex -11.6353 -11.6353 0.0380611
    endloop
  endfacet
  facet normal 0.281118 0.678589 -0.678594
    outer loop
      vertex 11.8266 11.8266 0.308659
      vertex 11.5 11.6913 0.0380611
      vertex 11.5 11.9619 0.308659
    endloop
  endfacet
  facet normal 0.678589 -0.281118 -0.678594
    outer loop
      vertex 11.8266 -11.8266 0.308659
      vertex 11.6913 -11.5 0.0380611
      vertex 11.9619 -11.5 0.308659
    endloop
  endfacet
  facet normal -0.678778 0.280943 -0.678477
    outer loop
      vertex -11.6913 11.5 0.0380611
      vertex -11.8266 11.8266 0.308659
      vertex -11.6353 11.6353 0.0380611
    endloop
  endfacet
  facet normal 0.678778 0.280943 -0.678477
    outer loop
      vertex 11.6913 11.5 0.0380611
      vertex 11.6353 11.6353 0.0380611
      vertex 11.8266 11.8266 0.308659
    endloop
  endfacet
  facet normal 0.678589 0.281118 -0.678594
    outer loop
      vertex 11.9619 11.5 0.308659
      vertex 11.6913 11.5 0.0380611
      vertex 11.8266 11.8266 0.308659
    endloop
  endfacet
  facet normal 0 0 -1
    outer loop
      vertex 11.5 -11.6913 0.0380611
      vertex 11.6913 -11.5 0.0380611
      vertex 11.6353 -11.6353 0.0380611
    endloop
  endfacet
  facet normal 0 0 -1
    outer loop
      vertex 11.6913 -11.5 0.0380611
      vertex 7.15 0 0.0380611
      vertex 11.6913 11.5 0.0380611
    endloop
  endfacet
  facet normal 0 0 -1
    outer loop
      vertex 5.05581 -5.05581 0.0380611
      vertex 11.6913 -11.5 0.0380611
      vertex 11.5 -11.6913 0.0380611
    endloop
  endfacet
  facet normal 0 0 -1
    outer loop
      vertex 7.01261 1.3949 0.0380611
      vertex 11.6913 11.5 0.0380611
      vertex 7.15 0 0.0380611
    endloop
  endfacet
  facet normal 0 0 -1
    outer loop
      vertex 6.60574 2.73619 0.0380611
      vertex 11.6913 11.5 0.0380611
      vertex 7.01261 1.3949 0.0380611
    endloop
  endfacet
  facet normal 0 0 -1
    outer loop
      vertex 11.6913 -11.5 0.0380611
      vertex 7.01261 -1.3949 0.0380611
      vertex 7.15 0 0.0380611
    endloop
  endfacet
  facet normal 0 0 -1
    outer loop
      vertex 11.6913 -11.5 0.0380611
      vertex 6.60574 -2.73619 0.0380611
      vertex 7.01261 -1.3949 0.0380611
    endloop
  endfacet
  facet normal 0 0 -1
    outer loop
      vertex 11.6913 -11.5 0.0380611
      vertex 5.94501 -3.97233 0.0380611
      vertex 6.60574 -2.73619 0.0380611
    endloop
  endfacet
  facet normal 0 0 -1
    outer loop
      vertex 11.6913 -11.5 0.0380611
      vertex 5.05581 -5.05581 0.0380611
      vertex 5.94501 -3.97233 0.0380611
    endloop
  endfacet
  facet normal 0 0 -1
    outer loop
      vertex 11.5 -11.6913 0.0380611
      vertex 3.97233 -5.94501 0.0380611
      vertex 5.05581 -5.05581 0.0380611
    endloop
  endfacet
  facet normal 0 0 -1
    outer loop
      vertex 11.5 -11.6913 0.0380611
      vertex 2.73619 -6.60574 0.0380611
      vertex 3.97233 -5.94501 0.0380611
    endloop
  endfacet
  facet normal 0 0 -1
    outer loop
      vertex 11.5 -11.6913 0.0380611
      vertex 1.3949 -7.01261 0.0380611
      vertex 2.73619 -6.60574 0.0380611
    endloop
  endfacet
  facet normal 0 0 -1
    outer loop
      vertex 11.5 -11.6913 0.0380611
      vertex 0 -7.15 0.0380611
      vertex 1.3949 -7.01261 0.0380611
    endloop
  endfacet
  facet normal 0 0 -1
    outer loop
      vertex -11.5 -11.6913 0.0380611
      vertex 0 -7.15 0.0380611
      vertex 11.5 -11.6913 0.0380611
    endloop
  endfacet
  facet normal -0 0 -1
    outer loop
      vertex 0 -7.15 0.0380611
      vertex -11.5 -11.6913 0.0380611
      vertex -1.3949 -7.01261 0.0380611
    endloop
  endfacet
  facet normal -0 0 -1
    outer loop
      vertex -6.60574 -2.73619 0.0380611
      vertex -11.6913 -11.5 0.0380611
      vertex -7.01261 -1.3949 0.0380611
    endloop
  endfacet
  facet normal -0 0 -1
    outer loop
      vertex -5.94501 -3.97233 0.0380611
      vertex -11.6913 -11.5 0.0380611
      vertex -6.60574 -2.73619 0.0380611
    endloop
  endfacet
  facet normal -0 0 -1
    outer loop
      vertex -5.05581 -5.05581 0.0380611
      vertex -11.6913 -11.5 0.0380611
      vertex -5.94501 -3.97233 0.0380611
    endloop
  endfacet
  facet normal 0 0 -1
    outer loop
      vertex -11.6913 -11.5 0.0380611
      vertex -5.05581 -5.05581 0.0380611
      vertex -11.5 -11.6913 0.0380611
    endloop
  endfacet
  facet normal -0 0 -1
    outer loop
      vertex -3.97233 -5.94501 0.0380611
      vertex -11.5 -11.6913 0.0380611
      vertex -5.05581 -5.05581 0.0380611
    endloop
  endfacet
  facet normal -0 0 -1
    outer loop
      vertex -2.73619 -6.60574 0.0380611
      vertex -11.5 -11.6913 0.0380611
      vertex -3.97233 -5.94501 0.0380611
    endloop
  endfacet
  facet normal -0 0 -1
    outer loop
      vertex -1.3949 -7.01261 0.0380611
      vertex -11.5 -11.6913 0.0380611
      vertex -2.73619 -6.60574 0.0380611
    endloop
  endfacet
  facet normal 0 0 -1
    outer loop
      vertex 5.94501 3.97233 0.0380611
      vertex 11.6913 11.5 0.0380611
      vertex 6.60574 2.73619 0.0380611
    endloop
  endfacet
  facet normal 0 0 -1
    outer loop
      vertex 5.05581 5.05581 0.0380611
      vertex 11.6913 11.5 0.0380611
      vertex 5.94501 3.97233 0.0380611
    endloop
  endfacet
  facet normal 0 0 -1
    outer loop
      vertex 11.6913 11.5 0.0380611
      vertex 11.5 11.6913 0.0380611
      vertex 11.6353 11.6353 0.0380611
    endloop
  endfacet
  facet normal -0 0 -1
    outer loop
      vertex 11.6913 11.5 0.0380611
      vertex 5.05581 5.05581 0.0380611
      vertex 11.5 11.6913 0.0380611
    endloop
  endfacet
  facet normal 0 0 -1
    outer loop
      vertex 3.97233 5.94501 0.0380611
      vertex 11.5 11.6913 0.0380611
      vertex 5.05581 5.05581 0.0380611
    endloop
  endfacet
  facet normal 0 0 -1
    outer loop
      vertex 2.73619 6.60574 0.0380611
      vertex 11.5 11.6913 0.0380611
      vertex 3.97233 5.94501 0.0380611
    endloop
  endfacet
  facet normal 0 0 -1
    outer loop
      vertex 1.3949 7.01261 0.0380611
      vertex 11.5 11.6913 0.0380611
      vertex 2.73619 6.60574 0.0380611
    endloop
  endfacet
  facet normal 0 0 -1
    outer loop
      vertex 0 7.15 0.0380611
      vertex 11.5 11.6913 0.0380611
      vertex 1.3949 7.01261 0.0380611
    endloop
  endfacet
  facet normal 0 0 -1
    outer loop
      vertex -11.5 11.6913 0.0380611
      vertex 0 7.15 0.0380611
      vertex -1.3949 7.01261 0.0380611
    endloop
  endfacet
  facet normal 0 0 -1
    outer loop
      vertex -11.5 11.6913 0.0380611
      vertex -1.3949 7.01261 0.0380611
      vertex -2.73619 6.60574 0.0380611
    endloop
  endfacet
  facet normal -0 0 -1
    outer loop
      vertex -7.01261 -1.3949 0.0380611
      vertex -11.6913 -11.5 0.0380611
      vertex -7.15 0 0.0380611
    endloop
  endfacet
  facet normal 0 0 -1
    outer loop
      vertex -11.6913 11.5 0.0380611
      vertex -7.15 0 0.0380611
      vertex -11.6913 -11.5 0.0380611
    endloop
  endfacet
  facet normal 0 0 -1
    outer loop
      vertex 0 7.15 0.0380611
      vertex -11.5 11.6913 0.0380611
      vertex 11.5 11.6913 0.0380611
    endloop
  endfacet
  facet normal 0 0 -1
    outer loop
      vertex -3.97233 5.94501 0.0380611
      vertex -11.5 11.6913 0.0380611
      vertex -2.73619 6.60574 0.0380611
    endloop
  endfacet
  facet normal 0 0 -1
    outer loop
      vertex -5.05581 5.05581 0.0380611
      vertex -11.5 11.6913 0.0380611
      vertex -3.97233 5.94501 0.0380611
    endloop
  endfacet
  facet normal 0 0 -1
    outer loop
      vertex -11.6913 11.5 0.0380611
      vertex -5.05581 5.05581 0.0380611
      vertex -5.94501 3.97233 0.0380611
    endloop
  endfacet
  facet normal 0 0 -1
    outer loop
      vertex -11.6913 11.5 0.0380611
      vertex -5.94501 3.97233 0.0380611
      vertex -6.60574 2.73619 0.0380611
    endloop
  endfacet
  facet normal 0 0 -1
    outer loop
      vertex -7.15 0 0.0380611
      vertex -11.6913 11.5 0.0380611
      vertex -7.01261 1.3949 0.0380611
    endloop
  endfacet
  facet normal 0 0 -1
    outer loop
      vertex -11.6913 -11.5 0.0380611
      vertex -11.5 -11.6913 0.0380611
      vertex -11.6353 -11.6353 0.0380611
    endloop
  endfacet
  facet normal 0 0 -1
    outer loop
      vertex -7.01261 1.3949 0.0380611
      vertex -11.6913 11.5 0.0380611
      vertex -6.60574 2.73619 0.0380611
    endloop
  endfacet
  facet normal 0 0 -1
    outer loop
      vertex -5.05581 5.05581 0.0380611
      vertex -11.6913 11.5 0.0380611
      vertex -11.5 11.6913 0.0380611
    endloop
  endfacet
  facet normal 0 0 -1
    outer loop
      vertex -11.5 11.6913 0.0380611
      vertex -11.6913 11.5 0.0380611
      vertex -11.6353 11.6353 0.0380611
    endloop
  endfacet
  facet normal 0.280943 0.678778 -0.678477
    outer loop
      vertex 11.6353 11.6353 0.0380611
      vertex 11.5 11.6913 0.0380611
      vertex 11.8266 11.8266 0.308659
    endloop
  endfacet
  facet normal 0.678778 -0.280943 -0.678477
    outer loop
      vertex 11.8266 -11.8266 0.308659
      vertex 11.6353 -11.6353 0.0380611
      vertex 11.6913 -11.5 0.0380611
    endloop
  endfacet
  facet normal -1 0 0
    outer loop
      vertex 10 -10 3
      vertex 10 10 49.9619
      vertex 10 10 3
    endloop
  endfacet
  facet normal -1 -0 0
    outer loop
      vertex 10 10 49.9619
      vertex 10 -10 3
      vertex 10 -10 49.9619
    endloop
  endfacet
  facet normal -0 0 1
    outer loop
      vertex -10 10 3
      vertex 10 -10 3
      vertex 10 10 3
    endloop
  endfacet
  facet normal 0 0 1
    outer loop
      vertex 10 -10 3
      vertex -10 10 3
      vertex -10 -10 3
    endloop
  endfacet
  facet normal 1 -0 0
    outer loop
      vertex -10 -10 49.9619
      vertex -10 10 3
      vertex -10 10 49.9619
    endloop
  endfacet
  facet normal 1 0 0
    outer loop
      vertex -10 10 3
      vertex -10 -10 49.9619
      vertex -10 -10 3
    endloop
  endfacet
  facet normal -0.0980202 -0.995184 0
    outer loop
      vertex 0 7.15 0.0380611
      vertex 1.3949 7.01261 2
      vertex 0 7.15 2
    endloop
  endfacet
  facet normal -0.0980202 -0.995184 -0
    outer loop
      vertex 1.3949 7.01261 2
      vertex 0 7.15 0.0380611
      vertex 1.3949 7.01261 0.0380611
    endloop
  endfacet
  facet normal 0.471396 0.881921 -0
    outer loop
      vertex -2.73619 -6.60574 0.0380611
      vertex -3.97233 -5.94501 2
      vertex -2.73619 -6.60574 2
    endloop
  endfacet
  facet normal 0.471396 0.881921 0
    outer loop
      vertex -3.97233 -5.94501 2
      vertex -2.73619 -6.60574 0.0380611
      vertex -3.97233 -5.94501 0.0380611
    endloop
  endfacet
  facet normal -0.956941 -0.290281 0
    outer loop
      vertex 7.01261 1.3949 0.0380611
      vertex 6.60574 2.73619 2
      vertex 6.60574 2.73619 0.0380611
    endloop
  endfacet
  facet normal -0.956941 -0.290281 0
    outer loop
      vertex 6.60574 2.73619 2
      vertex 7.01261 1.3949 0.0380611
      vertex 7.01261 1.3949 2
    endloop
  endfacet
  facet normal -0.995184 -0.0980202 0
    outer loop
      vertex 7.15 0 0.0380611
      vertex 7.01261 1.3949 2
      vertex 7.01261 1.3949 0.0380611
    endloop
  endfacet
  facet normal -0.995184 -0.0980202 0
    outer loop
      vertex 7.01261 1.3949 2
      vertex 7.15 0 0.0380611
      vertex 7.15 0 2
    endloop
  endfacet
  facet normal -0.881921 -0.471396 0
    outer loop
      vertex 6.60574 2.73619 0.0380611
      vertex 5.94501 3.97233 2
      vertex 5.94501 3.97233 0.0380611
    endloop
  endfacet
  facet normal -0.881921 -0.471396 0
    outer loop
      vertex 5.94501 3.97233 2
      vertex 6.60574 2.73619 0.0380611
      vertex 6.60574 2.73619 2
    endloop
  endfacet
  facet normal -0.773007 0.634398 0
    outer loop
      vertex 5.05581 -5.05581 0.0380611
      vertex 5.94501 -3.97233 2
      vertex 5.94501 -3.97233 0.0380611
    endloop
  endfacet
  facet normal -0.773007 0.634398 0
    outer loop
      vertex 5.94501 -3.97233 2
      vertex 5.05581 -5.05581 0.0380611
      vertex 5.05581 -5.05581 2
    endloop
  endfacet
  facet normal 0.634398 -0.773007 0
    outer loop
      vertex -5.05581 5.05581 0.0380611
      vertex -3.97233 5.94501 2
      vertex -5.05581 5.05581 2
    endloop
  endfacet
  facet normal 0.634398 -0.773007 0
    outer loop
      vertex -3.97233 5.94501 2
      vertex -5.05581 5.05581 0.0380611
      vertex -3.97233 5.94501 0.0380611
    endloop
  endfacet
  facet normal -0.0980202 0.995184 0
    outer loop
      vertex 1.3949 -7.01261 0.0380611
      vertex 0 -7.15 2
      vertex 1.3949 -7.01261 2
    endloop
  endfacet
  facet normal -0.0980202 0.995184 0
    outer loop
      vertex 0 -7.15 2
      vertex 1.3949 -7.01261 0.0380611
      vertex 0 -7.15 0.0380611
    endloop
  endfacet
  facet normal -0.634398 -0.773007 0
    outer loop
      vertex 3.97233 5.94501 0.0380611
      vertex 5.05581 5.05581 2
      vertex 3.97233 5.94501 2
    endloop
  endfacet
  facet normal -0.634398 -0.773007 -0
    outer loop
      vertex 5.05581 5.05581 2
      vertex 3.97233 5.94501 0.0380611
      vertex 5.05581 5.05581 0.0380611
    endloop
  endfacet
  facet normal 0.471396 -0.881921 0
    outer loop
      vertex -3.97233 5.94501 0.0380611
      vertex -2.73619 6.60574 2
      vertex -3.97233 5.94501 2
    endloop
  endfacet
  facet normal 0.471396 -0.881921 0
    outer loop
      vertex -2.73619 6.60574 2
      vertex -3.97233 5.94501 0.0380611
      vertex -2.73619 6.60574 0.0380611
    endloop
  endfacet
  facet normal 0.773007 -0.634398 0
    outer loop
      vertex -5.94501 3.97233 2
      vertex -5.05581 5.05581 0.0380611
      vertex -5.05581 5.05581 2
    endloop
  endfacet
  facet normal 0.773007 -0.634398 0
    outer loop
      vertex -5.05581 5.05581 0.0380611
      vertex -5.94501 3.97233 2
      vertex -5.94501 3.97233 0.0380611
    endloop
  endfacet
  facet normal 0.995184 -0.0980202 0
    outer loop
      vertex -7.15 0 2
      vertex -7.01261 1.3949 0.0380611
      vertex -7.01261 1.3949 2
    endloop
  endfacet
  facet normal 0.995184 -0.0980202 0
    outer loop
      vertex -7.01261 1.3949 0.0380611
      vertex -7.15 0 2
      vertex -7.15 0 0.0380611
    endloop
  endfacet
  facet normal 0 0 -1
    outer loop
      vertex 7.01261 -1.3949 2
      vertex 7.01261 1.3949 2
      vertex 7.15 0 2
    endloop
  endfacet
  facet normal 0 0 -1
    outer loop
      vertex 6.60574 -2.73619 2
      vertex 7.01261 1.3949 2
      vertex 7.01261 -1.3949 2
    endloop
  endfacet
  facet normal 0 0 -1
    outer loop
      vertex 6.60574 -2.73619 2
      vertex 6.60574 2.73619 2
      vertex 7.01261 1.3949 2
    endloop
  endfacet
  facet normal 0 0 -1
    outer loop
      vertex 5.94501 -3.97233 2
      vertex 6.60574 2.73619 2
      vertex 6.60574 -2.73619 2
    endloop
  endfacet
  facet normal 0 0 -1
    outer loop
      vertex 5.94501 -3.97233 2
      vertex 5.94501 3.97233 2
      vertex 6.60574 2.73619 2
    endloop
  endfacet
  facet normal 0 0 -1
    outer loop
      vertex 5.05581 -5.05581 2
      vertex 5.94501 3.97233 2
      vertex 5.94501 -3.97233 2
    endloop
  endfacet
  facet normal 0 0 -1
    outer loop
      vertex 5.05581 -5.05581 2
      vertex 5.05581 5.05581 2
      vertex 5.94501 3.97233 2
    endloop
  endfacet
  facet normal 0 0 -1
    outer loop
      vertex 3.97233 -5.94501 2
      vertex 5.05581 5.05581 2
      vertex 5.05581 -5.05581 2
    endloop
  endfacet
  facet normal 0 0 -1
    outer loop
      vertex 3.97233 -5.94501 2
      vertex 3.97233 5.94501 2
      vertex 5.05581 5.05581 2
    endloop
  endfacet
  facet normal 0 0 -1
    outer loop
      vertex 2.73619 -6.60574 2
      vertex 3.97233 5.94501 2
      vertex 3.97233 -5.94501 2
    endloop
  endfacet
  facet normal 0 0 -1
    outer loop
      vertex 2.73619 -6.60574 2
      vertex 2.73619 6.60574 2
      vertex 3.97233 5.94501 2
    endloop
  endfacet
  facet normal 0 0 -1
    outer loop
      vertex 1.3949 -7.01261 2
      vertex 2.73619 6.60574 2
      vertex 2.73619 -6.60574 2
    endloop
  endfacet
  facet normal 0 0 -1
    outer loop
      vertex 1.3949 -7.01261 2
      vertex 1.3949 7.01261 2
      vertex 2.73619 6.60574 2
    endloop
  endfacet
  facet normal 0 0 -1
    outer loop
      vertex 0 -7.15 2
      vertex 1.3949 7.01261 2
      vertex 1.3949 -7.01261 2
    endloop
  endfacet
  facet normal 0 0 -1
    outer loop
      vertex 0 -7.15 2
      vertex 0 7.15 2
      vertex 1.3949 7.01261 2
    endloop
  endfacet
  facet normal 0 0 -1
    outer loop
      vertex -1.3949 -7.01261 2
      vertex 0 7.15 2
      vertex 0 -7.15 2
    endloop
  endfacet
  facet normal 0 0 -1
    outer loop
      vertex -1.3949 -7.01261 2
      vertex -1.3949 7.01261 2
      vertex 0 7.15 2
    endloop
  endfacet
  facet normal 0 0 -1
    outer loop
      vertex -2.73619 -6.60574 2
      vertex -1.3949 7.01261 2
      vertex -1.3949 -7.01261 2
    endloop
  endfacet
  facet normal 0 0 -1
    outer loop
      vertex -2.73619 -6.60574 2
      vertex -2.73619 6.60574 2
      vertex -1.3949 7.01261 2
    endloop
  endfacet
  facet normal 0 0 -1
    outer loop
      vertex -3.97233 -5.94501 2
      vertex -2.73619 6.60574 2
      vertex -2.73619 -6.60574 2
    endloop
  endfacet
  facet normal 0 0 -1
    outer loop
      vertex -3.97233 -5.94501 2
      vertex -3.97233 5.94501 2
      vertex -2.73619 6.60574 2
    endloop
  endfacet
  facet normal 0 0 -1
    outer loop
      vertex -5.05581 -5.05581 2
      vertex -3.97233 5.94501 2
      vertex -3.97233 -5.94501 2
    endloop
  endfacet
  facet normal 0 0 -1
    outer loop
      vertex -5.05581 -5.05581 2
      vertex -5.05581 5.05581 2
      vertex -3.97233 5.94501 2
    endloop
  endfacet
  facet normal 0 0 -1
    outer loop
      vertex -5.94501 -3.97233 2
      vertex -5.05581 5.05581 2
      vertex -5.05581 -5.05581 2
    endloop
  endfacet
  facet normal 0 0 -1
    outer loop
      vertex -5.94501 -3.97233 2
      vertex -5.94501 3.97233 2
      vertex -5.05581 5.05581 2
    endloop
  endfacet
  facet normal 0 0 -1
    outer loop
      vertex -6.60574 -2.73619 2
      vertex -5.94501 3.97233 2
      vertex -5.94501 -3.97233 2
    endloop
  endfacet
  facet normal 0 0 -1
    outer loop
      vertex -6.60574 -2.73619 2
      vertex -6.60574 2.73619 2
      vertex -5.94501 3.97233 2
    endloop
  endfacet
  facet normal 0 0 -1
    outer loop
      vertex -7.01261 -1.3949 2
      vertex -6.60574 2.73619 2
      vertex -6.60574 -2.73619 2
    endloop
  endfacet
  facet normal 0 0 -1
    outer loop
      vertex -7.01261 -1.3949 2
      vertex -7.01261 1.3949 2
      vertex -6.60574 2.73619 2
    endloop
  endfacet
  facet normal 0 -0 -1
    outer loop
      vertex -7.01261 1.3949 2
      vertex -7.01261 -1.3949 2
      vertex -7.15 0 2
    endloop
  endfacet
  facet normal -0.290281 0.956941 0
    outer loop
      vertex 2.73619 -6.60574 0.0380611
      vertex 1.3949 -7.01261 2
      vertex 2.73619 -6.60574 2
    endloop
  endfacet
  facet normal -0.290281 0.956941 0
    outer loop
      vertex 1.3949 -7.01261 2
      vertex 2.73619 -6.60574 0.0380611
      vertex 1.3949 -7.01261 0.0380611
    endloop
  endfacet
  facet normal 0.290281 -0.956941 0
    outer loop
      vertex -2.73619 6.60574 0.0380611
      vertex -1.3949 7.01261 2
      vertex -2.73619 6.60574 2
    endloop
  endfacet
  facet normal 0.290281 -0.956941 0
    outer loop
      vertex -1.3949 7.01261 2
      vertex -2.73619 6.60574 0.0380611
      vertex -1.3949 7.01261 0.0380611
    endloop
  endfacet
  facet normal 0.881921 0.471396 0
    outer loop
      vertex -5.94501 -3.97233 2
      vertex -6.60574 -2.73619 0.0380611
      vertex -6.60574 -2.73619 2
    endloop
  endfacet
  facet normal 0.881921 0.471396 0
    outer loop
      vertex -6.60574 -2.73619 0.0380611
      vertex -5.94501 -3.97233 2
      vertex -5.94501 -3.97233 0.0380611
    endloop
  endfacet
  facet normal -0.773007 -0.634398 0
    outer loop
      vertex 5.94501 3.97233 0.0380611
      vertex 5.05581 5.05581 2
      vertex 5.05581 5.05581 0.0380611
    endloop
  endfacet
  facet normal -0.773007 -0.634398 0
    outer loop
      vertex 5.05581 5.05581 2
      vertex 5.94501 3.97233 0.0380611
      vertex 5.94501 3.97233 2
    endloop
  endfacet
  facet normal -0.471396 -0.881921 0
    outer loop
      vertex 2.73619 6.60574 0.0380611
      vertex 3.97233 5.94501 2
      vertex 2.73619 6.60574 2
    endloop
  endfacet
  facet normal -0.471396 -0.881921 -0
    outer loop
      vertex 3.97233 5.94501 2
      vertex 2.73619 6.60574 0.0380611
      vertex 3.97233 5.94501 0.0380611
    endloop
  endfacet
  facet normal -0.881921 0.471396 0
    outer loop
      vertex 5.94501 -3.97233 0.0380611
      vertex 6.60574 -2.73619 2
      vertex 6.60574 -2.73619 0.0380611
    endloop
  endfacet
  facet normal -0.881921 0.471396 0
    outer loop
      vertex 6.60574 -2.73619 2
      vertex 5.94501 -3.97233 0.0380611
      vertex 5.94501 -3.97233 2
    endloop
  endfacet
  facet normal 0.956941 -0.290281 0
    outer loop
      vertex -7.01261 1.3949 2
      vertex -6.60574 2.73619 0.0380611
      vertex -6.60574 2.73619 2
    endloop
  endfacet
  facet normal 0.956941 -0.290281 0
    outer loop
      vertex -6.60574 2.73619 0.0380611
      vertex -7.01261 1.3949 2
      vertex -7.01261 1.3949 0.0380611
    endloop
  endfacet
  facet normal 0.634398 0.773007 -0
    outer loop
      vertex -3.97233 -5.94501 0.0380611
      vertex -5.05581 -5.05581 2
      vertex -3.97233 -5.94501 2
    endloop
  endfacet
  facet normal 0.634398 0.773007 0
    outer loop
      vertex -5.05581 -5.05581 2
      vertex -3.97233 -5.94501 0.0380611
      vertex -5.05581 -5.05581 0.0380611
    endloop
  endfacet
  facet normal -0.634398 0.773007 0
    outer loop
      vertex 5.05581 -5.05581 0.0380611
      vertex 3.97233 -5.94501 2
      vertex 5.05581 -5.05581 2
    endloop
  endfacet
  facet normal -0.634398 0.773007 0
    outer loop
      vertex 3.97233 -5.94501 2
      vertex 5.05581 -5.05581 0.0380611
      vertex 3.97233 -5.94501 0.0380611
    endloop
  endfacet
  facet normal -0.995184 0.0980202 0
    outer loop
      vertex 7.01261 -1.3949 0.0380611
      vertex 7.15 0 2
      vertex 7.15 0 0.0380611
    endloop
  endfacet
  facet normal -0.995184 0.0980202 0
    outer loop
      vertex 7.15 0 2
      vertex 7.01261 -1.3949 0.0380611
      vertex 7.01261 -1.3949 2
    endloop
  endfacet
  facet normal -0.956941 0.290281 0
    outer loop
      vertex 6.60574 -2.73619 0.0380611
      vertex 7.01261 -1.3949 2
      vertex 7.01261 -1.3949 0.0380611
    endloop
  endfacet
  facet normal -0.956941 0.290281 0
    outer loop
      vertex 7.01261 -1.3949 2
      vertex 6.60574 -2.73619 0.0380611
      vertex 6.60574 -2.73619 2
    endloop
  endfacet
  facet normal 0.0980202 -0.995184 0
    outer loop
      vertex -1.3949 7.01261 0.0380611
      vertex 0 7.15 2
      vertex -1.3949 7.01261 2
    endloop
  endfacet
  facet normal 0.0980202 -0.995184 0
    outer loop
      vertex 0 7.15 2
      vertex -1.3949 7.01261 0.0380611
      vertex 0 7.15 0.0380611
    endloop
  endfacet
  facet normal 0.881921 -0.471396 0
    outer loop
      vertex -6.60574 2.73619 2
      vertex -5.94501 3.97233 0.0380611
      vertex -5.94501 3.97233 2
    endloop
  endfacet
  facet normal 0.881921 -0.471396 0
    outer loop
      vertex -5.94501 3.97233 0.0380611
      vertex -6.60574 2.73619 2
      vertex -6.60574 2.73619 0.0380611
    endloop
  endfacet
  facet normal -0.290281 -0.956941 0
    outer loop
      vertex 1.3949 7.01261 0.0380611
      vertex 2.73619 6.60574 2
      vertex 1.3949 7.01261 2
    endloop
  endfacet
  facet normal -0.290281 -0.956941 -0
    outer loop
      vertex 2.73619 6.60574 2
      vertex 1.3949 7.01261 0.0380611
      vertex 2.73619 6.60574 0.0380611
    endloop
  endfacet
  facet normal 0.956941 0.290281 0
    outer loop
      vertex -6.60574 -2.73619 2
      vertex -7.01261 -1.3949 0.0380611
      vertex -7.01261 -1.3949 2
    endloop
  endfacet
  facet normal 0.956941 0.290281 0
    outer loop
      vertex -7.01261 -1.3949 0.0380611
      vertex -6.60574 -2.73619 2
      vertex -6.60574 -2.73619 0.0380611
    endloop
  endfacet
  facet normal 0.995184 0.0980202 0
    outer loop
      vertex -7.01261 -1.3949 2
      vertex -7.15 0 0.0380611
      vertex -7.15 0 2
    endloop
  endfacet
  facet normal 0.995184 0.0980202 0
    outer loop
      vertex -7.15 0 0.0380611
      vertex -7.01261 -1.3949 2
      vertex -7.01261 -1.3949 0.0380611
    endloop
  endfacet
  facet normal 0.773007 0.634398 0
    outer loop
      vertex -5.05581 -5.05581 2
      vertex -5.94501 -3.97233 0.0380611
      vertex -5.94501 -3.97233 2
    endloop
  endfacet
  facet normal 0.773007 0.634398 0
    outer loop
      vertex -5.94501 -3.97233 0.0380611
      vertex -5.05581 -5.05581 2
      vertex -5.05581 -5.05581 0.0380611
    endloop
  endfacet
  facet normal -0.471396 0.881921 0
    outer loop
      vertex 3.97233 -5.94501 0.0380611
      vertex 2.73619 -6.60574 2
      vertex 3.97233 -5.94501 2
    endloop
  endfacet
  facet normal -0.471396 0.881921 0
    outer loop
      vertex 2.73619 -6.60574 2
      vertex 3.97233 -5.94501 0.0380611
      vertex 2.73619 -6.60574 0.0380611
    endloop
  endfacet
  facet normal 0.0980202 0.995184 -0
    outer loop
      vertex 0 -7.15 0.0380611
      vertex -1.3949 -7.01261 2
      vertex 0 -7.15 2
    endloop
  endfacet
  facet normal 0.0980202 0.995184 0
    outer loop
      vertex -1.3949 -7.01261 2
      vertex 0 -7.15 0.0380611
      vertex -1.3949 -7.01261 0.0380611
    endloop
  endfacet
  facet normal 0.290281 0.956941 -0
    outer loop
      vertex -1.3949 -7.01261 0.0380611
      vertex -2.73619 -6.60574 2
      vertex -1.3949 -7.01261 2
    endloop
  endfacet
  facet normal 0.290281 0.956941 0
    outer loop
      vertex -2.73619 -6.60574 2
      vertex -1.3949 -7.01261 0.0380611
      vertex -2.73619 -6.60574 0.0380611
    endloop
  endfacet
  facet normal 0 0 -1
    outer loop
      vertex 10.5 -6 30
      vertex 11.9619 6 30
      vertex 11.9619 -6 30
    endloop
  endfacet
  facet normal -0 0 -1
    outer loop
      vertex 11.9619 6 30
      vertex 10.5 -6 30
      vertex 10.5 6 30
    endloop
  endfacet
  facet normal -0 0 1
    outer loop
      vertex 10.5 6 10
      vertex 11.9619 -6 10
      vertex 11.9619 6 10
    endloop
  endfacet
  facet normal 0 0 1
    outer loop
      vertex 11.9619 -6 10
      vertex 10.5 6 10
      vertex 10.5 -6 10
    endloop
  endfacet
  facet normal 1 -0 0
    outer loop
      vertex 10.5 -6 30
      vertex 10.5 6 10
      vertex 10.5 6 30
    endloop
  endfacet
  facet normal 1 0 0
    outer loop
      vertex 10.5 6 10
      vertex 10.5 -6 30
      vertex 10.5 -6 10
    endloop
  endfacet
  facet normal 0 -1 0
    outer loop
      vertex 10.5 6 10
      vertex 11.9619 6 30
      vertex 10.5 6 30
    endloop
  endfacet
  facet normal 0 -1 -0
    outer loop
      vertex 11.9619 6 30
      vertex 10.5 6 10
      vertex 11.9619 6 10
    endloop
  endfacet
  facet normal 0 1 -0
    outer loop
      vertex 11.9619 -6 10
      vertex 10.5 -6 30
      vertex 11.9619 -6 30
    endloop
  endfacet
  facet normal 0 1 0
    outer loop
      vertex 10.5 -6 30
      vertex 11.9619 -6 10
      vertex 10.5 -6 10
    endloop
  endfacet
endsolid OpenSCAD_Model
