solid OpenSCAD_Model
  facet normal -0.471397 0.881921 0
    outer loop
      vertex -1.14805 2.77164 -5
      vertex -1.66671 2.49441 5
      vertex -1.14805 2.77164 5
    endloop
  endfacet
  facet normal -0.471397 0.881921 0
    outer loop
      vertex -1.66671 2.49441 5
      vertex -1.14805 2.77164 -5
      vertex -1.66671 2.49441 -5
    endloop
  endfacet
  facet normal 0.471397 0.881921 -0
    outer loop
      vertex 1.66671 2.49441 -5
      vertex 1.14805 2.77164 5
      vertex 1.66671 2.49441 5
    endloop
  endfacet
  facet normal 0.471397 0.881921 0
    outer loop
      vertex 1.14805 2.77164 5
      vertex 1.66671 2.49441 -5
      vertex 1.14805 2.77164 -5
    endloop
  endfacet
  facet normal 0.956939 0.290289 0
    outer loop
      vertex 2.94236 0.585271 5
      vertex 2.77164 1.14805 -5
      vertex 2.77164 1.14805 5
    endloop
  endfacet
  facet normal 0.956939 0.290289 0
    outer loop
      vertex 2.77164 1.14805 -5
      vertex 2.94236 0.585271 5
      vertex 2.94236 0.585271 -5
    endloop
  endfacet
  facet normal 0.995185 0.0980101 0
    outer loop
      vertex 3 0 5
      vertex 2.94236 0.585271 -5
      vertex 2.94236 0.585271 5
    endloop
  endfacet
  facet normal 0.995185 0.0980101 0
    outer loop
      vertex 2.94236 0.585271 -5
      vertex 3 0 5
      vertex 3 0 -5
    endloop
  endfacet
  facet normal 0.881921 0.471397 0
    outer loop
      vertex 2.77164 1.14805 5
      vertex 2.49441 1.66671 -5
      vertex 2.49441 1.66671 5
    endloop
  endfacet
  facet normal 0.881921 0.471397 0
    outer loop
      vertex 2.49441 1.66671 -5
      vertex 2.77164 1.14805 5
      vertex 2.77164 1.14805 -5
    endloop
  endfacet
  facet normal 0.0980101 0.995185 -0
    outer loop
      vertex 0.585271 2.94236 -5
      vertex 0 3 5
      vertex 0.585271 2.94236 5
    endloop
  endfacet
  facet normal 0.0980101 0.995185 0
    outer loop
      vertex 0 3 5
      vertex 0.585271 2.94236 -5
      vertex 0 3 -5
    endloop
  endfacet
  facet normal 0.0980101 -0.995185 0
    outer loop
      vertex 0 -3 -5
      vertex 0.585271 -2.94236 5
      vertex 0 -3 5
    endloop
  endfacet
  facet normal 0.0980101 -0.995185 0
    outer loop
      vertex 0.585271 -2.94236 5
      vertex 0 -3 -5
      vertex 0.585271 -2.94236 -5
    endloop
  endfacet
  facet normal 0.290289 0.956939 -0
    outer loop
      vertex 1.14805 2.77164 -5
      vertex 0.585271 2.94236 5
      vertex 1.14805 2.77164 5
    endloop
  endfacet
  facet normal 0.290289 0.956939 0
    outer loop
      vertex 0.585271 2.94236 5
      vertex 1.14805 2.77164 -5
      vertex 0.585271 2.94236 -5
    endloop
  endfacet
  facet normal 0.634395 0.773009 -0
    outer loop
      vertex 2.12132 2.12132 -5
      vertex 1.66671 2.49441 5
      vertex 2.12132 2.12132 5
    endloop
  endfacet
  facet normal 0.634395 0.773009 0
    outer loop
      vertex 1.66671 2.49441 5
      vertex 2.12132 2.12132 -5
      vertex 1.66671 2.49441 -5
    endloop
  endfacet
  facet normal 0.773009 -0.634395 0
    outer loop
      vertex 2.12132 -2.12132 5
      vertex 2.49441 -1.66671 -5
      vertex 2.49441 -1.66671 5
    endloop
  endfacet
  facet normal 0.773009 -0.634395 0
    outer loop
      vertex 2.49441 -1.66671 -5
      vertex 2.12132 -2.12132 5
      vertex 2.12132 -2.12132 -5
    endloop
  endfacet
  facet normal -0.634395 0.773009 0
    outer loop
      vertex -1.66671 2.49441 -5
      vertex -2.12132 2.12132 5
      vertex -1.66671 2.49441 5
    endloop
  endfacet
  facet normal -0.634395 0.773009 0
    outer loop
      vertex -2.12132 2.12132 5
      vertex -1.66671 2.49441 -5
      vertex -2.12132 2.12132 -5
    endloop
  endfacet
  facet normal 0.471397 -0.881921 0
    outer loop
      vertex 1.14805 -2.77164 -5
      vertex 1.66671 -2.49441 5
      vertex 1.14805 -2.77164 5
    endloop
  endfacet
  facet normal 0.471397 -0.881921 0
    outer loop
      vertex 1.66671 -2.49441 5
      vertex 1.14805 -2.77164 -5
      vertex 1.66671 -2.49441 -5
    endloop
  endfacet
  facet normal -0.881921 -0.471397 0
    outer loop
      vertex -2.49441 -1.66671 -5
      vertex -2.77164 -1.14805 5
      vertex -2.77164 -1.14805 -5
    endloop
  endfacet
  facet normal -0.881921 -0.471397 0
    outer loop
      vertex -2.77164 -1.14805 5
      vertex -2.49441 -1.66671 -5
      vertex -2.49441 -1.66671 5
    endloop
  endfacet
  facet normal 0.995185 -0.0980101 0
    outer loop
      vertex 2.94236 -0.585271 5
      vertex 3 0 -5
      vertex 3 0 5
    endloop
  endfacet
  facet normal 0.995185 -0.0980101 0
    outer loop
      vertex 3 0 -5
      vertex 2.94236 -0.585271 5
      vertex 2.94236 -0.585271 -5
    endloop
  endfacet
  facet normal -0.290289 0.956939 0
    outer loop
      vertex -0.585271 2.94236 -5
      vertex -1.14805 2.77164 5
      vertex -0.585271 2.94236 5
    endloop
  endfacet
  facet normal -0.290289 0.956939 0
    outer loop
      vertex -1.14805 2.77164 5
      vertex -0.585271 2.94236 -5
      vertex -1.14805 2.77164 -5
    endloop
  endfacet
  facet normal -0.0980101 -0.995185 0
    outer loop
      vertex -0.585271 -2.94236 -5
      vertex 0 -3 5
      vertex -0.585271 -2.94236 5
    endloop
  endfacet
  facet normal -0.0980101 -0.995185 -0
    outer loop
      vertex 0 -3 5
      vertex -0.585271 -2.94236 -5
      vertex 0 -3 -5
    endloop
  endfacet
  facet normal 0 0 -1
    outer loop
      vertex 2.15 0 -6
      vertex 4 0 -6
      vertex 3.92314 -0.780361 -6
    endloop
  endfacet
  facet normal 0 0 -1
    outer loop
      vertex 2.07674 -0.55646 -6
      vertex 3.92314 -0.780361 -6
      vertex 3.69552 -1.53073 -6
    endloop
  endfacet
  facet normal 0 0 -1
    outer loop
      vertex 4 0 -6
      vertex 2.15 0 -6
      vertex 3.92314 0.780361 -6
    endloop
  endfacet
  facet normal 0 0 -1
    outer loop
      vertex 1.86195 -1.075 -6
      vertex 3.69552 -1.53073 -6
      vertex 3.32588 -2.22228 -6
    endloop
  endfacet
  facet normal 0 0 -1
    outer loop
      vertex 2.07674 0.55646 -6
      vertex 3.92314 0.780361 -6
      vertex 2.15 0 -6
    endloop
  endfacet
  facet normal 0 0 -1
    outer loop
      vertex 1.52028 -1.52028 -6
      vertex 3.32588 -2.22228 -6
      vertex 2.82843 -2.82843 -6
    endloop
  endfacet
  facet normal -0 0 -1
    outer loop
      vertex 3.92314 0.780361 -6
      vertex 2.07674 0.55646 -6
      vertex 3.69552 1.53073 -6
    endloop
  endfacet
  facet normal 0 0 -1
    outer loop
      vertex 1.52028 -1.52028 -6
      vertex 2.82843 -2.82843 -6
      vertex 2.22228 -3.32588 -6
    endloop
  endfacet
  facet normal 0 0 -1
    outer loop
      vertex 1.86195 1.075 -6
      vertex 3.69552 1.53073 -6
      vertex 2.07674 0.55646 -6
    endloop
  endfacet
  facet normal -0 0 -1
    outer loop
      vertex 3.69552 1.53073 -6
      vertex 1.86195 1.075 -6
      vertex 3.32588 2.22228 -6
    endloop
  endfacet
  facet normal 0 0 -1
    outer loop
      vertex 3.92314 -0.780361 -6
      vertex 2.07674 -0.55646 -6
      vertex 2.15 0 -6
    endloop
  endfacet
  facet normal 0 0 -1
    outer loop
      vertex 3.69552 -1.53073 -6
      vertex 1.86195 -1.075 -6
      vertex 2.07674 -0.55646 -6
    endloop
  endfacet
  facet normal 0 0 -1
    outer loop
      vertex 1.075 -1.86195 -6
      vertex 2.22228 -3.32588 -6
      vertex 1.53073 -3.69552 -6
    endloop
  endfacet
  facet normal 0 0 -1
    outer loop
      vertex 3.32588 -2.22228 -6
      vertex 1.52028 -1.52028 -6
      vertex 1.86195 -1.075 -6
    endloop
  endfacet
  facet normal 0 0 -1
    outer loop
      vertex 2.22228 -3.32588 -6
      vertex 1.075 -1.86195 -6
      vertex 1.52028 -1.52028 -6
    endloop
  endfacet
  facet normal 0 0 -1
    outer loop
      vertex 0.55646 -2.07674 -6
      vertex 1.53073 -3.69552 -6
      vertex 0.780361 -3.92314 -6
    endloop
  endfacet
  facet normal 0 0 -1
    outer loop
      vertex 1.53073 -3.69552 -6
      vertex 0.55646 -2.07674 -6
      vertex 1.075 -1.86195 -6
    endloop
  endfacet
  facet normal 0 0 -1
    outer loop
      vertex 0 -2.15 -6
      vertex 0.780361 -3.92314 -6
      vertex 0 -4 -6
    endloop
  endfacet
  facet normal 0 0 -1
    outer loop
      vertex 0.780361 -3.92314 -6
      vertex 0 -2.15 -6
      vertex 0.55646 -2.07674 -6
    endloop
  endfacet
  facet normal 0 0 -1
    outer loop
      vertex -0.780361 -3.92314 -6
      vertex 0 -2.15 -6
      vertex 0 -4 -6
    endloop
  endfacet
  facet normal -0 0 -1
    outer loop
      vertex 0 -2.15 -6
      vertex -0.780361 -3.92314 -6
      vertex -0.55646 -2.07674 -6
    endloop
  endfacet
  facet normal 0 0 -1
    outer loop
      vertex -1.53073 -3.69552 -6
      vertex -0.55646 -2.07674 -6
      vertex -0.780361 -3.92314 -6
    endloop
  endfacet
  facet normal -0 0 -1
    outer loop
      vertex -0.55646 -2.07674 -6
      vertex -1.53073 -3.69552 -6
      vertex -1.075 -1.86195 -6
    endloop
  endfacet
  facet normal 0 0 -1
    outer loop
      vertex -2.22228 -3.32588 -6
      vertex -1.075 -1.86195 -6
      vertex -1.53073 -3.69552 -6
    endloop
  endfacet
  facet normal -0 0 -1
    outer loop
      vertex -1.075 -1.86195 -6
      vertex -2.22228 -3.32588 -6
      vertex -1.52028 -1.52028 -6
    endloop
  endfacet
  facet normal 0 0 -1
    outer loop
      vertex -2.82843 -2.82843 -6
      vertex -1.52028 -1.52028 -6
      vertex -2.22228 -3.32588 -6
    endloop
  endfacet
  facet normal -0 0 -1
    outer loop
      vertex -1.52028 -1.52028 -6
      vertex -3.32588 -2.22228 -6
      vertex -1.86195 -1.075 -6
    endloop
  endfacet
  facet normal 0 0 -1
    outer loop
      vertex -3.32588 -2.22228 -6
      vertex -1.52028 -1.52028 -6
      vertex -2.82843 -2.82843 -6
    endloop
  endfacet
  facet normal 0 0 -1
    outer loop
      vertex 1.52028 1.52028 -6
      vertex 3.32588 2.22228 -6
      vertex 1.86195 1.075 -6
    endloop
  endfacet
  facet normal -0 0 -1
    outer loop
      vertex 3.32588 2.22228 -6
      vertex 1.52028 1.52028 -6
      vertex 2.82843 2.82843 -6
    endloop
  endfacet
  facet normal -0 0 -1
    outer loop
      vertex 2.82843 2.82843 -6
      vertex 1.52028 1.52028 -6
      vertex 2.22228 3.32588 -6
    endloop
  endfacet
  facet normal 0 0 -1
    outer loop
      vertex 1.075 1.86195 -6
      vertex 2.22228 3.32588 -6
      vertex 1.52028 1.52028 -6
    endloop
  endfacet
  facet normal -0 0 -1
    outer loop
      vertex 2.22228 3.32588 -6
      vertex 1.075 1.86195 -6
      vertex 1.53073 3.69552 -6
    endloop
  endfacet
  facet normal 0 0 -1
    outer loop
      vertex 0.55646 2.07674 -6
      vertex 1.53073 3.69552 -6
      vertex 1.075 1.86195 -6
    endloop
  endfacet
  facet normal -0 0 -1
    outer loop
      vertex 1.53073 3.69552 -6
      vertex 0.55646 2.07674 -6
      vertex 0.780361 3.92314 -6
    endloop
  endfacet
  facet normal 0 0 -1
    outer loop
      vertex 0 2.15 -6
      vertex 0.780361 3.92314 -6
      vertex 0.55646 2.07674 -6
    endloop
  endfacet
  facet normal 0 0 -1
    outer loop
      vertex 0 2.15 -6
      vertex 0 4 -6
      vertex 0.780361 3.92314 -6
    endloop
  endfacet
  facet normal 0 0 -1
    outer loop
      vertex -0.780361 3.92314 -6
      vertex 0 2.15 -6
      vertex -0.55646 2.07674 -6
    endloop
  endfacet
  facet normal 0 0 -1
    outer loop
      vertex 0 2.15 -6
      vertex -0.780361 3.92314 -6
      vertex 0 4 -6
    endloop
  endfacet
  facet normal 0 0 -1
    outer loop
      vertex -1.53073 3.69552 -6
      vertex -0.55646 2.07674 -6
      vertex -1.075 1.86195 -6
    endloop
  endfacet
  facet normal 0 0 -1
    outer loop
      vertex -2.22228 3.32588 -6
      vertex -1.075 1.86195 -6
      vertex -1.52028 1.52028 -6
    endloop
  endfacet
  facet normal 0 0 -1
    outer loop
      vertex -0.55646 2.07674 -6
      vertex -1.53073 3.69552 -6
      vertex -0.780361 3.92314 -6
    endloop
  endfacet
  facet normal 0 0 -1
    outer loop
      vertex -3.32588 2.22228 -6
      vertex -1.52028 1.52028 -6
      vertex -1.86195 1.075 -6
    endloop
  endfacet
  facet normal 0 0 -1
    outer loop
      vertex -3.69552 1.53073 -6
      vertex -1.86195 1.075 -6
      vertex -2.07674 0.55646 -6
    endloop
  endfacet
  facet normal 0 0 -1
    outer loop
      vertex -1.075 1.86195 -6
      vertex -2.22228 3.32588 -6
      vertex -1.53073 3.69552 -6
    endloop
  endfacet
  facet normal 0 0 -1
    outer loop
      vertex -3.92314 0.780361 -6
      vertex -2.07674 0.55646 -6
      vertex -2.15 0 -6
    endloop
  endfacet
  facet normal 0 0 -1
    outer loop
      vertex -3.69552 -1.53073 -6
      vertex -1.86195 -1.075 -6
      vertex -3.32588 -2.22228 -6
    endloop
  endfacet
  facet normal -0 0 -1
    outer loop
      vertex -1.86195 -1.075 -6
      vertex -3.69552 -1.53073 -6
      vertex -2.07674 -0.55646 -6
    endloop
  endfacet
  facet normal 0 0 -1
    outer loop
      vertex -1.52028 1.52028 -6
      vertex -2.82843 2.82843 -6
      vertex -2.22228 3.32588 -6
    endloop
  endfacet
  facet normal 0 0 -1
    outer loop
      vertex -3.92314 -0.780361 -6
      vertex -2.07674 -0.55646 -6
      vertex -3.69552 -1.53073 -6
    endloop
  endfacet
  facet normal 0 0 -1
    outer loop
      vertex -1.52028 1.52028 -6
      vertex -3.32588 2.22228 -6
      vertex -2.82843 2.82843 -6
    endloop
  endfacet
  facet normal -0 0 -1
    outer loop
      vertex -2.07674 -0.55646 -6
      vertex -3.92314 -0.780361 -6
      vertex -2.15 0 -6
    endloop
  endfacet
  facet normal 0 0 -1
    outer loop
      vertex -1.86195 1.075 -6
      vertex -3.69552 1.53073 -6
      vertex -3.32588 2.22228 -6
    endloop
  endfacet
  facet normal 0 0 -1
    outer loop
      vertex -4 0 -6
      vertex -2.15 0 -6
      vertex -3.92314 -0.780361 -6
    endloop
  endfacet
  facet normal 0 0 -1
    outer loop
      vertex -2.07674 0.55646 -6
      vertex -3.92314 0.780361 -6
      vertex -3.69552 1.53073 -6
    endloop
  endfacet
  facet normal 0 0 -1
    outer loop
      vertex -2.15 0 -6
      vertex -4 0 -6
      vertex -3.92314 0.780361 -6
    endloop
  endfacet
  facet normal -0.881921 0.471397 0
    outer loop
      vertex -2.77164 1.14805 -5
      vertex -2.49441 1.66671 5
      vertex -2.49441 1.66671 -5
    endloop
  endfacet
  facet normal -0.881921 0.471397 0
    outer loop
      vertex -2.49441 1.66671 5
      vertex -2.77164 1.14805 -5
      vertex -2.77164 1.14805 5
    endloop
  endfacet
  facet normal 0.290289 -0.956939 0
    outer loop
      vertex 0.585271 -2.94236 -5
      vertex 1.14805 -2.77164 5
      vertex 0.585271 -2.94236 5
    endloop
  endfacet
  facet normal 0.290289 -0.956939 0
    outer loop
      vertex 1.14805 -2.77164 5
      vertex 0.585271 -2.94236 -5
      vertex 1.14805 -2.77164 -5
    endloop
  endfacet
  facet normal 0 0 1
    outer loop
      vertex 2.15 0 6
      vertex 4 0 6
      vertex 3.92314 0.780361 6
    endloop
  endfacet
  facet normal 0 0 1
    outer loop
      vertex 2.07674 0.55646 6
      vertex 3.92314 0.780361 6
      vertex 3.69552 1.53073 6
    endloop
  endfacet
  facet normal 0 0 1
    outer loop
      vertex 4 0 6
      vertex 2.15 0 6
      vertex 3.92314 -0.780361 6
    endloop
  endfacet
  facet normal 0 0 1
    outer loop
      vertex 1.86195 1.075 6
      vertex 3.69552 1.53073 6
      vertex 3.32588 2.22228 6
    endloop
  endfacet
  facet normal -0 0 1
    outer loop
      vertex 2.07674 -0.55646 6
      vertex 3.92314 -0.780361 6
      vertex 2.15 0 6
    endloop
  endfacet
  facet normal 0 0 1
    outer loop
      vertex 1.52028 1.52028 6
      vertex 3.32588 2.22228 6
      vertex 2.82843 2.82843 6
    endloop
  endfacet
  facet normal 0 0 1
    outer loop
      vertex 3.92314 -0.780361 6
      vertex 2.07674 -0.55646 6
      vertex 3.69552 -1.53073 6
    endloop
  endfacet
  facet normal 0 0 1
    outer loop
      vertex 1.52028 1.52028 6
      vertex 2.82843 2.82843 6
      vertex 2.22228 3.32588 6
    endloop
  endfacet
  facet normal -0 0 1
    outer loop
      vertex 1.86195 -1.075 6
      vertex 3.69552 -1.53073 6
      vertex 2.07674 -0.55646 6
    endloop
  endfacet
  facet normal 0 0 1
    outer loop
      vertex 3.69552 -1.53073 6
      vertex 1.86195 -1.075 6
      vertex 3.32588 -2.22228 6
    endloop
  endfacet
  facet normal 0 0 1
    outer loop
      vertex 3.92314 0.780361 6
      vertex 2.07674 0.55646 6
      vertex 2.15 0 6
    endloop
  endfacet
  facet normal 0 0 1
    outer loop
      vertex 3.69552 1.53073 6
      vertex 1.86195 1.075 6
      vertex 2.07674 0.55646 6
    endloop
  endfacet
  facet normal 0 0 1
    outer loop
      vertex 1.075 1.86195 6
      vertex 2.22228 3.32588 6
      vertex 1.53073 3.69552 6
    endloop
  endfacet
  facet normal 0 0 1
    outer loop
      vertex 3.32588 2.22228 6
      vertex 1.52028 1.52028 6
      vertex 1.86195 1.075 6
    endloop
  endfacet
  facet normal 0 0 1
    outer loop
      vertex 2.22228 3.32588 6
      vertex 1.075 1.86195 6
      vertex 1.52028 1.52028 6
    endloop
  endfacet
  facet normal 0 0 1
    outer loop
      vertex 0.55646 2.07674 6
      vertex 1.53073 3.69552 6
      vertex 0.780361 3.92314 6
    endloop
  endfacet
  facet normal 0 0 1
    outer loop
      vertex 1.53073 3.69552 6
      vertex 0.55646 2.07674 6
      vertex 1.075 1.86195 6
    endloop
  endfacet
  facet normal 0 0 1
    outer loop
      vertex 0 2.15 6
      vertex 0.780361 3.92314 6
      vertex 0 4 6
    endloop
  endfacet
  facet normal 0 0 1
    outer loop
      vertex 0.780361 3.92314 6
      vertex 0 2.15 6
      vertex 0.55646 2.07674 6
    endloop
  endfacet
  facet normal -0 0 1
    outer loop
      vertex -0.780361 3.92314 6
      vertex 0 2.15 6
      vertex 0 4 6
    endloop
  endfacet
  facet normal 0 0 1
    outer loop
      vertex 0 2.15 6
      vertex -0.780361 3.92314 6
      vertex -0.55646 2.07674 6
    endloop
  endfacet
  facet normal -0 0 1
    outer loop
      vertex -1.53073 3.69552 6
      vertex -0.55646 2.07674 6
      vertex -0.780361 3.92314 6
    endloop
  endfacet
  facet normal 0 0 1
    outer loop
      vertex -0.55646 2.07674 6
      vertex -1.53073 3.69552 6
      vertex -1.075 1.86195 6
    endloop
  endfacet
  facet normal -0 0 1
    outer loop
      vertex -2.22228 3.32588 6
      vertex -1.075 1.86195 6
      vertex -1.53073 3.69552 6
    endloop
  endfacet
  facet normal 0 0 1
    outer loop
      vertex -1.075 1.86195 6
      vertex -2.22228 3.32588 6
      vertex -1.52028 1.52028 6
    endloop
  endfacet
  facet normal -0 0 1
    outer loop
      vertex -2.82843 2.82843 6
      vertex -1.52028 1.52028 6
      vertex -2.22228 3.32588 6
    endloop
  endfacet
  facet normal 0 0 1
    outer loop
      vertex -1.52028 1.52028 6
      vertex -3.32588 2.22228 6
      vertex -1.86195 1.075 6
    endloop
  endfacet
  facet normal -0 0 1
    outer loop
      vertex -3.32588 2.22228 6
      vertex -1.52028 1.52028 6
      vertex -2.82843 2.82843 6
    endloop
  endfacet
  facet normal -0 0 1
    outer loop
      vertex 1.52028 -1.52028 6
      vertex 3.32588 -2.22228 6
      vertex 1.86195 -1.075 6
    endloop
  endfacet
  facet normal 0 0 1
    outer loop
      vertex 3.32588 -2.22228 6
      vertex 1.52028 -1.52028 6
      vertex 2.82843 -2.82843 6
    endloop
  endfacet
  facet normal 0 0 1
    outer loop
      vertex 2.82843 -2.82843 6
      vertex 1.52028 -1.52028 6
      vertex 2.22228 -3.32588 6
    endloop
  endfacet
  facet normal -0 0 1
    outer loop
      vertex 1.075 -1.86195 6
      vertex 2.22228 -3.32588 6
      vertex 1.52028 -1.52028 6
    endloop
  endfacet
  facet normal 0 0 1
    outer loop
      vertex 2.22228 -3.32588 6
      vertex 1.075 -1.86195 6
      vertex 1.53073 -3.69552 6
    endloop
  endfacet
  facet normal -0 0 1
    outer loop
      vertex 0.55646 -2.07674 6
      vertex 1.53073 -3.69552 6
      vertex 1.075 -1.86195 6
    endloop
  endfacet
  facet normal 0 0 1
    outer loop
      vertex 1.53073 -3.69552 6
      vertex 0.55646 -2.07674 6
      vertex 0.780361 -3.92314 6
    endloop
  endfacet
  facet normal -0 0 1
    outer loop
      vertex 0 -2.15 6
      vertex 0.780361 -3.92314 6
      vertex 0.55646 -2.07674 6
    endloop
  endfacet
  facet normal 0 0 1
    outer loop
      vertex 0 -2.15 6
      vertex 0 -4 6
      vertex 0.780361 -3.92314 6
    endloop
  endfacet
  facet normal 0 0 1
    outer loop
      vertex -0.780361 -3.92314 6
      vertex 0 -2.15 6
      vertex -0.55646 -2.07674 6
    endloop
  endfacet
  facet normal 0 0 1
    outer loop
      vertex 0 -2.15 6
      vertex -0.780361 -3.92314 6
      vertex 0 -4 6
    endloop
  endfacet
  facet normal 0 0 1
    outer loop
      vertex -1.53073 -3.69552 6
      vertex -0.55646 -2.07674 6
      vertex -1.075 -1.86195 6
    endloop
  endfacet
  facet normal 0 0 1
    outer loop
      vertex -2.22228 -3.32588 6
      vertex -1.075 -1.86195 6
      vertex -1.52028 -1.52028 6
    endloop
  endfacet
  facet normal 0 0 1
    outer loop
      vertex -0.55646 -2.07674 6
      vertex -1.53073 -3.69552 6
      vertex -0.780361 -3.92314 6
    endloop
  endfacet
  facet normal 0 0 1
    outer loop
      vertex -3.32588 -2.22228 6
      vertex -1.52028 -1.52028 6
      vertex -1.86195 -1.075 6
    endloop
  endfacet
  facet normal 0 0 1
    outer loop
      vertex -3.69552 -1.53073 6
      vertex -1.86195 -1.075 6
      vertex -2.07674 -0.55646 6
    endloop
  endfacet
  facet normal 0 0 1
    outer loop
      vertex -1.075 -1.86195 6
      vertex -2.22228 -3.32588 6
      vertex -1.53073 -3.69552 6
    endloop
  endfacet
  facet normal 0 0 1
    outer loop
      vertex -3.92314 -0.780361 6
      vertex -2.07674 -0.55646 6
      vertex -2.15 0 6
    endloop
  endfacet
  facet normal -0 0 1
    outer loop
      vertex -3.69552 1.53073 6
      vertex -1.86195 1.075 6
      vertex -3.32588 2.22228 6
    endloop
  endfacet
  facet normal 0 0 1
    outer loop
      vertex -1.86195 1.075 6
      vertex -3.69552 1.53073 6
      vertex -2.07674 0.55646 6
    endloop
  endfacet
  facet normal 0 0 1
    outer loop
      vertex -1.52028 -1.52028 6
      vertex -2.82843 -2.82843 6
      vertex -2.22228 -3.32588 6
    endloop
  endfacet
  facet normal -0 0 1
    outer loop
      vertex -3.92314 0.780361 6
      vertex -2.07674 0.55646 6
      vertex -3.69552 1.53073 6
    endloop
  endfacet
  facet normal 0 0 1
    outer loop
      vertex -1.52028 -1.52028 6
      vertex -3.32588 -2.22228 6
      vertex -2.82843 -2.82843 6
    endloop
  endfacet
  facet normal 0 0 1
    outer loop
      vertex -2.07674 0.55646 6
      vertex -3.92314 0.780361 6
      vertex -2.15 0 6
    endloop
  endfacet
  facet normal 0 0 1
    outer loop
      vertex -1.86195 -1.075 6
      vertex -3.69552 -1.53073 6
      vertex -3.32588 -2.22228 6
    endloop
  endfacet
  facet normal 0 0 1
    outer loop
      vertex -4 0 6
      vertex -2.15 0 6
      vertex -3.92314 0.780361 6
    endloop
  endfacet
  facet normal 0 0 1
    outer loop
      vertex -2.07674 -0.55646 6
      vertex -3.92314 -0.780361 6
      vertex -3.69552 -1.53073 6
    endloop
  endfacet
  facet normal 0 0 1
    outer loop
      vertex -2.15 0 6
      vertex -4 0 6
      vertex -3.92314 -0.780361 6
    endloop
  endfacet
  facet normal -0.290289 -0.956939 0
    outer loop
      vertex -1.14805 -2.77164 -5
      vertex -0.585271 -2.94236 5
      vertex -1.14805 -2.77164 5
    endloop
  endfacet
  facet normal -0.290289 -0.956939 -0
    outer loop
      vertex -0.585271 -2.94236 5
      vertex -1.14805 -2.77164 -5
      vertex -0.585271 -2.94236 -5
    endloop
  endfacet
  facet normal 0.956939 -0.290289 0
    outer loop
      vertex 2.77164 -1.14805 5
      vertex 2.94236 -0.585271 -5
      vertex 2.94236 -0.585271 5
    endloop
  endfacet
  facet normal 0.956939 -0.290289 0
    outer loop
      vertex 2.94236 -0.585271 -5
      vertex 2.77164 -1.14805 5
      vertex 2.77164 -1.14805 -5
    endloop
  endfacet
  facet normal 0.773009 0.634395 0
    outer loop
      vertex 2.49441 1.66671 5
      vertex 2.12132 2.12132 -5
      vertex 2.12132 2.12132 5
    endloop
  endfacet
  facet normal 0.773009 0.634395 0
    outer loop
      vertex 2.12132 2.12132 -5
      vertex 2.49441 1.66671 5
      vertex 2.49441 1.66671 -5
    endloop
  endfacet
  facet normal -0.995185 0.0980101 0
    outer loop
      vertex -3 0 -5
      vertex -2.94236 0.585271 5
      vertex -2.94236 0.585271 -5
    endloop
  endfacet
  facet normal -0.995185 0.0980101 0
    outer loop
      vertex -2.94236 0.585271 5
      vertex -3 0 -5
      vertex -3 0 5
    endloop
  endfacet
  facet normal 0.634395 -0.773009 0
    outer loop
      vertex 1.66671 -2.49441 -5
      vertex 2.12132 -2.12132 5
      vertex 1.66671 -2.49441 5
    endloop
  endfacet
  facet normal 0.634395 -0.773009 0
    outer loop
      vertex 2.12132 -2.12132 5
      vertex 1.66671 -2.49441 -5
      vertex 2.12132 -2.12132 -5
    endloop
  endfacet
  facet normal -0.634395 -0.773009 0
    outer loop
      vertex -2.12132 -2.12132 -5
      vertex -1.66671 -2.49441 5
      vertex -2.12132 -2.12132 5
    endloop
  endfacet
  facet normal -0.634395 -0.773009 -0
    outer loop
      vertex -1.66671 -2.49441 5
      vertex -2.12132 -2.12132 -5
      vertex -1.66671 -2.49441 -5
    endloop
  endfacet
  facet normal -0.0980101 0.995185 0
    outer loop
      vertex 0 3 -5
      vertex -0.585271 2.94236 5
      vertex 0 3 5
    endloop
  endfacet
  facet normal -0.0980101 0.995185 0
    outer loop
      vertex -0.585271 2.94236 5
      vertex 0 3 -5
      vertex -0.585271 2.94236 -5
    endloop
  endfacet
  facet normal 0.881921 -0.471397 0
    outer loop
      vertex 2.49441 -1.66671 5
      vertex 2.77164 -1.14805 -5
      vertex 2.77164 -1.14805 5
    endloop
  endfacet
  facet normal 0.881921 -0.471397 0
    outer loop
      vertex 2.77164 -1.14805 -5
      vertex 2.49441 -1.66671 5
      vertex 2.49441 -1.66671 -5
    endloop
  endfacet
  facet normal -0.956939 -0.290289 0
    outer loop
      vertex -2.77164 -1.14805 -5
      vertex -2.94236 -0.585271 5
      vertex -2.94236 -0.585271 -5
    endloop
  endfacet
  facet normal -0.956939 -0.290289 0
    outer loop
      vertex -2.94236 -0.585271 5
      vertex -2.77164 -1.14805 -5
      vertex -2.77164 -1.14805 5
    endloop
  endfacet
  facet normal -0.995185 -0.0980101 0
    outer loop
      vertex -2.94236 -0.585271 -5
      vertex -3 0 5
      vertex -3 0 -5
    endloop
  endfacet
  facet normal -0.995185 -0.0980101 0
    outer loop
      vertex -3 0 5
      vertex -2.94236 -0.585271 -5
      vertex -2.94236 -0.585271 5
    endloop
  endfacet
  facet normal -0.773009 -0.634395 0
    outer loop
      vertex -2.12132 -2.12132 -5
      vertex -2.49441 -1.66671 5
      vertex -2.49441 -1.66671 -5
    endloop
  endfacet
  facet normal -0.773009 -0.634395 0
    outer loop
      vertex -2.49441 -1.66671 5
      vertex -2.12132 -2.12132 -5
      vertex -2.12132 -2.12132 5
    endloop
  endfacet
  facet normal -0.773009 0.634395 0
    outer loop
      vertex -2.49441 1.66671 -5
      vertex -2.12132 2.12132 5
      vertex -2.12132 2.12132 -5
    endloop
  endfacet
  facet normal -0.773009 0.634395 0
    outer loop
      vertex -2.12132 2.12132 5
      vertex -2.49441 1.66671 -5
      vertex -2.49441 1.66671 5
    endloop
  endfacet
  facet normal -0.956939 0.290289 0
    outer loop
      vertex -2.94236 0.585271 -5
      vertex -2.77164 1.14805 5
      vertex -2.77164 1.14805 -5
    endloop
  endfacet
  facet normal -0.956939 0.290289 0
    outer loop
      vertex -2.77164 1.14805 5
      vertex -2.94236 0.585271 -5
      vertex -2.94236 0.585271 5
    endloop
  endfacet
  facet normal -0.471397 -0.881921 0
    outer loop
      vertex -1.66671 -2.49441 -5
      vertex -1.14805 -2.77164 5
      vertex -1.66671 -2.49441 5
    endloop
  endfacet
  facet normal -0.471397 -0.881921 -0
    outer loop
      vertex -1.14805 -2.77164 5
      vertex -1.66671 -2.49441 -5
      vertex -1.14805 -2.77164 -5
    endloop
  endfacet
  facet normal -0.471396 0.881922 0
    outer loop
      vertex -1.53073 3.69552 5
      vertex -2.22228 3.32588 6
      vertex -1.53073 3.69552 6
    endloop
  endfacet
  facet normal -0.471396 0.881922 0
    outer loop
      vertex -2.22228 3.32588 6
      vertex -1.53073 3.69552 5
      vertex -2.22228 3.32588 5
    endloop
  endfacet
  facet normal 0.471396 0.881922 -0
    outer loop
      vertex 2.22228 3.32588 5
      vertex 1.53073 3.69552 6
      vertex 2.22228 3.32588 6
    endloop
  endfacet
  facet normal 0.471396 0.881922 0
    outer loop
      vertex 1.53073 3.69552 6
      vertex 2.22228 3.32588 5
      vertex 1.53073 3.69552 5
    endloop
  endfacet
  facet normal 0.956941 0.290282 0
    outer loop
      vertex 3.92314 0.780361 6
      vertex 3.69552 1.53073 5
      vertex 3.69552 1.53073 6
    endloop
  endfacet
  facet normal 0.956941 0.290282 0
    outer loop
      vertex 3.69552 1.53073 5
      vertex 3.92314 0.780361 6
      vertex 3.92314 0.780361 5
    endloop
  endfacet
  facet normal 0.995185 0.0980186 0
    outer loop
      vertex 4 0 6
      vertex 3.92314 0.780361 5
      vertex 3.92314 0.780361 6
    endloop
  endfacet
  facet normal 0.995185 0.0980186 0
    outer loop
      vertex 3.92314 0.780361 5
      vertex 4 0 6
      vertex 4 0 5
    endloop
  endfacet
  facet normal 0.881922 0.471396 0
    outer loop
      vertex 3.69552 1.53073 6
      vertex 3.32588 2.22228 5
      vertex 3.32588 2.22228 6
    endloop
  endfacet
  facet normal 0.881922 0.471396 0
    outer loop
      vertex 3.32588 2.22228 5
      vertex 3.69552 1.53073 6
      vertex 3.69552 1.53073 5
    endloop
  endfacet
  facet normal 0.0980186 0.995185 -0
    outer loop
      vertex 0.780361 3.92314 5
      vertex 0 4 6
      vertex 0.780361 3.92314 6
    endloop
  endfacet
  facet normal 0.0980186 0.995185 0
    outer loop
      vertex 0 4 6
      vertex 0.780361 3.92314 5
      vertex 0 4 5
    endloop
  endfacet
  facet normal 0.0980186 -0.995185 0
    outer loop
      vertex 0 -4 5
      vertex 0.780361 -3.92314 6
      vertex 0 -4 6
    endloop
  endfacet
  facet normal 0.0980186 -0.995185 0
    outer loop
      vertex 0.780361 -3.92314 6
      vertex 0 -4 5
      vertex 0.780361 -3.92314 5
    endloop
  endfacet
  facet normal 0.290282 0.956941 -0
    outer loop
      vertex 1.53073 3.69552 5
      vertex 0.780361 3.92314 6
      vertex 1.53073 3.69552 6
    endloop
  endfacet
  facet normal 0.290282 0.956941 0
    outer loop
      vertex 0.780361 3.92314 6
      vertex 1.53073 3.69552 5
      vertex 0.780361 3.92314 5
    endloop
  endfacet
  facet normal 0.63439 0.773013 -0
    outer loop
      vertex 2.82843 2.82843 5
      vertex 2.22228 3.32588 6
      vertex 2.82843 2.82843 6
    endloop
  endfacet
  facet normal 0.63439 0.773013 0
    outer loop
      vertex 2.22228 3.32588 6
      vertex 2.82843 2.82843 5
      vertex 2.22228 3.32588 5
    endloop
  endfacet
  facet normal 0.773013 -0.63439 0
    outer loop
      vertex 2.82843 -2.82843 6
      vertex 3.32588 -2.22228 5
      vertex 3.32588 -2.22228 6
    endloop
  endfacet
  facet normal 0.773013 -0.63439 0
    outer loop
      vertex 3.32588 -2.22228 5
      vertex 2.82843 -2.82843 6
      vertex 2.82843 -2.82843 5
    endloop
  endfacet
  facet normal -0.63439 0.773013 0
    outer loop
      vertex -2.22228 3.32588 5
      vertex -2.82843 2.82843 6
      vertex -2.22228 3.32588 6
    endloop
  endfacet
  facet normal -0.63439 0.773013 0
    outer loop
      vertex -2.82843 2.82843 6
      vertex -2.22228 3.32588 5
      vertex -2.82843 2.82843 5
    endloop
  endfacet
  facet normal 0.471396 -0.881922 0
    outer loop
      vertex 1.53073 -3.69552 5
      vertex 2.22228 -3.32588 6
      vertex 1.53073 -3.69552 6
    endloop
  endfacet
  facet normal 0.471396 -0.881922 0
    outer loop
      vertex 2.22228 -3.32588 6
      vertex 1.53073 -3.69552 5
      vertex 2.22228 -3.32588 5
    endloop
  endfacet
  facet normal -0.881922 -0.471396 0
    outer loop
      vertex -3.32588 -2.22228 5
      vertex -3.69552 -1.53073 6
      vertex -3.69552 -1.53073 5
    endloop
  endfacet
  facet normal -0.881922 -0.471396 0
    outer loop
      vertex -3.69552 -1.53073 6
      vertex -3.32588 -2.22228 5
      vertex -3.32588 -2.22228 6
    endloop
  endfacet
  facet normal 0.995185 -0.0980186 0
    outer loop
      vertex 3.92314 -0.780361 6
      vertex 4 0 5
      vertex 4 0 6
    endloop
  endfacet
  facet normal 0.995185 -0.0980186 0
    outer loop
      vertex 4 0 5
      vertex 3.92314 -0.780361 6
      vertex 3.92314 -0.780361 5
    endloop
  endfacet
  facet normal -0.290282 0.956941 0
    outer loop
      vertex -0.780361 3.92314 5
      vertex -1.53073 3.69552 6
      vertex -0.780361 3.92314 6
    endloop
  endfacet
  facet normal -0.290282 0.956941 0
    outer loop
      vertex -1.53073 3.69552 6
      vertex -0.780361 3.92314 5
      vertex -1.53073 3.69552 5
    endloop
  endfacet
  facet normal -0.0980186 -0.995185 0
    outer loop
      vertex -0.780361 -3.92314 5
      vertex 0 -4 6
      vertex -0.780361 -3.92314 6
    endloop
  endfacet
  facet normal -0.0980186 -0.995185 -0
    outer loop
      vertex 0 -4 6
      vertex -0.780361 -3.92314 5
      vertex 0 -4 5
    endloop
  endfacet
  facet normal 0 0 -1
    outer loop
      vertex 3 0 5
      vertex 4 0 5
      vertex 3.92314 -0.780361 5
    endloop
  endfacet
  facet normal 0 0 -1
    outer loop
      vertex 2.94236 -0.585271 5
      vertex 3.92314 -0.780361 5
      vertex 3.69552 -1.53073 5
    endloop
  endfacet
  facet normal 0 0 -1
    outer loop
      vertex 4 0 5
      vertex 3 0 5
      vertex 3.92314 0.780361 5
    endloop
  endfacet
  facet normal 0 0 -1
    outer loop
      vertex 2.77164 -1.14805 5
      vertex 3.69552 -1.53073 5
      vertex 3.32588 -2.22228 5
    endloop
  endfacet
  facet normal 0 0 -1
    outer loop
      vertex 2.94236 0.585271 5
      vertex 3.92314 0.780361 5
      vertex 3 0 5
    endloop
  endfacet
  facet normal -0 0 -1
    outer loop
      vertex 3.92314 0.780361 5
      vertex 2.94236 0.585271 5
      vertex 3.69552 1.53073 5
    endloop
  endfacet
  facet normal 0 0 -1
    outer loop
      vertex 3.92314 -0.780361 5
      vertex 2.94236 -0.585271 5
      vertex 3 0 5
    endloop
  endfacet
  facet normal 0 0 -1
    outer loop
      vertex 2.49441 -1.66671 5
      vertex 3.32588 -2.22228 5
      vertex 2.82843 -2.82843 5
    endloop
  endfacet
  facet normal 0 0 -1
    outer loop
      vertex 3.69552 -1.53073 5
      vertex 2.77164 -1.14805 5
      vertex 2.94236 -0.585271 5
    endloop
  endfacet
  facet normal 0 0 -1
    outer loop
      vertex 3.32588 -2.22228 5
      vertex 2.49441 -1.66671 5
      vertex 2.77164 -1.14805 5
    endloop
  endfacet
  facet normal 0 0 -1
    outer loop
      vertex 2.12132 -2.12132 5
      vertex 2.82843 -2.82843 5
      vertex 2.22228 -3.32588 5
    endloop
  endfacet
  facet normal 0 0 -1
    outer loop
      vertex 2.82843 -2.82843 5
      vertex 2.12132 -2.12132 5
      vertex 2.49441 -1.66671 5
    endloop
  endfacet
  facet normal 0 0 -1
    outer loop
      vertex 2.22228 -3.32588 5
      vertex 1.66671 -2.49441 5
      vertex 2.12132 -2.12132 5
    endloop
  endfacet
  facet normal 0 0 -1
    outer loop
      vertex 1.53073 -3.69552 5
      vertex 1.66671 -2.49441 5
      vertex 2.22228 -3.32588 5
    endloop
  endfacet
  facet normal 0 0 -1
    outer loop
      vertex 1.53073 -3.69552 5
      vertex 1.14805 -2.77164 5
      vertex 1.66671 -2.49441 5
    endloop
  endfacet
  facet normal 0 0 -1
    outer loop
      vertex 0.780361 -3.92314 5
      vertex 1.14805 -2.77164 5
      vertex 1.53073 -3.69552 5
    endloop
  endfacet
  facet normal 0 0 -1
    outer loop
      vertex 0.780361 -3.92314 5
      vertex 0.585271 -2.94236 5
      vertex 1.14805 -2.77164 5
    endloop
  endfacet
  facet normal 0 0 -1
    outer loop
      vertex 0 -4 5
      vertex 0.585271 -2.94236 5
      vertex 0.780361 -3.92314 5
    endloop
  endfacet
  facet normal 0 0 -1
    outer loop
      vertex 0 -4 5
      vertex 0 -3 5
      vertex 0.585271 -2.94236 5
    endloop
  endfacet
  facet normal 0 0 -1
    outer loop
      vertex 0 -4 5
      vertex -0.585271 -2.94236 5
      vertex 0 -3 5
    endloop
  endfacet
  facet normal 0 0 -1
    outer loop
      vertex -0.780361 -3.92314 5
      vertex -0.585271 -2.94236 5
      vertex 0 -4 5
    endloop
  endfacet
  facet normal 0 0 -1
    outer loop
      vertex -0.780361 -3.92314 5
      vertex -1.14805 -2.77164 5
      vertex -0.585271 -2.94236 5
    endloop
  endfacet
  facet normal 0 0 -1
    outer loop
      vertex -1.53073 -3.69552 5
      vertex -1.14805 -2.77164 5
      vertex -0.780361 -3.92314 5
    endloop
  endfacet
  facet normal 0 0 -1
    outer loop
      vertex -1.53073 -3.69552 5
      vertex -1.66671 -2.49441 5
      vertex -1.14805 -2.77164 5
    endloop
  endfacet
  facet normal 0 0 -1
    outer loop
      vertex -2.22228 -3.32588 5
      vertex -1.66671 -2.49441 5
      vertex -1.53073 -3.69552 5
    endloop
  endfacet
  facet normal -0 0 -1
    outer loop
      vertex -1.66671 -2.49441 5
      vertex -2.22228 -3.32588 5
      vertex -2.12132 -2.12132 5
    endloop
  endfacet
  facet normal 0 0 -1
    outer loop
      vertex -2.82843 -2.82843 5
      vertex -2.12132 -2.12132 5
      vertex -2.22228 -3.32588 5
    endloop
  endfacet
  facet normal -0 0 -1
    outer loop
      vertex -2.12132 -2.12132 5
      vertex -2.82843 -2.82843 5
      vertex -2.49441 -1.66671 5
    endloop
  endfacet
  facet normal 0 0 -1
    outer loop
      vertex -3.32588 -2.22228 5
      vertex -2.49441 -1.66671 5
      vertex -2.82843 -2.82843 5
    endloop
  endfacet
  facet normal -0 0 -1
    outer loop
      vertex -2.49441 -1.66671 5
      vertex -3.32588 -2.22228 5
      vertex -2.77164 -1.14805 5
    endloop
  endfacet
  facet normal 0 0 -1
    outer loop
      vertex -3.69552 -1.53073 5
      vertex -2.77164 -1.14805 5
      vertex -3.32588 -2.22228 5
    endloop
  endfacet
  facet normal -0 0 -1
    outer loop
      vertex -2.77164 -1.14805 5
      vertex -3.69552 -1.53073 5
      vertex -2.94236 -0.585271 5
    endloop
  endfacet
  facet normal 0 0 -1
    outer loop
      vertex 2.77164 1.14805 5
      vertex 3.69552 1.53073 5
      vertex 2.94236 0.585271 5
    endloop
  endfacet
  facet normal -0 0 -1
    outer loop
      vertex 3.69552 1.53073 5
      vertex 2.77164 1.14805 5
      vertex 3.32588 2.22228 5
    endloop
  endfacet
  facet normal 0 0 -1
    outer loop
      vertex 2.49441 1.66671 5
      vertex 3.32588 2.22228 5
      vertex 2.77164 1.14805 5
    endloop
  endfacet
  facet normal -0 0 -1
    outer loop
      vertex 3.32588 2.22228 5
      vertex 2.49441 1.66671 5
      vertex 2.82843 2.82843 5
    endloop
  endfacet
  facet normal 0 0 -1
    outer loop
      vertex 2.12132 2.12132 5
      vertex 2.82843 2.82843 5
      vertex 2.49441 1.66671 5
    endloop
  endfacet
  facet normal -0 0 -1
    outer loop
      vertex 2.82843 2.82843 5
      vertex 2.12132 2.12132 5
      vertex 2.22228 3.32588 5
    endloop
  endfacet
  facet normal 0 0 -1
    outer loop
      vertex 1.66671 2.49441 5
      vertex 2.22228 3.32588 5
      vertex 2.12132 2.12132 5
    endloop
  endfacet
  facet normal 0 0 -1
    outer loop
      vertex 1.66671 2.49441 5
      vertex 1.53073 3.69552 5
      vertex 2.22228 3.32588 5
    endloop
  endfacet
  facet normal 0 0 -1
    outer loop
      vertex 1.14805 2.77164 5
      vertex 1.53073 3.69552 5
      vertex 1.66671 2.49441 5
    endloop
  endfacet
  facet normal 0 0 -1
    outer loop
      vertex 1.14805 2.77164 5
      vertex 0.780361 3.92314 5
      vertex 1.53073 3.69552 5
    endloop
  endfacet
  facet normal 0 0 -1
    outer loop
      vertex 0.585271 2.94236 5
      vertex 0.780361 3.92314 5
      vertex 1.14805 2.77164 5
    endloop
  endfacet
  facet normal 0 0 -1
    outer loop
      vertex 0 3 5
      vertex 0.780361 3.92314 5
      vertex 0.585271 2.94236 5
    endloop
  endfacet
  facet normal 0 0 -1
    outer loop
      vertex 0 3 5
      vertex 0 4 5
      vertex 0.780361 3.92314 5
    endloop
  endfacet
  facet normal 0 0 -1
    outer loop
      vertex -0.585271 2.94236 5
      vertex 0 4 5
      vertex 0 3 5
    endloop
  endfacet
  facet normal 0 0 -1
    outer loop
      vertex -0.585271 2.94236 5
      vertex -0.780361 3.92314 5
      vertex 0 4 5
    endloop
  endfacet
  facet normal 0 0 -1
    outer loop
      vertex -1.14805 2.77164 5
      vertex -0.780361 3.92314 5
      vertex -0.585271 2.94236 5
    endloop
  endfacet
  facet normal 0 0 -1
    outer loop
      vertex -1.14805 2.77164 5
      vertex -1.53073 3.69552 5
      vertex -0.780361 3.92314 5
    endloop
  endfacet
  facet normal 0 0 -1
    outer loop
      vertex -1.66671 2.49441 5
      vertex -1.53073 3.69552 5
      vertex -1.14805 2.77164 5
    endloop
  endfacet
  facet normal 0 0 -1
    outer loop
      vertex -2.22228 3.32588 5
      vertex -1.66671 2.49441 5
      vertex -2.12132 2.12132 5
    endloop
  endfacet
  facet normal 0 0 -1
    outer loop
      vertex -1.66671 2.49441 5
      vertex -2.22228 3.32588 5
      vertex -1.53073 3.69552 5
    endloop
  endfacet
  facet normal 0 0 -1
    outer loop
      vertex -2.82843 2.82843 5
      vertex -2.12132 2.12132 5
      vertex -2.49441 1.66671 5
    endloop
  endfacet
  facet normal 0 0 -1
    outer loop
      vertex -3.32588 2.22228 5
      vertex -2.49441 1.66671 5
      vertex -2.77164 1.14805 5
    endloop
  endfacet
  facet normal 0 0 -1
    outer loop
      vertex -2.12132 2.12132 5
      vertex -2.82843 2.82843 5
      vertex -2.22228 3.32588 5
    endloop
  endfacet
  facet normal 0 0 -1
    outer loop
      vertex -3.69552 1.53073 5
      vertex -2.77164 1.14805 5
      vertex -2.94236 0.585271 5
    endloop
  endfacet
  facet normal 0 0 -1
    outer loop
      vertex -3.92314 0.780361 5
      vertex -2.94236 0.585271 5
      vertex -3 0 5
    endloop
  endfacet
  facet normal 0 0 -1
    outer loop
      vertex -3.92314 -0.780361 5
      vertex -2.94236 -0.585271 5
      vertex -3.69552 -1.53073 5
    endloop
  endfacet
  facet normal 0 0 -1
    outer loop
      vertex -2.49441 1.66671 5
      vertex -3.32588 2.22228 5
      vertex -2.82843 2.82843 5
    endloop
  endfacet
  facet normal -0 0 -1
    outer loop
      vertex -2.94236 -0.585271 5
      vertex -3.92314 -0.780361 5
      vertex -3 0 5
    endloop
  endfacet
  facet normal 0 0 -1
    outer loop
      vertex -2.77164 1.14805 5
      vertex -3.69552 1.53073 5
      vertex -3.32588 2.22228 5
    endloop
  endfacet
  facet normal 0 0 -1
    outer loop
      vertex -4 0 5
      vertex -3 0 5
      vertex -3.92314 -0.780361 5
    endloop
  endfacet
  facet normal 0 0 -1
    outer loop
      vertex -2.94236 0.585271 5
      vertex -3.92314 0.780361 5
      vertex -3.69552 1.53073 5
    endloop
  endfacet
  facet normal 0 0 -1
    outer loop
      vertex -3 0 5
      vertex -4 0 5
      vertex -3.92314 0.780361 5
    endloop
  endfacet
  facet normal -0.881922 0.471396 0
    outer loop
      vertex -3.69552 1.53073 5
      vertex -3.32588 2.22228 6
      vertex -3.32588 2.22228 5
    endloop
  endfacet
  facet normal -0.881922 0.471396 0
    outer loop
      vertex -3.32588 2.22228 6
      vertex -3.69552 1.53073 5
      vertex -3.69552 1.53073 6
    endloop
  endfacet
  facet normal 0.290282 -0.956941 0
    outer loop
      vertex 0.780361 -3.92314 5
      vertex 1.53073 -3.69552 6
      vertex 0.780361 -3.92314 6
    endloop
  endfacet
  facet normal 0.290282 -0.956941 0
    outer loop
      vertex 1.53073 -3.69552 6
      vertex 0.780361 -3.92314 5
      vertex 1.53073 -3.69552 5
    endloop
  endfacet
  facet normal -0.290282 -0.956941 0
    outer loop
      vertex -1.53073 -3.69552 5
      vertex -0.780361 -3.92314 6
      vertex -1.53073 -3.69552 6
    endloop
  endfacet
  facet normal -0.290282 -0.956941 -0
    outer loop
      vertex -0.780361 -3.92314 6
      vertex -1.53073 -3.69552 5
      vertex -0.780361 -3.92314 5
    endloop
  endfacet
  facet normal 0.956941 -0.290282 0
    outer loop
      vertex 3.69552 -1.53073 6
      vertex 3.92314 -0.780361 5
      vertex 3.92314 -0.780361 6
    endloop
  endfacet
  facet normal 0.956941 -0.290282 0
    outer loop
      vertex 3.92314 -0.780361 5
      vertex 3.69552 -1.53073 6
      vertex 3.69552 -1.53073 5
    endloop
  endfacet
  facet normal 0.773013 0.63439 0
    outer loop
      vertex 3.32588 2.22228 6
      vertex 2.82843 2.82843 5
      vertex 2.82843 2.82843 6
    endloop
  endfacet
  facet normal 0.773013 0.63439 0
    outer loop
      vertex 2.82843 2.82843 5
      vertex 3.32588 2.22228 6
      vertex 3.32588 2.22228 5
    endloop
  endfacet
  facet normal -0.995185 0.0980186 0
    outer loop
      vertex -4 0 5
      vertex -3.92314 0.780361 6
      vertex -3.92314 0.780361 5
    endloop
  endfacet
  facet normal -0.995185 0.0980186 0
    outer loop
      vertex -3.92314 0.780361 6
      vertex -4 0 5
      vertex -4 0 6
    endloop
  endfacet
  facet normal 0.63439 -0.773013 0
    outer loop
      vertex 2.22228 -3.32588 5
      vertex 2.82843 -2.82843 6
      vertex 2.22228 -3.32588 6
    endloop
  endfacet
  facet normal 0.63439 -0.773013 0
    outer loop
      vertex 2.82843 -2.82843 6
      vertex 2.22228 -3.32588 5
      vertex 2.82843 -2.82843 5
    endloop
  endfacet
  facet normal -0.63439 -0.773013 0
    outer loop
      vertex -2.82843 -2.82843 5
      vertex -2.22228 -3.32588 6
      vertex -2.82843 -2.82843 6
    endloop
  endfacet
  facet normal -0.63439 -0.773013 -0
    outer loop
      vertex -2.22228 -3.32588 6
      vertex -2.82843 -2.82843 5
      vertex -2.22228 -3.32588 5
    endloop
  endfacet
  facet normal -0.0980186 0.995185 0
    outer loop
      vertex 0 4 5
      vertex -0.780361 3.92314 6
      vertex 0 4 6
    endloop
  endfacet
  facet normal -0.0980186 0.995185 0
    outer loop
      vertex -0.780361 3.92314 6
      vertex 0 4 5
      vertex -0.780361 3.92314 5
    endloop
  endfacet
  facet normal 0.881922 -0.471396 0
    outer loop
      vertex 3.32588 -2.22228 6
      vertex 3.69552 -1.53073 5
      vertex 3.69552 -1.53073 6
    endloop
  endfacet
  facet normal 0.881922 -0.471396 0
    outer loop
      vertex 3.69552 -1.53073 5
      vertex 3.32588 -2.22228 6
      vertex 3.32588 -2.22228 5
    endloop
  endfacet
  facet normal -0.956941 -0.290282 0
    outer loop
      vertex -3.69552 -1.53073 5
      vertex -3.92314 -0.780361 6
      vertex -3.92314 -0.780361 5
    endloop
  endfacet
  facet normal -0.956941 -0.290282 0
    outer loop
      vertex -3.92314 -0.780361 6
      vertex -3.69552 -1.53073 5
      vertex -3.69552 -1.53073 6
    endloop
  endfacet
  facet normal -0.995185 -0.0980186 0
    outer loop
      vertex -3.92314 -0.780361 5
      vertex -4 0 6
      vertex -4 0 5
    endloop
  endfacet
  facet normal -0.995185 -0.0980186 0
    outer loop
      vertex -4 0 6
      vertex -3.92314 -0.780361 5
      vertex -3.92314 -0.780361 6
    endloop
  endfacet
  facet normal -0.773013 -0.63439 0
    outer loop
      vertex -2.82843 -2.82843 5
      vertex -3.32588 -2.22228 6
      vertex -3.32588 -2.22228 5
    endloop
  endfacet
  facet normal -0.773013 -0.63439 0
    outer loop
      vertex -3.32588 -2.22228 6
      vertex -2.82843 -2.82843 5
      vertex -2.82843 -2.82843 6
    endloop
  endfacet
  facet normal -0.773013 0.63439 0
    outer loop
      vertex -3.32588 2.22228 5
      vertex -2.82843 2.82843 6
      vertex -2.82843 2.82843 5
    endloop
  endfacet
  facet normal -0.773013 0.63439 0
    outer loop
      vertex -2.82843 2.82843 6
      vertex -3.32588 2.22228 5
      vertex -3.32588 2.22228 6
    endloop
  endfacet
  facet normal -0.956941 0.290282 0
    outer loop
      vertex -3.92314 0.780361 5
      vertex -3.69552 1.53073 6
      vertex -3.69552 1.53073 5
    endloop
  endfacet
  facet normal -0.956941 0.290282 0
    outer loop
      vertex -3.69552 1.53073 6
      vertex -3.92314 0.780361 5
      vertex -3.92314 0.780361 6
    endloop
  endfacet
  facet normal -0.471396 -0.881922 0
    outer loop
      vertex -2.22228 -3.32588 5
      vertex -1.53073 -3.69552 6
      vertex -2.22228 -3.32588 6
    endloop
  endfacet
  facet normal -0.471396 -0.881922 -0
    outer loop
      vertex -1.53073 -3.69552 6
      vertex -2.22228 -3.32588 5
      vertex -1.53073 -3.69552 5
    endloop
  endfacet
  facet normal -0.471396 0.881922 0
    outer loop
      vertex -1.53073 3.69552 -6
      vertex -2.22228 3.32588 -5
      vertex -1.53073 3.69552 -5
    endloop
  endfacet
  facet normal -0.471396 0.881922 0
    outer loop
      vertex -2.22228 3.32588 -5
      vertex -1.53073 3.69552 -6
      vertex -2.22228 3.32588 -6
    endloop
  endfacet
  facet normal 0.471396 0.881922 -0
    outer loop
      vertex 2.22228 3.32588 -6
      vertex 1.53073 3.69552 -5
      vertex 2.22228 3.32588 -5
    endloop
  endfacet
  facet normal 0.471396 0.881922 0
    outer loop
      vertex 1.53073 3.69552 -5
      vertex 2.22228 3.32588 -6
      vertex 1.53073 3.69552 -6
    endloop
  endfacet
  facet normal 0.956941 0.290282 0
    outer loop
      vertex 3.92314 0.780361 -5
      vertex 3.69552 1.53073 -6
      vertex 3.69552 1.53073 -5
    endloop
  endfacet
  facet normal 0.956941 0.290282 0
    outer loop
      vertex 3.69552 1.53073 -6
      vertex 3.92314 0.780361 -5
      vertex 3.92314 0.780361 -6
    endloop
  endfacet
  facet normal 0.995185 0.0980186 0
    outer loop
      vertex 4 0 -5
      vertex 3.92314 0.780361 -6
      vertex 3.92314 0.780361 -5
    endloop
  endfacet
  facet normal 0.995185 0.0980186 0
    outer loop
      vertex 3.92314 0.780361 -6
      vertex 4 0 -5
      vertex 4 0 -6
    endloop
  endfacet
  facet normal 0.881922 0.471396 0
    outer loop
      vertex 3.69552 1.53073 -5
      vertex 3.32588 2.22228 -6
      vertex 3.32588 2.22228 -5
    endloop
  endfacet
  facet normal 0.881922 0.471396 0
    outer loop
      vertex 3.32588 2.22228 -6
      vertex 3.69552 1.53073 -5
      vertex 3.69552 1.53073 -6
    endloop
  endfacet
  facet normal 0.0980186 0.995185 -0
    outer loop
      vertex 0.780361 3.92314 -6
      vertex 0 4 -5
      vertex 0.780361 3.92314 -5
    endloop
  endfacet
  facet normal 0.0980186 0.995185 0
    outer loop
      vertex 0 4 -5
      vertex 0.780361 3.92314 -6
      vertex 0 4 -6
    endloop
  endfacet
  facet normal 0.0980186 -0.995185 0
    outer loop
      vertex 0 -4 -6
      vertex 0.780361 -3.92314 -5
      vertex 0 -4 -5
    endloop
  endfacet
  facet normal 0.0980186 -0.995185 0
    outer loop
      vertex 0.780361 -3.92314 -5
      vertex 0 -4 -6
      vertex 0.780361 -3.92314 -6
    endloop
  endfacet
  facet normal 0.290282 0.956941 -0
    outer loop
      vertex 1.53073 3.69552 -6
      vertex 0.780361 3.92314 -5
      vertex 1.53073 3.69552 -5
    endloop
  endfacet
  facet normal 0.290282 0.956941 0
    outer loop
      vertex 0.780361 3.92314 -5
      vertex 1.53073 3.69552 -6
      vertex 0.780361 3.92314 -6
    endloop
  endfacet
  facet normal 0.63439 0.773013 -0
    outer loop
      vertex 2.82843 2.82843 -6
      vertex 2.22228 3.32588 -5
      vertex 2.82843 2.82843 -5
    endloop
  endfacet
  facet normal 0.63439 0.773013 0
    outer loop
      vertex 2.22228 3.32588 -5
      vertex 2.82843 2.82843 -6
      vertex 2.22228 3.32588 -6
    endloop
  endfacet
  facet normal 0.773013 -0.63439 0
    outer loop
      vertex 2.82843 -2.82843 -5
      vertex 3.32588 -2.22228 -6
      vertex 3.32588 -2.22228 -5
    endloop
  endfacet
  facet normal 0.773013 -0.63439 0
    outer loop
      vertex 3.32588 -2.22228 -6
      vertex 2.82843 -2.82843 -5
      vertex 2.82843 -2.82843 -6
    endloop
  endfacet
  facet normal -0.63439 0.773013 0
    outer loop
      vertex -2.22228 3.32588 -6
      vertex -2.82843 2.82843 -5
      vertex -2.22228 3.32588 -5
    endloop
  endfacet
  facet normal -0.63439 0.773013 0
    outer loop
      vertex -2.82843 2.82843 -5
      vertex -2.22228 3.32588 -6
      vertex -2.82843 2.82843 -6
    endloop
  endfacet
  facet normal 0.471396 -0.881922 0
    outer loop
      vertex 1.53073 -3.69552 -6
      vertex 2.22228 -3.32588 -5
      vertex 1.53073 -3.69552 -5
    endloop
  endfacet
  facet normal 0.471396 -0.881922 0
    outer loop
      vertex 2.22228 -3.32588 -5
      vertex 1.53073 -3.69552 -6
      vertex 2.22228 -3.32588 -6
    endloop
  endfacet
  facet normal -0.881922 -0.471396 0
    outer loop
      vertex -3.32588 -2.22228 -6
      vertex -3.69552 -1.53073 -5
      vertex -3.69552 -1.53073 -6
    endloop
  endfacet
  facet normal -0.881922 -0.471396 0
    outer loop
      vertex -3.69552 -1.53073 -5
      vertex -3.32588 -2.22228 -6
      vertex -3.32588 -2.22228 -5
    endloop
  endfacet
  facet normal 0.995185 -0.0980186 0
    outer loop
      vertex 3.92314 -0.780361 -5
      vertex 4 0 -6
      vertex 4 0 -5
    endloop
  endfacet
  facet normal 0.995185 -0.0980186 0
    outer loop
      vertex 4 0 -6
      vertex 3.92314 -0.780361 -5
      vertex 3.92314 -0.780361 -6
    endloop
  endfacet
  facet normal -0.290282 0.956941 0
    outer loop
      vertex -0.780361 3.92314 -6
      vertex -1.53073 3.69552 -5
      vertex -0.780361 3.92314 -5
    endloop
  endfacet
  facet normal -0.290282 0.956941 0
    outer loop
      vertex -1.53073 3.69552 -5
      vertex -0.780361 3.92314 -6
      vertex -1.53073 3.69552 -6
    endloop
  endfacet
  facet normal -0.0980186 -0.995185 0
    outer loop
      vertex -0.780361 -3.92314 -6
      vertex 0 -4 -5
      vertex -0.780361 -3.92314 -5
    endloop
  endfacet
  facet normal -0.0980186 -0.995185 -0
    outer loop
      vertex 0 -4 -5
      vertex -0.780361 -3.92314 -6
      vertex 0 -4 -6
    endloop
  endfacet
  facet normal -0.881922 0.471396 0
    outer loop
      vertex -3.69552 1.53073 -6
      vertex -3.32588 2.22228 -5
      vertex -3.32588 2.22228 -6
    endloop
  endfacet
  facet normal -0.881922 0.471396 0
    outer loop
      vertex -3.32588 2.22228 -5
      vertex -3.69552 1.53073 -6
      vertex -3.69552 1.53073 -5
    endloop
  endfacet
  facet normal 0.290282 -0.956941 0
    outer loop
      vertex 0.780361 -3.92314 -6
      vertex 1.53073 -3.69552 -5
      vertex 0.780361 -3.92314 -5
    endloop
  endfacet
  facet normal 0.290282 -0.956941 0
    outer loop
      vertex 1.53073 -3.69552 -5
      vertex 0.780361 -3.92314 -6
      vertex 1.53073 -3.69552 -6
    endloop
  endfacet
  facet normal 0 0 1
    outer loop
      vertex 3 0 -5
      vertex 4 0 -5
      vertex 3.92314 0.780361 -5
    endloop
  endfacet
  facet normal 0 0 1
    outer loop
      vertex 2.94236 0.585271 -5
      vertex 3.92314 0.780361 -5
      vertex 3.69552 1.53073 -5
    endloop
  endfacet
  facet normal 0 0 1
    outer loop
      vertex 4 0 -5
      vertex 3 0 -5
      vertex 3.92314 -0.780361 -5
    endloop
  endfacet
  facet normal 0 0 1
    outer loop
      vertex 2.77164 1.14805 -5
      vertex 3.69552 1.53073 -5
      vertex 3.32588 2.22228 -5
    endloop
  endfacet
  facet normal -0 0 1
    outer loop
      vertex 2.94236 -0.585271 -5
      vertex 3.92314 -0.780361 -5
      vertex 3 0 -5
    endloop
  endfacet
  facet normal 0 0 1
    outer loop
      vertex 3.92314 -0.780361 -5
      vertex 2.94236 -0.585271 -5
      vertex 3.69552 -1.53073 -5
    endloop
  endfacet
  facet normal 0 0 1
    outer loop
      vertex 3.92314 0.780361 -5
      vertex 2.94236 0.585271 -5
      vertex 3 0 -5
    endloop
  endfacet
  facet normal 0 0 1
    outer loop
      vertex 2.49441 1.66671 -5
      vertex 3.32588 2.22228 -5
      vertex 2.82843 2.82843 -5
    endloop
  endfacet
  facet normal 0 0 1
    outer loop
      vertex 3.69552 1.53073 -5
      vertex 2.77164 1.14805 -5
      vertex 2.94236 0.585271 -5
    endloop
  endfacet
  facet normal 0 0 1
    outer loop
      vertex 3.32588 2.22228 -5
      vertex 2.49441 1.66671 -5
      vertex 2.77164 1.14805 -5
    endloop
  endfacet
  facet normal 0 0 1
    outer loop
      vertex 2.12132 2.12132 -5
      vertex 2.82843 2.82843 -5
      vertex 2.22228 3.32588 -5
    endloop
  endfacet
  facet normal 0 0 1
    outer loop
      vertex 2.82843 2.82843 -5
      vertex 2.12132 2.12132 -5
      vertex 2.49441 1.66671 -5
    endloop
  endfacet
  facet normal 0 0 1
    outer loop
      vertex 2.22228 3.32588 -5
      vertex 1.66671 2.49441 -5
      vertex 2.12132 2.12132 -5
    endloop
  endfacet
  facet normal 0 0 1
    outer loop
      vertex 1.53073 3.69552 -5
      vertex 1.66671 2.49441 -5
      vertex 2.22228 3.32588 -5
    endloop
  endfacet
  facet normal 0 0 1
    outer loop
      vertex 1.53073 3.69552 -5
      vertex 1.14805 2.77164 -5
      vertex 1.66671 2.49441 -5
    endloop
  endfacet
  facet normal 0 0 1
    outer loop
      vertex 0.780361 3.92314 -5
      vertex 1.14805 2.77164 -5
      vertex 1.53073 3.69552 -5
    endloop
  endfacet
  facet normal 0 0 1
    outer loop
      vertex 0.780361 3.92314 -5
      vertex 0.585271 2.94236 -5
      vertex 1.14805 2.77164 -5
    endloop
  endfacet
  facet normal 0 0 1
    outer loop
      vertex 0 4 -5
      vertex 0.585271 2.94236 -5
      vertex 0.780361 3.92314 -5
    endloop
  endfacet
  facet normal 0 0 1
    outer loop
      vertex 0 4 -5
      vertex 0 3 -5
      vertex 0.585271 2.94236 -5
    endloop
  endfacet
  facet normal 0 0 1
    outer loop
      vertex 0 4 -5
      vertex -0.585271 2.94236 -5
      vertex 0 3 -5
    endloop
  endfacet
  facet normal -0 0 1
    outer loop
      vertex -0.780361 3.92314 -5
      vertex -0.585271 2.94236 -5
      vertex 0 4 -5
    endloop
  endfacet
  facet normal 0 0 1
    outer loop
      vertex -0.780361 3.92314 -5
      vertex -1.14805 2.77164 -5
      vertex -0.585271 2.94236 -5
    endloop
  endfacet
  facet normal -0 0 1
    outer loop
      vertex -1.53073 3.69552 -5
      vertex -1.14805 2.77164 -5
      vertex -0.780361 3.92314 -5
    endloop
  endfacet
  facet normal 0 0 1
    outer loop
      vertex -1.53073 3.69552 -5
      vertex -1.66671 2.49441 -5
      vertex -1.14805 2.77164 -5
    endloop
  endfacet
  facet normal -0 0 1
    outer loop
      vertex -2.22228 3.32588 -5
      vertex -1.66671 2.49441 -5
      vertex -1.53073 3.69552 -5
    endloop
  endfacet
  facet normal 0 0 1
    outer loop
      vertex -1.66671 2.49441 -5
      vertex -2.22228 3.32588 -5
      vertex -2.12132 2.12132 -5
    endloop
  endfacet
  facet normal -0 0 1
    outer loop
      vertex -2.82843 2.82843 -5
      vertex -2.12132 2.12132 -5
      vertex -2.22228 3.32588 -5
    endloop
  endfacet
  facet normal 0 0 1
    outer loop
      vertex -2.12132 2.12132 -5
      vertex -2.82843 2.82843 -5
      vertex -2.49441 1.66671 -5
    endloop
  endfacet
  facet normal -0 0 1
    outer loop
      vertex -3.32588 2.22228 -5
      vertex -2.49441 1.66671 -5
      vertex -2.82843 2.82843 -5
    endloop
  endfacet
  facet normal 0 0 1
    outer loop
      vertex -2.49441 1.66671 -5
      vertex -3.32588 2.22228 -5
      vertex -2.77164 1.14805 -5
    endloop
  endfacet
  facet normal -0 0 1
    outer loop
      vertex -3.69552 1.53073 -5
      vertex -2.77164 1.14805 -5
      vertex -3.32588 2.22228 -5
    endloop
  endfacet
  facet normal 0 0 1
    outer loop
      vertex -2.77164 1.14805 -5
      vertex -3.69552 1.53073 -5
      vertex -2.94236 0.585271 -5
    endloop
  endfacet
  facet normal -0 0 1
    outer loop
      vertex 2.77164 -1.14805 -5
      vertex 3.69552 -1.53073 -5
      vertex 2.94236 -0.585271 -5
    endloop
  endfacet
  facet normal 0 0 1
    outer loop
      vertex 3.69552 -1.53073 -5
      vertex 2.77164 -1.14805 -5
      vertex 3.32588 -2.22228 -5
    endloop
  endfacet
  facet normal -0 0 1
    outer loop
      vertex 2.49441 -1.66671 -5
      vertex 3.32588 -2.22228 -5
      vertex 2.77164 -1.14805 -5
    endloop
  endfacet
  facet normal 0 0 1
    outer loop
      vertex 3.32588 -2.22228 -5
      vertex 2.49441 -1.66671 -5
      vertex 2.82843 -2.82843 -5
    endloop
  endfacet
  facet normal -0 0 1
    outer loop
      vertex 2.12132 -2.12132 -5
      vertex 2.82843 -2.82843 -5
      vertex 2.49441 -1.66671 -5
    endloop
  endfacet
  facet normal 0 0 1
    outer loop
      vertex 2.82843 -2.82843 -5
      vertex 2.12132 -2.12132 -5
      vertex 2.22228 -3.32588 -5
    endloop
  endfacet
  facet normal -0 0 1
    outer loop
      vertex 1.66671 -2.49441 -5
      vertex 2.22228 -3.32588 -5
      vertex 2.12132 -2.12132 -5
    endloop
  endfacet
  facet normal 0 0 1
    outer loop
      vertex 1.66671 -2.49441 -5
      vertex 1.53073 -3.69552 -5
      vertex 2.22228 -3.32588 -5
    endloop
  endfacet
  facet normal -0 0 1
    outer loop
      vertex 1.14805 -2.77164 -5
      vertex 1.53073 -3.69552 -5
      vertex 1.66671 -2.49441 -5
    endloop
  endfacet
  facet normal 0 0 1
    outer loop
      vertex 1.14805 -2.77164 -5
      vertex 0.780361 -3.92314 -5
      vertex 1.53073 -3.69552 -5
    endloop
  endfacet
  facet normal -0 0 1
    outer loop
      vertex 0.585271 -2.94236 -5
      vertex 0.780361 -3.92314 -5
      vertex 1.14805 -2.77164 -5
    endloop
  endfacet
  facet normal -0 0 1
    outer loop
      vertex 0 -3 -5
      vertex 0.780361 -3.92314 -5
      vertex 0.585271 -2.94236 -5
    endloop
  endfacet
  facet normal 0 0 1
    outer loop
      vertex 0 -3 -5
      vertex 0 -4 -5
      vertex 0.780361 -3.92314 -5
    endloop
  endfacet
  facet normal 0 0 1
    outer loop
      vertex -0.585271 -2.94236 -5
      vertex 0 -4 -5
      vertex 0 -3 -5
    endloop
  endfacet
  facet normal 0 0 1
    outer loop
      vertex -0.585271 -2.94236 -5
      vertex -0.780361 -3.92314 -5
      vertex 0 -4 -5
    endloop
  endfacet
  facet normal 0 0 1
    outer loop
      vertex -1.14805 -2.77164 -5
      vertex -0.780361 -3.92314 -5
      vertex -0.585271 -2.94236 -5
    endloop
  endfacet
  facet normal 0 0 1
    outer loop
      vertex -1.14805 -2.77164 -5
      vertex -1.53073 -3.69552 -5
      vertex -0.780361 -3.92314 -5
    endloop
  endfacet
  facet normal 0 0 1
    outer loop
      vertex -1.66671 -2.49441 -5
      vertex -1.53073 -3.69552 -5
      vertex -1.14805 -2.77164 -5
    endloop
  endfacet
  facet normal 0 0 1
    outer loop
      vertex -2.22228 -3.32588 -5
      vertex -1.66671 -2.49441 -5
      vertex -2.12132 -2.12132 -5
    endloop
  endfacet
  facet normal 0 0 1
    outer loop
      vertex -1.66671 -2.49441 -5
      vertex -2.22228 -3.32588 -5
      vertex -1.53073 -3.69552 -5
    endloop
  endfacet
  facet normal 0 0 1
    outer loop
      vertex -2.82843 -2.82843 -5
      vertex -2.12132 -2.12132 -5
      vertex -2.49441 -1.66671 -5
    endloop
  endfacet
  facet normal 0 0 1
    outer loop
      vertex -3.32588 -2.22228 -5
      vertex -2.49441 -1.66671 -5
      vertex -2.77164 -1.14805 -5
    endloop
  endfacet
  facet normal 0 0 1
    outer loop
      vertex -2.12132 -2.12132 -5
      vertex -2.82843 -2.82843 -5
      vertex -2.22228 -3.32588 -5
    endloop
  endfacet
  facet normal 0 0 1
    outer loop
      vertex -3.69552 -1.53073 -5
      vertex -2.77164 -1.14805 -5
      vertex -2.94236 -0.585271 -5
    endloop
  endfacet
  facet normal 0 0 1
    outer loop
      vertex -3.92314 -0.780361 -5
      vertex -2.94236 -0.585271 -5
      vertex -3 0 -5
    endloop
  endfacet
  facet normal -0 0 1
    outer loop
      vertex -3.92314 0.780361 -5
      vertex -2.94236 0.585271 -5
      vertex -3.69552 1.53073 -5
    endloop
  endfacet
  facet normal 0 0 1
    outer loop
      vertex -2.49441 -1.66671 -5
      vertex -3.32588 -2.22228 -5
      vertex -2.82843 -2.82843 -5
    endloop
  endfacet
  facet normal 0 0 1
    outer loop
      vertex -2.94236 0.585271 -5
      vertex -3.92314 0.780361 -5
      vertex -3 0 -5
    endloop
  endfacet
  facet normal 0 0 1
    outer loop
      vertex -2.77164 -1.14805 -5
      vertex -3.69552 -1.53073 -5
      vertex -3.32588 -2.22228 -5
    endloop
  endfacet
  facet normal 0 0 1
    outer loop
      vertex -4 0 -5
      vertex -3 0 -5
      vertex -3.92314 0.780361 -5
    endloop
  endfacet
  facet normal 0 0 1
    outer loop
      vertex -2.94236 -0.585271 -5
      vertex -3.92314 -0.780361 -5
      vertex -3.69552 -1.53073 -5
    endloop
  endfacet
  facet normal 0 0 1
    outer loop
      vertex -3 0 -5
      vertex -4 0 -5
      vertex -3.92314 -0.780361 -5
    endloop
  endfacet
  facet normal -0.290282 -0.956941 0
    outer loop
      vertex -1.53073 -3.69552 -6
      vertex -0.780361 -3.92314 -5
      vertex -1.53073 -3.69552 -5
    endloop
  endfacet
  facet normal -0.290282 -0.956941 -0
    outer loop
      vertex -0.780361 -3.92314 -5
      vertex -1.53073 -3.69552 -6
      vertex -0.780361 -3.92314 -6
    endloop
  endfacet
  facet normal 0.956941 -0.290282 0
    outer loop
      vertex 3.69552 -1.53073 -5
      vertex 3.92314 -0.780361 -6
      vertex 3.92314 -0.780361 -5
    endloop
  endfacet
  facet normal 0.956941 -0.290282 0
    outer loop
      vertex 3.92314 -0.780361 -6
      vertex 3.69552 -1.53073 -5
      vertex 3.69552 -1.53073 -6
    endloop
  endfacet
  facet normal 0.773013 0.63439 0
    outer loop
      vertex 3.32588 2.22228 -5
      vertex 2.82843 2.82843 -6
      vertex 2.82843 2.82843 -5
    endloop
  endfacet
  facet normal 0.773013 0.63439 0
    outer loop
      vertex 2.82843 2.82843 -6
      vertex 3.32588 2.22228 -5
      vertex 3.32588 2.22228 -6
    endloop
  endfacet
  facet normal -0.995185 0.0980186 0
    outer loop
      vertex -4 0 -6
      vertex -3.92314 0.780361 -5
      vertex -3.92314 0.780361 -6
    endloop
  endfacet
  facet normal -0.995185 0.0980186 0
    outer loop
      vertex -3.92314 0.780361 -5
      vertex -4 0 -6
      vertex -4 0 -5
    endloop
  endfacet
  facet normal 0.63439 -0.773013 0
    outer loop
      vertex 2.22228 -3.32588 -6
      vertex 2.82843 -2.82843 -5
      vertex 2.22228 -3.32588 -5
    endloop
  endfacet
  facet normal 0.63439 -0.773013 0
    outer loop
      vertex 2.82843 -2.82843 -5
      vertex 2.22228 -3.32588 -6
      vertex 2.82843 -2.82843 -6
    endloop
  endfacet
  facet normal -0.63439 -0.773013 0
    outer loop
      vertex -2.82843 -2.82843 -6
      vertex -2.22228 -3.32588 -5
      vertex -2.82843 -2.82843 -5
    endloop
  endfacet
  facet normal -0.63439 -0.773013 -0
    outer loop
      vertex -2.22228 -3.32588 -5
      vertex -2.82843 -2.82843 -6
      vertex -2.22228 -3.32588 -6
    endloop
  endfacet
  facet normal -0.0980186 0.995185 0
    outer loop
      vertex 0 4 -6
      vertex -0.780361 3.92314 -5
      vertex 0 4 -5
    endloop
  endfacet
  facet normal -0.0980186 0.995185 0
    outer loop
      vertex -0.780361 3.92314 -5
      vertex 0 4 -6
      vertex -0.780361 3.92314 -6
    endloop
  endfacet
  facet normal 0.881922 -0.471396 0
    outer loop
      vertex 3.32588 -2.22228 -5
      vertex 3.69552 -1.53073 -6
      vertex 3.69552 -1.53073 -5
    endloop
  endfacet
  facet normal 0.881922 -0.471396 0
    outer loop
      vertex 3.69552 -1.53073 -6
      vertex 3.32588 -2.22228 -5
      vertex 3.32588 -2.22228 -6
    endloop
  endfacet
  facet normal -0.956941 -0.290282 0
    outer loop
      vertex -3.69552 -1.53073 -6
      vertex -3.92314 -0.780361 -5
      vertex -3.92314 -0.780361 -6
    endloop
  endfacet
  facet normal -0.956941 -0.290282 0
    outer loop
      vertex -3.92314 -0.780361 -5
      vertex -3.69552 -1.53073 -6
      vertex -3.69552 -1.53073 -5
    endloop
  endfacet
  facet normal -0.995185 -0.0980186 0
    outer loop
      vertex -3.92314 -0.780361 -6
      vertex -4 0 -5
      vertex -4 0 -6
    endloop
  endfacet
  facet normal -0.995185 -0.0980186 0
    outer loop
      vertex -4 0 -5
      vertex -3.92314 -0.780361 -6
      vertex -3.92314 -0.780361 -5
    endloop
  endfacet
  facet normal -0.773013 -0.63439 0
    outer loop
      vertex -2.82843 -2.82843 -6
      vertex -3.32588 -2.22228 -5
      vertex -3.32588 -2.22228 -6
    endloop
  endfacet
  facet normal -0.773013 -0.63439 0
    outer loop
      vertex -3.32588 -2.22228 -5
      vertex -2.82843 -2.82843 -6
      vertex -2.82843 -2.82843 -5
    endloop
  endfacet
  facet normal -0.773013 0.63439 0
    outer loop
      vertex -3.32588 2.22228 -6
      vertex -2.82843 2.82843 -5
      vertex -2.82843 2.82843 -6
    endloop
  endfacet
  facet normal -0.773013 0.63439 0
    outer loop
      vertex -2.82843 2.82843 -5
      vertex -3.32588 2.22228 -6
      vertex -3.32588 2.22228 -5
    endloop
  endfacet
  facet normal -0.956941 0.290282 0
    outer loop
      vertex -3.92314 0.780361 -6
      vertex -3.69552 1.53073 -5
      vertex -3.69552 1.53073 -6
    endloop
  endfacet
  facet normal -0.956941 0.290282 0
    outer loop
      vertex -3.69552 1.53073 -5
      vertex -3.92314 0.780361 -6
      vertex -3.92314 0.780361 -5
    endloop
  endfacet
  facet normal -0.471396 -0.881922 0
    outer loop
      vertex -2.22228 -3.32588 -6
      vertex -1.53073 -3.69552 -5
      vertex -2.22228 -3.32588 -5
    endloop
  endfacet
  facet normal -0.471396 -0.881922 -0
    outer loop
      vertex -1.53073 -3.69552 -5
      vertex -2.22228 -3.32588 -6
      vertex -1.53073 -3.69552 -6
    endloop
  endfacet
  facet normal -0.382689 -0.923877 0
    outer loop
      vertex 0.55646 2.07674 -6
      vertex 1.075 1.86195 6
      vertex 0.55646 2.07674 6
    endloop
  endfacet
  facet normal -0.382689 -0.923877 -0
    outer loop
      vertex 1.075 1.86195 6
      vertex 0.55646 2.07674 -6
      vertex 1.075 1.86195 -6
    endloop
  endfacet
  facet normal -0.923877 -0.382689 0
    outer loop
      vertex 2.07674 0.55646 -6
      vertex 1.86195 1.075 6
      vertex 1.86195 1.075 -6
    endloop
  endfacet
  facet normal -0.923877 -0.382689 0
    outer loop
      vertex 1.86195 1.075 6
      vertex 2.07674 0.55646 -6
      vertex 2.07674 0.55646 6
    endloop
  endfacet
  facet normal -0.991445 -0.130527 0
    outer loop
      vertex 2.15 0 -6
      vertex 2.07674 0.55646 6
      vertex 2.07674 0.55646 -6
    endloop
  endfacet
  facet normal -0.991445 -0.130527 0
    outer loop
      vertex 2.07674 0.55646 6
      vertex 2.15 0 -6
      vertex 2.15 0 6
    endloop
  endfacet
  facet normal -0.608755 0.793358 0
    outer loop
      vertex 1.52028 -1.52028 -6
      vertex 1.075 -1.86195 6
      vertex 1.52028 -1.52028 6
    endloop
  endfacet
  facet normal -0.608755 0.793358 0
    outer loop
      vertex 1.075 -1.86195 6
      vertex 1.52028 -1.52028 -6
      vertex 1.075 -1.86195 -6
    endloop
  endfacet
  facet normal 0.382689 0.923877 -0
    outer loop
      vertex -0.55646 -2.07674 -6
      vertex -1.075 -1.86195 6
      vertex -0.55646 -2.07674 6
    endloop
  endfacet
  facet normal 0.382689 0.923877 0
    outer loop
      vertex -1.075 -1.86195 6
      vertex -0.55646 -2.07674 -6
      vertex -1.075 -1.86195 -6
    endloop
  endfacet
  facet normal 0.923877 -0.382689 0
    outer loop
      vertex -2.07674 0.55646 6
      vertex -1.86195 1.075 -6
      vertex -1.86195 1.075 6
    endloop
  endfacet
  facet normal 0.923877 -0.382689 0
    outer loop
      vertex -1.86195 1.075 -6
      vertex -2.07674 0.55646 6
      vertex -2.07674 0.55646 -6
    endloop
  endfacet
  facet normal -0.608755 -0.793358 0
    outer loop
      vertex 1.075 1.86195 -6
      vertex 1.52028 1.52028 6
      vertex 1.075 1.86195 6
    endloop
  endfacet
  facet normal -0.608755 -0.793358 -0
    outer loop
      vertex 1.52028 1.52028 6
      vertex 1.075 1.86195 -6
      vertex 1.52028 1.52028 -6
    endloop
  endfacet
  facet normal 0.991445 -0.130527 0
    outer loop
      vertex -2.15 0 6
      vertex -2.07674 0.55646 -6
      vertex -2.07674 0.55646 6
    endloop
  endfacet
  facet normal 0.991445 -0.130527 0
    outer loop
      vertex -2.07674 0.55646 -6
      vertex -2.15 0 6
      vertex -2.15 0 -6
    endloop
  endfacet
  facet normal -0.991445 0.130527 0
    outer loop
      vertex 2.07674 -0.55646 -6
      vertex 2.15 0 6
      vertex 2.15 0 -6
    endloop
  endfacet
  facet normal -0.991445 0.130527 0
    outer loop
      vertex 2.15 0 6
      vertex 2.07674 -0.55646 -6
      vertex 2.07674 -0.55646 6
    endloop
  endfacet
  facet normal 0.923877 0.382689 0
    outer loop
      vertex -1.86195 -1.075 6
      vertex -2.07674 -0.55646 -6
      vertex -2.07674 -0.55646 6
    endloop
  endfacet
  facet normal 0.923877 0.382689 0
    outer loop
      vertex -2.07674 -0.55646 -6
      vertex -1.86195 -1.075 6
      vertex -1.86195 -1.075 -6
    endloop
  endfacet
  facet normal -0.130527 -0.991445 0
    outer loop
      vertex 0 2.15 -6
      vertex 0.55646 2.07674 6
      vertex 0 2.15 6
    endloop
  endfacet
  facet normal -0.130527 -0.991445 -0
    outer loop
      vertex 0.55646 2.07674 6
      vertex 0 2.15 -6
      vertex 0.55646 2.07674 -6
    endloop
  endfacet
  facet normal 0.608755 -0.793358 0
    outer loop
      vertex -1.52028 1.52028 -6
      vertex -1.075 1.86195 6
      vertex -1.52028 1.52028 6
    endloop
  endfacet
  facet normal 0.608755 -0.793358 0
    outer loop
      vertex -1.075 1.86195 6
      vertex -1.52028 1.52028 -6
      vertex -1.075 1.86195 -6
    endloop
  endfacet
  facet normal 0.793358 -0.608755 0
    outer loop
      vertex -1.86195 1.075 6
      vertex -1.52028 1.52028 -6
      vertex -1.52028 1.52028 6
    endloop
  endfacet
  facet normal 0.793358 -0.608755 0
    outer loop
      vertex -1.52028 1.52028 -6
      vertex -1.86195 1.075 6
      vertex -1.86195 1.075 -6
    endloop
  endfacet
  facet normal 0.130527 -0.991445 0
    outer loop
      vertex -0.55646 2.07674 -6
      vertex 0 2.15 6
      vertex -0.55646 2.07674 6
    endloop
  endfacet
  facet normal 0.130527 -0.991445 0
    outer loop
      vertex 0 2.15 6
      vertex -0.55646 2.07674 -6
      vertex 0 2.15 -6
    endloop
  endfacet
  facet normal -0.382689 0.923877 0
    outer loop
      vertex 1.075 -1.86195 -6
      vertex 0.55646 -2.07674 6
      vertex 1.075 -1.86195 6
    endloop
  endfacet
  facet normal -0.382689 0.923877 0
    outer loop
      vertex 0.55646 -2.07674 6
      vertex 1.075 -1.86195 -6
      vertex 0.55646 -2.07674 -6
    endloop
  endfacet
  facet normal -0.793358 0.608755 0
    outer loop
      vertex 1.52028 -1.52028 -6
      vertex 1.86195 -1.075 6
      vertex 1.86195 -1.075 -6
    endloop
  endfacet
  facet normal -0.793358 0.608755 0
    outer loop
      vertex 1.86195 -1.075 6
      vertex 1.52028 -1.52028 -6
      vertex 1.52028 -1.52028 6
    endloop
  endfacet
  facet normal 0.793358 0.608755 0
    outer loop
      vertex -1.52028 -1.52028 6
      vertex -1.86195 -1.075 -6
      vertex -1.86195 -1.075 6
    endloop
  endfacet
  facet normal 0.793358 0.608755 0
    outer loop
      vertex -1.86195 -1.075 -6
      vertex -1.52028 -1.52028 6
      vertex -1.52028 -1.52028 -6
    endloop
  endfacet
  facet normal -0.130527 0.991445 0
    outer loop
      vertex 0.55646 -2.07674 -6
      vertex 0 -2.15 6
      vertex 0.55646 -2.07674 6
    endloop
  endfacet
  facet normal -0.130527 0.991445 0
    outer loop
      vertex 0 -2.15 6
      vertex 0.55646 -2.07674 -6
      vertex 0 -2.15 -6
    endloop
  endfacet
  facet normal 0.991445 0.130527 0
    outer loop
      vertex -2.07674 -0.55646 6
      vertex -2.15 0 -6
      vertex -2.15 0 6
    endloop
  endfacet
  facet normal 0.991445 0.130527 0
    outer loop
      vertex -2.15 0 -6
      vertex -2.07674 -0.55646 6
      vertex -2.07674 -0.55646 -6
    endloop
  endfacet
  facet normal 0.382689 -0.923877 0
    outer loop
      vertex -1.075 1.86195 -6
      vertex -0.55646 2.07674 6
      vertex -1.075 1.86195 6
    endloop
  endfacet
  facet normal 0.382689 -0.923877 0
    outer loop
      vertex -0.55646 2.07674 6
      vertex -1.075 1.86195 -6
      vertex -0.55646 2.07674 -6
    endloop
  endfacet
  facet normal -0.793358 -0.608755 0
    outer loop
      vertex 1.86195 1.075 -6
      vertex 1.52028 1.52028 6
      vertex 1.52028 1.52028 -6
    endloop
  endfacet
  facet normal -0.793358 -0.608755 0
    outer loop
      vertex 1.52028 1.52028 6
      vertex 1.86195 1.075 -6
      vertex 1.86195 1.075 6
    endloop
  endfacet
  facet normal 0.608755 0.793358 -0
    outer loop
      vertex -1.075 -1.86195 -6
      vertex -1.52028 -1.52028 6
      vertex -1.075 -1.86195 6
    endloop
  endfacet
  facet normal 0.608755 0.793358 0
    outer loop
      vertex -1.52028 -1.52028 6
      vertex -1.075 -1.86195 -6
      vertex -1.52028 -1.52028 -6
    endloop
  endfacet
  facet normal -0.923877 0.382689 0
    outer loop
      vertex 1.86195 -1.075 -6
      vertex 2.07674 -0.55646 6
      vertex 2.07674 -0.55646 -6
    endloop
  endfacet
  facet normal -0.923877 0.382689 0
    outer loop
      vertex 2.07674 -0.55646 6
      vertex 1.86195 -1.075 -6
      vertex 1.86195 -1.075 6
    endloop
  endfacet
  facet normal 0.130527 0.991445 -0
    outer loop
      vertex 0 -2.15 -6
      vertex -0.55646 -2.07674 6
      vertex 0 -2.15 6
    endloop
  endfacet
  facet normal 0.130527 0.991445 0
    outer loop
      vertex -0.55646 -2.07674 6
      vertex 0 -2.15 -6
      vertex -0.55646 -2.07674 -6
    endloop
  endfacet
endsolid OpenSCAD_Model
